# Blender 3.6.5
# www.blender.org
o bullet
v -0.000832 0.046887 -0.035735
v -0.000711 0.047388 -0.035374
v -0.001343 0.046965 -0.035374
v -0.001497 0.045893 -0.035735
v -0.001765 0.046334 -0.035374
v -0.001914 0.045588 -0.035374
v -0.001264 0.044720 -0.035735
v -0.001765 0.044842 -0.035374
v -0.001343 0.044208 -0.035374
v -0.000269 0.044054 -0.035735
v -0.000711 0.043786 -0.035374
v 0.000035 0.043637 -0.035374
v 0.000904 0.044289 -0.035735
v 0.000781 0.043786 -0.035374
v 0.001414 0.044208 -0.035374
v 0.001568 0.045283 -0.035735
v 0.001837 0.044842 -0.035374
v 0.001985 0.045588 -0.035374
v 0.001335 0.046457 -0.035735
v 0.001837 0.046334 -0.035374
v 0.001414 0.046965 -0.035374
v 0.000340 0.047119 -0.035735
v 0.000781 0.047388 -0.035374
v 0.000035 0.047536 -0.035374
v -0.003234 0.048856 -0.063796
v -0.001734 0.049860 -0.069051
v -0.003234 0.048856 -0.069051
v 0.000035 0.040737 -0.038538
v -0.001821 0.041105 -0.062693
v 0.000035 0.040737 -0.062693
v -0.004236 0.047356 -0.063796
v -0.004236 0.047356 -0.069051
v 0.004659 0.045588 -0.063796
v 0.004307 0.043817 -0.069051
v 0.004659 0.045588 -0.069051
v 0.001893 0.041105 -0.038538
v 0.003466 0.042156 -0.062693
v 0.003466 0.042156 -0.038538
v 0.004518 0.043731 -0.062693
v 0.004518 0.043731 -0.038538
v 0.004518 0.047445 -0.038538
v 0.003466 0.049018 -0.062693
v 0.003466 0.049018 -0.038538
v 0.000035 0.040964 -0.069051
v -0.001734 0.041316 -0.063796
v -0.001734 0.041316 -0.069051
v -0.003395 0.042156 -0.062693
v -0.004236 0.043817 -0.063796
v -0.003234 0.042317 -0.063796
v 0.000035 0.049816 -0.037811
v -0.001582 0.049495 -0.037264
v 0.000035 0.049816 -0.037264
v 0.004887 0.045588 -0.062693
v 0.004887 0.045588 -0.038538
v -0.001663 0.049688 -0.035374
v 0.000035 0.050027 -0.035374
v 0.004307 0.047356 -0.063796
v 0.004887 0.045588 -0.062693
v 0.004659 0.045588 -0.063796
v 0.000035 0.050210 -0.063796
v 0.001893 0.050069 -0.062693
v 0.001805 0.049860 -0.063796
v -0.004587 0.045588 -0.063796
v -0.004447 0.043731 -0.062693
v -0.004816 0.045588 -0.062693
v 0.004518 0.043731 -0.062693
v 0.003305 0.042317 -0.063796
v 0.004307 0.043817 -0.063796
v 0.001805 0.041316 -0.063796
v 0.000035 0.040737 -0.062693
v 0.000035 0.040964 -0.063796
v -0.001821 0.041105 -0.062693
v -0.001734 0.041316 -0.063796
v -0.003234 0.048856 -0.063796
v -0.004447 0.047445 -0.062693
v -0.003395 0.049018 -0.062693
v -0.001734 0.049860 -0.063796
v -0.001821 0.050069 -0.062693
v -0.004236 0.047356 -0.063796
v 0.000035 0.040737 -0.062693
v 0.000035 0.040964 -0.063796
v 0.003466 0.049018 -0.062693
v 0.003305 0.048856 -0.063796
v 0.000035 0.050439 -0.062693
v 0.003466 0.042156 -0.062693
v 0.001805 0.049860 -0.063796
v 0.003305 0.048856 -0.069051
v 0.001805 0.049860 -0.069051
v -0.004447 0.047445 -0.038538
v -0.004816 0.045588 -0.062693
v -0.004816 0.045588 -0.038538
v -0.004447 0.043731 -0.062693
v -0.004447 0.043731 -0.038538
v 0.000035 0.041358 -0.037811
v 0.001654 0.041681 -0.037264
v 0.000035 0.041358 -0.037264
v 0.000035 0.050439 -0.036888
v -0.001821 0.050069 -0.035775
v 0.000035 0.050439 -0.035775
v 0.004307 0.047356 -0.063796
v 0.004307 0.047356 -0.069051
v 0.001893 0.050069 -0.038538
v 0.001893 0.050069 -0.062693
v -0.001821 0.050069 -0.038538
v -0.003395 0.049018 -0.062693
v -0.003395 0.049018 -0.038538
v 0.000035 0.050210 -0.063796
v 0.000035 0.050210 -0.069051
v 0.000035 0.040737 -0.038538
v 0.001893 0.041105 -0.062693
v 0.000035 0.050439 -0.038538
v -0.001821 0.050069 -0.062693
v -0.001582 0.049495 -0.037264
v 0.000035 0.050439 -0.036888
v 0.000035 0.049816 -0.037264
v -0.004816 0.045588 -0.036888
v -0.004447 0.043731 -0.035775
v -0.004816 0.045588 -0.035775
v 0.003305 0.042317 -0.069051
v 0.001805 0.041316 -0.063796
v 0.001805 0.041316 -0.069051
v 0.003466 0.049018 -0.036888
v 0.001893 0.050069 -0.035775
v 0.003466 0.049018 -0.035775
v 0.000035 0.050439 -0.062693
v 0.003466 0.042156 -0.035775
v 0.004518 0.043731 -0.036888
v 0.004518 0.043731 -0.035775
v -0.003395 0.042156 -0.062693
v -0.003395 0.042156 -0.038538
v -0.004447 0.047445 -0.062693
v -0.001821 0.050069 -0.036888
v -0.003395 0.049018 -0.035775
v -0.001463 0.041968 -0.069051
v -0.002734 0.042818 -0.047805
v -0.001463 0.041968 -0.047805
v 0.001535 0.041968 -0.069051
v 0.000035 0.041671 -0.047805
v 0.001535 0.041968 -0.047805
v -0.003583 0.044088 -0.069051
v -0.003882 0.045588 -0.047805
v -0.003583 0.044088 -0.047805
v -0.003882 0.045588 -0.069051
v -0.003583 0.047088 -0.047805
v 0.003952 0.045588 -0.069051
v 0.003655 0.047088 -0.047805
v 0.003655 0.047088 -0.069051
v 0.000035 0.049506 -0.069051
v -0.001463 0.049206 -0.047805
v -0.001463 0.049206 -0.069051
v -0.003395 0.049018 -0.038538
v -0.003871 0.047205 -0.037811
v -0.002954 0.048577 -0.037811
v -0.002734 0.042818 -0.069051
v 0.002805 0.042818 -0.069051
v 0.003655 0.044088 -0.047805
v 0.003655 0.044088 -0.069051
v 0.001893 0.050069 -0.036888
v 0.003305 0.042317 -0.063796
v -0.003234 0.042317 -0.063796
v -0.004236 0.043817 -0.069051
v -0.003234 0.042317 -0.069051
v 0.002805 0.042818 -0.047805
v -0.001734 0.049860 -0.063796
v -0.002954 0.048577 -0.037811
v -0.002954 0.048577 -0.037264
v 0.001535 0.049206 -0.069051
v 0.000035 0.049506 -0.047805
v 0.002805 0.048358 -0.047805
v 0.002805 0.048358 -0.069051
v 0.001535 0.049206 -0.047805
v 0.000035 0.041671 -0.047805
v 0.000035 0.041671 -0.069051
v 0.003952 0.045588 -0.047805
v -0.002734 0.048358 -0.069051
v -0.003583 0.047088 -0.069051
v -0.002734 0.048358 -0.047805
v 0.000035 0.050210 -0.069051
v -0.001463 0.049206 -0.069051
v -0.001734 0.049860 -0.069051
v 0.004659 0.045588 -0.069051
v 0.003655 0.047088 -0.069051
v 0.004307 0.047356 -0.069051
v 0.000340 0.047119 -0.035735
v 0.001042 0.046261 -0.035158
v 0.001335 0.046457 -0.035735
v -0.004065 0.043890 -0.035374
v -0.004404 0.045588 -0.035374
v -0.004065 0.047286 -0.035374
v -0.003103 0.048726 -0.035374
v -0.001821 0.041105 -0.036888
v 0.000035 0.040737 -0.035775
v -0.001821 0.041105 -0.035775
v 0.004137 0.043890 -0.035374
v 0.004137 0.047286 -0.035374
v 0.004474 0.045588 -0.035374
v 0.001734 0.049688 -0.035374
v 0.003175 0.048726 -0.035374
v -0.000970 0.044915 -0.035158
v -0.000201 0.044401 -0.035158
v 0.000035 0.041149 -0.035374
v 0.001734 0.041485 -0.035374
v 0.003175 0.042448 -0.035374
v -0.003103 0.042448 -0.035374
v 0.004887 0.045588 -0.036888
v 0.003943 0.043968 -0.037264
v 0.004264 0.045588 -0.037264
v 0.003026 0.048577 -0.037264
v 0.004518 0.047445 -0.036888
v 0.003943 0.047205 -0.037264
v 0.000035 0.050439 -0.035775
v -0.003395 0.042156 -0.038538
v -0.001582 0.041681 -0.037811
v -0.002954 0.042596 -0.037811
v -0.003395 0.049018 -0.036888
v -0.001821 0.050069 -0.036888
v -0.001663 0.041485 -0.035374
v -0.004193 0.045588 -0.037264
v -0.004447 0.047445 -0.036888
v -0.003871 0.047205 -0.037264
v 0.003943 0.047205 -0.037811
v 0.003466 0.049018 -0.038538
v 0.003026 0.048577 -0.037811
v -0.003871 0.043968 -0.037264
v -0.004816 0.045588 -0.036888
v -0.001821 0.041105 -0.038538
v 0.000035 0.041358 -0.037811
v -0.001582 0.049495 -0.037811
v 0.003026 0.042596 -0.037264
v 0.004518 0.043731 -0.036888
v 0.003466 0.042156 -0.036888
v 0.000035 0.041358 -0.037811
v 0.001893 0.041105 -0.038538
v 0.001654 0.041681 -0.037811
v 0.001654 0.049495 -0.037811
v 0.000035 0.050439 -0.038538
v 0.000035 0.049816 -0.037811
v 0.001654 0.049495 -0.037264
v 0.001893 0.050069 -0.036888
v -0.002954 0.042596 -0.037264
v -0.001582 0.041681 -0.037811
v -0.001582 0.041681 -0.037264
v 0.003943 0.047205 -0.037811
v 0.003026 0.048577 -0.037264
v 0.003943 0.047205 -0.037264
v 0.004264 0.045588 -0.037811
v 0.004264 0.045588 -0.037264
v 0.000035 0.041358 -0.037264
v -0.003871 0.043968 -0.037264
v -0.002954 0.042596 -0.037811
v -0.004193 0.045588 -0.037264
v -0.003871 0.043968 -0.037811
v 0.003026 0.048577 -0.037811
v 0.001654 0.049495 -0.037264
v 0.003026 0.042596 -0.037811
v 0.003026 0.042596 -0.037264
v -0.003871 0.047205 -0.037264
v -0.004193 0.045588 -0.037811
v 0.001654 0.049495 -0.037811
v 0.003943 0.043968 -0.037264
v 0.004518 0.047445 -0.062693
v -0.003871 0.047205 -0.037811
v 0.003943 0.043968 -0.037811
v 0.003943 0.043968 -0.037811
v 0.003466 0.042156 -0.038538
v 0.004518 0.043731 -0.038538
v 0.000035 0.040737 -0.036888
v -0.001582 0.041681 -0.037264
v 0.000035 0.041358 -0.037264
v -0.002954 0.042596 -0.037264
v -0.004447 0.043731 -0.036888
v 0.003026 0.042596 -0.037811
v 0.001893 0.050069 -0.038538
v -0.004447 0.043731 -0.038538
v -0.003871 0.043968 -0.037811
v 0.001654 0.041681 -0.037264
v 0.004887 0.045588 -0.038538
v 0.004518 0.047445 -0.038538
v -0.002954 0.048577 -0.037264
v 0.000035 0.040737 -0.036888
v 0.000035 0.041358 -0.037264
v 0.004264 0.045588 -0.037811
v -0.004816 0.045588 -0.038538
v -0.004193 0.045588 -0.037811
v -0.001821 0.041105 -0.036888
v 0.003466 0.049018 -0.036888
v 0.001805 0.049860 -0.069051
v 0.002805 0.048358 -0.069051
v 0.001535 0.049206 -0.069051
v -0.004447 0.047445 -0.036888
v -0.004447 0.047445 -0.035775
v -0.004447 0.043731 -0.036888
v -0.003395 0.042156 -0.035775
v -0.002734 0.048358 -0.069051
v -0.003234 0.048856 -0.069051
v -0.003395 0.042156 -0.036888
v 0.000035 0.040737 -0.036888
v 0.001893 0.041105 -0.035775
v 0.000035 0.040737 -0.035775
v 0.001893 0.041105 -0.036888
v 0.004887 0.045588 -0.036888
v 0.004887 0.045588 -0.035775
v 0.003305 0.048856 -0.069051
v -0.001821 0.041105 -0.038538
v 0.004518 0.047445 -0.035775
v 0.004518 0.047445 -0.036888
v 0.001568 0.045283 -0.035735
v 0.000708 0.044581 -0.035158
v 0.000904 0.044289 -0.035735
v 0.001223 0.045351 -0.035158
v -0.001497 0.045893 -0.035735
v -0.000637 0.046595 -0.035158
v -0.000832 0.046887 -0.035735
v -0.001264 0.044720 -0.035735
v -0.001152 0.045823 -0.035158
v -0.000269 0.044054 -0.035735
v 0.004518 0.043731 -0.035775
v -0.004816 0.045588 -0.035775
v -0.004447 0.043731 -0.035775
v 0.004887 0.045588 -0.035775
v 0.000035 0.040737 -0.035775
v 0.004518 0.047445 -0.035775
v -0.001821 0.041105 -0.035775
v -0.003395 0.049018 -0.035775
v -0.004447 0.047445 -0.035775
v 0.001893 0.050069 -0.035775
v 0.001893 0.041105 -0.035775
v 0.000035 0.049506 -0.069051
v -0.001821 0.050069 -0.035775
v 0.000271 0.046775 -0.035158
v 0.003655 0.044088 -0.069051
v 0.004307 0.043817 -0.069051
v -0.004587 0.045588 -0.063796
v -0.004587 0.045588 -0.069051
v -0.004236 0.043817 -0.063796
v 0.000035 0.040964 -0.069051
v 0.002805 0.042818 -0.069051
v 0.003305 0.042317 -0.069051
v 0.001805 0.041316 -0.069051
v 0.001535 0.041968 -0.069051
v 0.000035 0.041671 -0.069051
v 0.000035 0.040964 -0.069051
v -0.001734 0.041316 -0.069051
v -0.001463 0.041968 -0.069051
v -0.002734 0.042818 -0.069051
v -0.003234 0.042317 -0.069051
v -0.004236 0.043817 -0.069051
v -0.003583 0.044088 -0.069051
v -0.004587 0.045588 -0.069051
v -0.003882 0.045588 -0.069051
v -0.003583 0.047088 -0.069051
v -0.004236 0.047356 -0.069051
v 0.001535 0.041968 -0.047805
v -0.003583 0.044088 -0.047805
v -0.001463 0.049206 -0.047805
v 0.000035 0.049506 -0.047805
v 0.003655 0.047088 -0.047805
v 0.001535 0.049206 -0.047805
v 0.002805 0.048358 -0.047805
v 0.003952 0.045588 -0.047805
v 0.003655 0.044088 -0.047805
v 0.002805 0.042818 -0.047805
v 0.000035 0.041671 -0.047805
v -0.001463 0.041968 -0.047805
v -0.002734 0.042818 -0.047805
v -0.003882 0.045588 -0.047805
v -0.003583 0.047088 -0.047805
v -0.002734 0.048358 -0.047805
v 0.000035 0.041986 -0.077927
v -0.002511 0.043040 -0.077927
v -0.002511 0.048134 -0.077927
v -0.000832 0.046887 -0.035735
v -0.000711 0.047388 -0.035374
v -0.001343 0.046965 -0.035374
v -0.001497 0.045893 -0.035735
v -0.001765 0.046334 -0.035374
v -0.001914 0.045588 -0.035374
v -0.001264 0.044720 -0.035735
v -0.001765 0.044842 -0.035374
v -0.001343 0.044208 -0.035374
v -0.000269 0.044054 -0.035735
v -0.000711 0.043786 -0.035374
v 0.000035 0.043637 -0.035374
v 0.000904 0.044289 -0.035735
v 0.000781 0.043786 -0.035374
v 0.001414 0.044208 -0.035374
v 0.001568 0.045283 -0.035735
v 0.001837 0.044842 -0.035374
v 0.001985 0.045588 -0.035374
v 0.001335 0.046457 -0.035735
v 0.001837 0.046334 -0.035374
v 0.001414 0.046965 -0.035374
v 0.000340 0.047119 -0.035735
v 0.000781 0.047388 -0.035374
v 0.000035 0.047536 -0.035374
v -0.003234 0.048856 -0.069051
v -0.001734 0.049860 -0.063796
v -0.001734 0.049860 -0.069051
v -0.001821 0.041105 -0.038538
v 0.000035 0.040737 -0.062693
v 0.000035 0.040737 -0.038538
v -0.004236 0.047356 -0.063796
v -0.004236 0.047356 -0.069051
v -0.003234 0.042317 -0.069051
v -0.001734 0.041316 -0.074307
v -0.001734 0.041316 -0.069051
v 0.004659 0.045588 -0.063796
v 0.004307 0.043817 -0.069051
v 0.004659 0.045588 -0.069051
v 0.001893 0.041105 -0.038538
v 0.003466 0.042156 -0.062693
v 0.003466 0.042156 -0.038538
v -0.001734 0.041316 -0.075074
v -0.003234 0.042317 -0.076062
v -0.001734 0.041316 -0.076062
v 0.001805 0.041316 -0.069051
v 0.000035 0.040964 -0.074307
v 0.001805 0.041316 -0.074307
v 0.004307 0.043817 -0.076062
v 0.003305 0.042317 -0.075074
v 0.003305 0.042317 -0.076062
v 0.001805 0.049860 -0.075074
v 0.003305 0.048856 -0.076062
v 0.001805 0.049860 -0.076062
v 0.004518 0.043731 -0.062693
v 0.004518 0.043731 -0.038538
v 0.004518 0.047445 -0.038538
v 0.003466 0.049018 -0.062693
v 0.003466 0.049018 -0.038538
v 0.000035 0.040964 -0.063796
v 0.000035 0.040964 -0.069051
v -0.003395 0.042156 -0.062693
v -0.004236 0.043817 -0.063796
v -0.003234 0.042317 -0.063796
v 0.000035 0.049816 -0.037811
v -0.001582 0.049495 -0.037264
v 0.000035 0.049816 -0.037264
v 0.004887 0.045588 -0.062693
v 0.004887 0.045588 -0.038538
v 0.000035 0.050027 -0.035374
v -0.001663 0.049688 -0.035374
v 0.004518 0.047445 -0.062693
v 0.004659 0.045588 -0.063796
v 0.004307 0.047356 -0.063796
v 0.000035 0.050210 -0.063796
v 0.001893 0.050069 -0.062693
v 0.001805 0.049860 -0.063796
v -0.004587 0.045588 -0.063796
v -0.004447 0.043731 -0.062693
v -0.004816 0.045588 -0.062693
v 0.004307 0.043817 -0.063796
v 0.003466 0.042156 -0.062693
v 0.003305 0.042317 -0.063796
v 0.001805 0.041316 -0.063796
v 0.000035 0.040737 -0.062693
v 0.000035 0.040964 -0.063796
v -0.001821 0.041105 -0.062693
v -0.001734 0.041316 -0.063796
v -0.001343 0.048914 -0.077927
v -0.003234 0.048856 -0.076062
v -0.001734 0.049860 -0.076062
v -0.003234 0.048856 -0.063796
v -0.004447 0.047445 -0.062693
v -0.003395 0.049018 -0.062693
v -0.001734 0.049860 -0.063796
v -0.001821 0.050069 -0.062693
v -0.004236 0.047356 -0.063796
v 0.000035 0.040964 -0.063796
v 0.003466 0.049018 -0.062693
v 0.003305 0.048856 -0.063796
v 0.000035 0.050439 -0.062693
v 0.001893 0.041105 -0.062693
v 0.000035 0.040964 -0.075074
v 0.001616 0.041772 -0.074723
v 0.000035 0.041457 -0.074723
v -0.004587 0.045588 -0.069051
v -0.004236 0.043817 -0.074307
v -0.004236 0.043817 -0.069051
v 0.001805 0.049860 -0.063796
v 0.003305 0.048856 -0.069051
v 0.001805 0.049860 -0.069051
v -0.004447 0.047445 -0.038538
v -0.004816 0.045588 -0.062693
v -0.004816 0.045588 -0.038538
v -0.004447 0.043731 -0.062693
v -0.004447 0.043731 -0.038538
v 0.000035 0.041358 -0.037811
v 0.001654 0.041681 -0.037264
v 0.000035 0.041358 -0.037264
v 0.000035 0.050439 -0.036888
v -0.001821 0.050069 -0.035775
v 0.000035 0.050439 -0.035775
v 0.003305 0.048856 -0.063796
v 0.004307 0.047356 -0.069051
v 0.001893 0.050069 -0.038538
v 0.001893 0.050069 -0.062693
v -0.001821 0.050069 -0.038538
v -0.003395 0.049018 -0.062693
v -0.003395 0.049018 -0.038538
v 0.004659 0.045588 -0.076062
v 0.004307 0.043817 -0.075074
v 0.000035 0.040964 -0.075074
v 0.000035 0.040964 -0.076062
v 0.000035 0.050210 -0.063796
v 0.000035 0.050210 -0.069051
v 0.000035 0.040737 -0.038538
v 0.001893 0.041105 -0.062693
v 0.000035 0.050439 -0.038538
v -0.001821 0.050069 -0.062693
v 0.000035 0.040964 -0.074307
v -0.001545 0.041772 -0.074723
v 0.000035 0.041457 -0.074723
v 0.004166 0.045588 -0.074723
v 0.004659 0.045588 -0.075074
v -0.003780 0.044007 -0.074723
v -0.003234 0.042317 -0.075074
v -0.002885 0.042667 -0.074723
v 0.002956 0.048509 -0.074723
v 0.004307 0.047356 -0.074307
v 0.003852 0.047169 -0.074723
v 0.003305 0.048856 -0.075074
v 0.001616 0.049404 -0.074723
v 0.002956 0.048509 -0.074723
v 0.000035 0.049717 -0.074723
v 0.001805 0.049860 -0.074307
v 0.001616 0.049404 -0.074723
v 0.003852 0.044007 -0.074723
v 0.002956 0.042667 -0.074723
v 0.003852 0.044007 -0.074723
v 0.003305 0.042317 -0.074307
v 0.002956 0.042667 -0.074723
v -0.004095 0.045588 -0.074723
v -0.004236 0.047356 -0.075074
v -0.004587 0.045588 -0.075074
v 0.000035 0.041457 -0.074723
v -0.001582 0.049495 -0.037264
v 0.000035 0.050439 -0.036888
v 0.000035 0.049816 -0.037264
v 0.003305 0.048856 -0.074307
v -0.001545 0.049404 -0.074723
v 0.000035 0.050210 -0.074307
v -0.004095 0.045588 -0.074723
v -0.004236 0.047356 -0.074307
v -0.003780 0.047169 -0.074723
v 0.004307 0.047356 -0.076062
v 0.003637 0.045588 -0.077927
v 0.003362 0.046965 -0.077927
v -0.001734 0.049860 -0.075074
v 0.000035 0.050210 -0.076062
v -0.001734 0.049860 -0.076062
v -0.004816 0.045588 -0.036888
v -0.004447 0.043731 -0.035775
v -0.004816 0.045588 -0.035775
v 0.000035 0.050210 -0.075074
v 0.003305 0.042317 -0.063796
v 0.003305 0.042317 -0.069051
v 0.003466 0.049018 -0.036888
v 0.001893 0.050069 -0.035775
v 0.003466 0.049018 -0.035775
v 0.000035 0.050439 -0.062693
v 0.003466 0.042156 -0.036888
v 0.004518 0.043731 -0.035775
v 0.003466 0.042156 -0.035775
v -0.004236 0.047356 -0.076062
v -0.004587 0.045588 -0.076062
v -0.003395 0.042156 -0.062693
v -0.003395 0.042156 -0.038538
v -0.004236 0.043817 -0.075074
v -0.004236 0.043817 -0.076062
v -0.004447 0.047445 -0.062693
v -0.001821 0.050069 -0.036888
v -0.003395 0.049018 -0.035775
v -0.001343 0.048914 -0.077927
v 0.000035 0.049190 -0.077927
v 0.001414 0.048914 -0.077927
v 0.002582 0.048134 -0.077927
v 0.003362 0.046965 -0.077927
v 0.002582 0.043040 -0.077927
v 0.003637 0.045588 -0.077927
v 0.003362 0.044208 -0.077927
v 0.001414 0.042260 -0.077927
v -0.001343 0.042260 -0.077927
v -0.003292 0.044208 -0.077927
v -0.003566 0.045588 -0.077927
v -0.003292 0.046965 -0.077927
v -0.003292 0.046965 -0.077927
v -0.002511 0.048134 -0.077927
v -0.003566 0.045588 -0.077927
v -0.004236 0.043817 -0.076062
v -0.004587 0.045588 -0.076062
v 0.003305 0.042317 -0.076062
v 0.001414 0.042260 -0.077927
v 0.002582 0.043040 -0.077927
v 0.000035 0.040964 -0.076062
v -0.001343 0.042260 -0.077927
v 0.000035 0.041986 -0.077927
v 0.001414 0.048914 -0.077927
v 0.003305 0.048856 -0.076062
v 0.002582 0.048134 -0.077927
v 0.000035 0.050210 -0.076062
v 0.001805 0.049860 -0.076062
v -0.004236 0.047356 -0.076062
v 0.004307 0.043817 -0.076062
v 0.003362 0.044208 -0.077927
v -0.003234 0.042317 -0.076062
v -0.003292 0.044208 -0.077927
v -0.002511 0.043040 -0.077927
v 0.001805 0.041316 -0.076062
v 0.000035 0.041986 -0.077927
v -0.002954 0.048577 -0.037811
v -0.004447 0.047445 -0.038538
v -0.003871 0.047205 -0.037811
v 0.000035 0.049190 -0.077927
v 0.001805 0.041316 -0.075074
v 0.000035 0.040964 -0.076062
v 0.001805 0.041316 -0.076062
v 0.001893 0.050069 -0.036888
v 0.004307 0.043817 -0.063796
v -0.003234 0.042317 -0.063796
v -0.002954 0.048577 -0.037264
v -0.001582 0.049495 -0.037811
v -0.002954 0.048577 -0.037811
v 0.004307 0.047356 -0.063796
v 0.003852 0.047169 -0.074723
v 0.004659 0.045588 -0.074307
v 0.004166 0.045588 -0.074723
v -0.001545 0.041772 -0.074723
v -0.002885 0.048509 -0.074723
v -0.001734 0.049860 -0.074307
v 0.004307 0.047356 -0.075074
v -0.002885 0.042667 -0.074723
v -0.003234 0.042317 -0.074307
v 0.000035 0.049717 -0.074723
v -0.001545 0.049404 -0.074723
v -0.003234 0.048856 -0.075074
v -0.002885 0.048509 -0.074723
v -0.003780 0.044007 -0.074723
v -0.003780 0.047169 -0.074723
v 0.001616 0.041772 -0.074723
v 0.000035 0.041457 -0.074723
v 0.000271 0.046775 -0.035158
v 0.001335 0.046457 -0.035735
v 0.000340 0.047119 -0.035735
v -0.004404 0.045588 -0.035374
v -0.004065 0.043887 -0.035374
v -0.003103 0.048726 -0.035374
v -0.004065 0.047286 -0.035374
v -0.001821 0.041105 -0.036888
v 0.000035 0.040737 -0.035775
v -0.001821 0.041105 -0.035775
v 0.004137 0.043887 -0.035374
v 0.004137 0.047286 -0.035374
v 0.004474 0.045588 -0.035374
v 0.001734 0.049688 -0.035374
v 0.003175 0.048726 -0.035374
v -0.000637 0.046595 -0.035158
v -0.000201 0.044401 -0.035158
v 0.001042 0.046261 -0.035158
v 0.001734 0.041485 -0.035374
v 0.000035 0.041149 -0.035374
v 0.003175 0.042448 -0.035374
v -0.003103 0.042448 -0.035374
v 0.004264 0.045588 -0.037264
v 0.004518 0.043731 -0.036888
v 0.003943 0.043968 -0.037264
v 0.003466 0.049018 -0.036888
v 0.003943 0.047205 -0.037264
v 0.003026 0.048577 -0.037264
v 0.000035 0.050439 -0.035775
v -0.003395 0.042156 -0.038538
v -0.001582 0.041681 -0.037811
v -0.002954 0.042596 -0.037811
v -0.002954 0.048577 -0.037264
v -0.001821 0.050069 -0.036888
v -0.001663 0.041485 -0.035374
v -0.004193 0.045588 -0.037264
v -0.004447 0.047445 -0.036888
v -0.003871 0.047205 -0.037264
v 0.003943 0.047205 -0.037811
v 0.003466 0.049018 -0.038538
v 0.003026 0.048577 -0.037811
v 0.004518 0.047445 -0.036888
v -0.004447 0.043731 -0.036888
v -0.004816 0.045588 -0.036888
v -0.001821 0.041105 -0.038538
v 0.000035 0.041358 -0.037811
v -0.001821 0.050069 -0.038538
v -0.001582 0.049495 -0.037811
v 0.003466 0.042156 -0.036888
v 0.003026 0.042596 -0.037264
v 0.000035 0.041358 -0.037811
v 0.001893 0.041105 -0.038538
v 0.001654 0.041681 -0.037811
v 0.001654 0.049495 -0.037811
v 0.000035 0.050439 -0.038538
v 0.000035 0.049816 -0.037811
v 0.001893 0.050069 -0.036888
v 0.001654 0.049495 -0.037264
v -0.002954 0.042596 -0.037264
v -0.001582 0.041681 -0.037811
v -0.001582 0.041681 -0.037264
v 0.003943 0.047205 -0.037811
v 0.003026 0.048577 -0.037264
v 0.003943 0.047205 -0.037264
v 0.004264 0.045588 -0.037811
v 0.004264 0.045588 -0.037264
v 0.000035 0.041358 -0.037264
v -0.003871 0.043968 -0.037264
v -0.002954 0.042596 -0.037811
v -0.004193 0.045588 -0.037264
v -0.003871 0.043968 -0.037811
v 0.003026 0.048577 -0.037811
v 0.001654 0.049495 -0.037264
v 0.003026 0.042596 -0.037811
v 0.003026 0.042596 -0.037264
v -0.003871 0.047205 -0.037811
v -0.004193 0.045588 -0.037811
v 0.001654 0.049495 -0.037811
v 0.003943 0.043968 -0.037264
v 0.004518 0.047445 -0.062693
v -0.003871 0.047205 -0.037264
v 0.004518 0.043731 -0.062693
v 0.003943 0.043968 -0.037811
v 0.003943 0.043968 -0.037811
v 0.003466 0.042156 -0.038538
v 0.004518 0.043731 -0.038538
v 0.000035 0.040737 -0.036888
v -0.001582 0.041681 -0.037264
v 0.000035 0.041358 -0.037264
v -0.003395 0.042156 -0.036888
v -0.003871 0.043968 -0.037264
v -0.002954 0.042596 -0.037264
v 0.003026 0.042596 -0.037811
v 0.001893 0.050069 -0.038538
v -0.003871 0.043968 -0.037811
v 0.001654 0.041681 -0.037264
v 0.004264 0.045588 -0.037811
v 0.004518 0.047445 -0.038538
v -0.003395 0.049018 -0.036888
v 0.000035 0.040737 -0.036888
v 0.000035 0.041358 -0.037264
v 0.004887 0.045588 -0.038538
v -0.004816 0.045588 -0.038538
v -0.004193 0.045588 -0.037811
v -0.001821 0.041105 -0.036888
v -0.004447 0.043731 -0.038538
v 0.004307 0.047356 -0.076062
v -0.004447 0.047445 -0.036888
v -0.004447 0.047445 -0.035775
v -0.004447 0.043731 -0.036888
v -0.003395 0.042156 -0.035775
v -0.003395 0.042156 -0.036888
v 0.000035 0.040737 -0.036888
v 0.001893 0.041105 -0.035775
v 0.000035 0.040737 -0.035775
v 0.001893 0.041105 -0.036888
v -0.003234 0.048856 -0.076062
v 0.004887 0.045588 -0.036888
v 0.004887 0.045588 -0.035775
v -0.001821 0.041105 -0.062693
v 0.004518 0.047445 -0.035775
v 0.004518 0.047445 -0.036888
v 0.001568 0.045283 -0.035735
v 0.000708 0.044581 -0.035158
v 0.000904 0.044289 -0.035735
v 0.001223 0.045351 -0.035158
v -0.001152 0.045823 -0.035158
v -0.000832 0.046887 -0.035735
v -0.001497 0.045893 -0.035735
v -0.000970 0.044915 -0.035158
v -0.001264 0.044720 -0.035735
v -0.000269 0.044054 -0.035735
v 0.003466 0.042156 -0.035775
v -0.004816 0.045588 -0.035775
v -0.004447 0.043731 -0.035775
v 0.004887 0.045588 -0.035775
v -0.004447 0.047445 -0.035775
v 0.000035 0.040737 -0.035775
v 0.004518 0.047445 -0.035775
v -0.003395 0.042156 -0.035775
v -0.003395 0.049018 -0.035775
v 0.001893 0.050069 -0.035775
v -0.003234 0.048856 -0.074307
v -0.004587 0.045588 -0.074307
v -0.004587 0.045588 -0.063796
v 0.004307 0.043817 -0.074307
v -0.004236 0.043817 -0.063796
v 0.000035 0.040964 -0.063796
v 0.001805 0.041316 -0.063796
v -0.001734 0.041316 -0.063796
v 0.004307 0.043817 -0.063796
v 0.000035 0.040964 -0.063796
v -0.001582 0.049495 -0.037811
v 0.004518 0.047445 -0.062693
v 0.004518 0.043731 -0.062693
v 0.001893 0.041105 -0.062693
v 0.003305 0.048856 -0.063796
v 0.001654 0.041681 -0.037811
v 0.000035 0.040737 -0.062693
v 0.003466 0.042156 -0.036888
v -0.003395 0.049018 -0.036888
v 0.000035 0.041671 -0.069051
v -0.004447 0.047445 -0.038538
v 0.003952 0.045588 -0.069051
v 0.000035 0.040737 -0.036888
v 0.000035 0.040737 -0.038538
v -0.001821 0.050069 -0.038538
v 0.000035 0.040737 -0.038538
v 0.000035 0.041358 -0.037811
v -0.003395 0.042156 -0.036888
v 0.001893 0.041105 -0.036888
v 0.003466 0.042156 -0.035775
v -0.003395 0.042156 -0.035775
v 0.003466 0.049018 -0.035775
v 0.000035 0.040964 -0.063796
v -0.003234 0.048856 -0.063796
v 0.000035 0.040964 -0.069051
v -0.001582 0.049495 -0.037264
v 0.004887 0.045588 -0.062693
v 0.000035 0.040737 -0.062693
v 0.001654 0.041681 -0.037811
v 0.000035 0.040737 -0.062693
v 0.004659 0.045588 -0.076062
v 0.004518 0.043731 -0.036888
v -0.003395 0.049018 -0.036888
v -0.001734 0.041316 -0.076062
v 0.000035 0.040964 -0.076062
v -0.003395 0.049018 -0.038538
v 0.000035 0.040737 -0.036888
v 0.004887 0.045588 -0.036888
v 0.000035 0.040737 -0.038538
v 0.000035 0.040737 -0.038538
v 0.000035 0.041358 -0.037811
v 0.001893 0.041105 -0.036888
v 0.004518 0.043731 -0.035775
v 0.001893 0.041105 -0.035775
v -0.001821 0.041105 -0.035775
v 0.003466 0.049018 -0.035775
v -0.001821 0.050069 -0.035775
vn 0.1000 -0.2852 0.9532
vn 0.2251 -0.2016 0.9532
vn 0.3507 -0.5259 0.7749
vn -0.1230 -0.6195 0.7753
vn 0.6196 -0.1236 0.7752
vn 0.0167 -0.3012 0.9534
vn -0.1307 -0.2724 0.9533
vn -0.1590 0.3836 0.9097
vn -0.5252 -0.3518 0.7748
vn 0.2722 -0.1310 0.9533
vn 0.3015 0.0167 0.9533
vn -0.3832 0.1586 0.9100
vn 0.5252 0.3505 0.7754
vn -0.2931 0.2932 0.9100
vn -0.4156 -0.0000 0.9095
vn -0.6976 -0.0000 0.7165
vn -0.6434 0.2666 0.7176
vn -0.4925 0.4925 0.7175
vn -0.2670 0.6444 0.7166
vn -0.3832 -0.1584 0.9100
vn -0.6435 -0.2663 0.7176
vn -0.0000 0.4155 0.9096
vn -0.0000 0.6975 0.7166
vn 0.1589 0.3835 0.9098
vn 0.2670 0.6440 0.7169
vn 0.2934 0.2935 0.9098
vn 0.4927 0.4929 0.7172
vn 0.6439 0.2670 0.7170
vn -0.2019 -0.2258 0.9530
vn -0.2848 -0.1000 0.9534
vn -0.6194 0.1232 0.7754
vn 0.3835 0.1588 0.9098
vn 0.6971 -0.0000 0.7169
vn -0.3017 -0.0167 0.9533
vn 0.4150 -0.0000 0.9098
vn 0.3835 -0.1586 0.9098
vn 0.6440 -0.2667 0.7170
vn -0.2721 0.1306 0.9533
vn 0.2935 -0.2934 0.9098
vn 0.4928 -0.4928 0.7172
vn -0.2247 0.2012 0.9534
vn -0.3507 0.5242 0.7760
vn 0.2666 -0.6442 0.7169
vn -0.0998 0.2843 0.9535
vn 0.1587 -0.3837 0.9097
vn -0.0000 -0.6975 0.7165
vn -0.0168 0.3010 0.9535
vn 0.1231 0.6189 0.7757
vn -0.0000 -0.4152 0.9097
vn 0.1308 0.2720 0.9534
vn -0.1589 -0.3839 0.9096
vn -0.2667 -0.6444 0.7167
vn 0.2012 0.2246 0.9535
vn -0.2932 -0.2932 0.9100
vn -0.4925 -0.4924 0.7176
vn 0.2852 0.1000 0.9533
vn -0.3825 0.9240 -0.0000
vn -0.7073 0.7069 -0.0000
vn -0.9240 0.3825 -0.0000
vn -0.0000 1.0000 -0.0000
vn -1.0000 0.0001 -0.0000
vn 0.3824 0.9240 -0.0000
vn -0.9240 -0.3823 -0.0000
vn 0.7075 0.7068 -0.0000
vn -0.7069 -0.7073 -0.0000
vn 0.9239 0.3827 -0.0000
vn -0.3826 -0.9239 -0.0000
vn 1.0000 0.0001 -0.0000
vn -0.1952 -0.9808 -0.0000
vn 0.9239 -0.3826 -0.0000
vn 0.7070 -0.7072 -0.0000
vn 0.3825 -0.9239 -0.0000
vn 0.1951 -0.9808 -0.0000
vn -0.3821 -0.9241 -0.0000
vn -0.1943 -0.9809 -0.0000
vn -0.7071 -0.7071 -0.0000
vn -0.9241 -0.3823 -0.0000
vn -1.0000 -0.0000 -0.0000
vn -0.9239 0.3826 -0.0000
vn -0.7069 0.7074 -0.0000
vn -0.3828 0.9238 -0.0000
vn 0.3828 0.9238 -0.0000
vn 0.7069 0.7073 -0.0000
vn 0.9238 0.3828 -0.0000
vn 1.0000 -0.0000 -0.0000
vn 0.9240 -0.3824 -0.0000
vn 0.7072 -0.7070 -0.0000
vn 0.3822 -0.9241 -0.0000
vn 0.1943 -0.9810 -0.0000
vn 0.1942 -0.9810 -0.0000
vn -0.9050 -0.3743 -0.2023
vn -0.6922 -0.6926 -0.2030
vn -0.6923 -0.6925 -0.2028
vn -0.9051 -0.3741 -0.2023
vn -0.3742 -0.9049 -0.2029
vn -0.9792 -0.0000 -0.2029
vn -0.3744 -0.9049 -0.2027
vn -0.1910 -0.9614 -0.1983
vn -0.1914 -0.9614 -0.1977
vn -0.9792 -0.0001 -0.2030
vn -0.9048 0.3744 -0.2030
vn -0.9046 0.3747 -0.2030
vn -0.6926 0.6922 -0.2030
vn -0.6925 0.6924 -0.2027
vn -0.3742 0.9053 -0.2012
vn -0.3745 0.9051 -0.2014
vn -0.0000 0.9793 -0.2026
vn -0.0000 0.9790 -0.2037
vn 0.3746 0.9051 -0.2014
vn 0.3742 0.9053 -0.2012
vn 0.6926 0.6924 -0.2024
vn 0.6928 0.6921 -0.2025
vn 0.9047 0.3747 -0.2028
vn 0.9046 0.3749 -0.2030
vn 0.9793 0.0001 -0.2024
vn 0.9049 -0.3745 -0.2024
vn 0.9049 -0.3745 -0.2021
vn 0.9048 -0.3748 -0.2021
vn 0.6925 -0.6924 -0.2024
vn 0.6925 -0.6924 -0.2026
vn 0.3744 -0.9049 -0.2026
vn 0.3743 -0.9048 -0.2029
vn 0.1909 -0.9614 -0.1983
vn 0.1913 -0.9614 -0.1977
vn -0.3827 0.9239 -0.0000
vn 0.3827 0.9239 -0.0000
vn -0.7074 0.7069 -0.0000
vn 0.7074 0.7069 -0.0000
vn -0.9238 0.3828 -0.0000
vn -1.0000 0.0002 -0.0000
vn 1.0000 0.0002 -0.0000
vn -0.9239 -0.3826 -0.0000
vn 0.7069 -0.7073 -0.0000
vn -0.3829 -0.9238 -0.0000
vn -0.1960 -0.9806 -0.0000
vn 0.3828 -0.9238 -0.0000
vn 0.1959 -0.9806 -0.0000
vn -0.0000 0.5169 -0.8560
vn -0.0000 0.5166 -0.8562
vn -0.1980 0.4781 -0.8557
vn 0.1980 0.4781 -0.8557
vn -0.1982 0.4783 -0.8555
vn 0.1983 0.4783 -0.8555
vn -0.3653 0.3652 -0.8563
vn 0.3655 0.3655 -0.8561
vn -0.3652 0.3650 -0.8564
vn 0.3655 0.3653 -0.8562
vn -0.4770 0.1977 -0.8564
vn 0.4773 0.1979 -0.8562
vn -0.4769 0.1975 -0.8565
vn 0.4774 0.1976 -0.8562
vn -0.5170 -0.0001 -0.8560
vn 0.5170 -0.0000 -0.8560
vn 0.5171 -0.0000 -0.8559
vn -0.4775 -0.1978 -0.8561
vn 0.4778 -0.1980 -0.8558
vn -0.4775 -0.1975 -0.8561
vn 0.4779 -0.1978 -0.8559
vn -0.3651 -0.3652 -0.8563
vn 0.3654 -0.3655 -0.8561
vn -0.3652 -0.3651 -0.8563
vn 0.3653 -0.3654 -0.8562
vn -0.1973 -0.4771 -0.8564
vn 0.1975 -0.4773 -0.8562
vn -0.1974 -0.4773 -0.8563
vn -0.1027 -0.5149 -0.8510
vn -0.1030 -0.5154 -0.8507
vn 0.1973 -0.4771 -0.8564
vn 0.1026 -0.5150 -0.8510
vn 0.1030 -0.5154 -0.8507
vn 0.7072 0.7070 -0.0000
vn 0.1946 0.9809 -0.0000
vn 0.9239 -0.3827 -0.0000
vn 0.7067 -0.7075 -0.0000
vn 0.0001 -1.0000 -0.0000
vn -0.0000 -1.0000 -0.0000
vn -0.7067 -0.7076 -0.0000
vn -0.7067 -0.7075 -0.0000
vn -0.9239 -0.3827 -0.0000
vn -0.9239 0.3827 -0.0000
vn -0.7072 0.7070 -0.0000
vn -0.3828 0.9239 -0.0000
vn -0.1945 0.9809 -0.0000
vn -0.7013 0.2903 0.6511
vn -0.5369 0.5365 0.6511
vn -0.5369 0.5367 0.6509
vn -0.2908 0.7020 0.6501
vn -0.7011 0.2905 0.6513
vn -0.2910 0.7023 0.6497
vn -0.7594 0.0001 0.6506
vn -0.0000 0.7595 0.6505
vn -0.7596 0.0001 0.6504
vn -0.0000 0.7592 0.6509
vn -0.7016 -0.2906 0.6506
vn 0.2908 0.7020 0.6501
vn -0.7016 -0.2903 0.6507
vn 0.2911 0.7023 0.6497
vn -0.5367 -0.5369 0.6510
vn 0.5370 0.5369 0.6506
vn -0.5367 -0.5367 0.6511
vn 0.5372 0.5367 0.6507
vn -0.2907 -0.7011 0.6511
vn 0.7015 0.2905 0.6507
vn -0.2905 -0.7014 0.6509
vn -0.1493 -0.7515 0.6426
vn -0.1490 -0.7521 0.6420
vn 0.7014 0.2908 0.6508
vn 0.7596 0.0001 0.6504
vn 0.7019 -0.2906 0.6503
vn 0.7020 -0.2905 0.6502
vn 0.5370 -0.5370 0.6506
vn 0.5368 -0.5370 0.6508
vn 0.2905 -0.7015 0.6508
vn 0.2906 -0.7011 0.6512
vn 0.1492 -0.7515 0.6426
vn 0.1489 -0.7521 0.6421
vn -0.0000 -0.0000 -1.0000
vn 0.4747 0.3176 0.8208
vn 0.7092 0.4743 0.5216
vn 0.1665 0.8377 0.5202
vn 0.5601 -0.1120 0.8208
vn 0.8369 -0.1666 0.5213
vn 0.3173 -0.4750 0.8208
vn 0.4747 -0.7095 0.5208
vn -0.1664 -0.8363 0.5223
vn -0.1117 -0.5593 0.8214
vn -0.7093 -0.4741 0.5217
vn 0.1115 0.5607 0.8205
vn -0.3172 0.4755 0.8205
vn -0.4739 0.7104 0.5203
vn -0.8369 0.1667 0.5214
vn -0.5600 0.1105 0.8211
vn -0.4744 -0.3176 0.8210
vn 0.1002 -0.2853 0.9532
vn 0.3508 -0.5257 0.7749
vn 0.0165 -0.3014 0.9534
vn -0.1231 -0.6194 0.7754
vn 0.5253 0.3505 0.7754
vn -0.3830 0.1587 0.9100
vn -0.6434 0.2668 0.7175
vn -0.4155 -0.0001 0.9096
vn -0.6977 -0.0001 0.7164
vn -0.3836 -0.1590 0.9097
vn -0.6442 -0.2665 0.7169
vn 0.2013 0.2246 0.9534
vn 0.1231 0.6189 0.7758
vn -0.2933 -0.2931 0.9100
vn -0.4927 -0.4924 0.7175
vn 0.1308 0.2721 0.9534
vn -0.1587 -0.3839 0.9096
vn -0.2666 -0.6445 0.7166
vn -0.0167 0.3012 0.9534
vn 0.1586 -0.3837 0.9097
vn 0.4928 -0.4929 0.7170
vn -0.0999 0.2844 0.9535
vn -0.3508 0.5241 0.7761
vn 0.2934 -0.2934 0.9098
vn 0.3840 -0.1591 0.9095
vn 0.6449 -0.2668 0.7162
vn 0.6972 0.0001 0.7169
vn -0.3016 -0.0167 0.9533
vn 0.4150 0.0001 0.9098
vn -0.5253 -0.3517 0.7748
vn -0.3500 0.8458 -0.4027
vn -0.0001 0.9154 -0.4026
vn 0.3501 0.8457 -0.4027
vn -0.2461 0.5956 -0.7646
vn -0.0002 0.6451 -0.7641
vn -0.4566 0.4565 -0.7636
vn 0.2466 0.5955 -0.7646
vn 0.6477 0.6471 -0.4022
vn 0.4565 0.4569 -0.7634
vn -0.6477 0.6471 -0.4021
vn -0.5959 0.2471 -0.7641
vn 0.8459 0.3503 -0.4022
vn 0.5964 0.2471 -0.7637
vn 0.6453 -0.0000 -0.7639
vn 0.9155 0.0001 -0.4023
vn 0.5959 -0.2465 -0.7643
vn 0.8457 -0.3503 -0.4026
vn 0.6471 -0.6473 -0.4028
vn 0.4557 -0.4557 -0.7646
vn 0.1792 -0.9006 -0.3959
vn 0.3502 -0.8456 -0.4028
vn 0.2467 -0.5953 -0.7647
vn 0.1274 -0.6397 -0.7580
vn -0.8458 0.3502 -0.4024
vn -0.6457 0.0001 -0.7636
vn -0.9156 0.0001 -0.4021
vn -0.8457 -0.3502 -0.4028
vn -0.5953 -0.2465 -0.7648
vn -0.6470 -0.6474 -0.4028
vn -0.4557 -0.4557 -0.7646
vn -0.1794 -0.9005 -0.3960
vn -0.3501 -0.8456 -0.4029
vn -0.2466 -0.5954 -0.7646
vn -0.1278 -0.6398 -0.7578
vn -0.3441 -0.8311 0.4369
vn -0.1764 -0.8856 0.4297
vn -0.2217 -0.5353 0.8151
vn -0.1151 -0.5762 0.8092
vn -0.4097 -0.4097 0.8151
vn -0.6359 -0.6362 0.4369
vn -0.5354 -0.2213 0.8151
vn -0.8311 -0.3440 0.4369
vn -0.8998 -0.0000 0.4362
vn -0.5808 -0.0002 0.8141
vn -0.8313 0.3441 0.4365
vn -0.5358 0.2222 0.8146
vn -0.6364 0.6361 0.4363
vn -0.4105 0.4109 0.8141
vn -0.2216 0.5355 0.8150
vn -0.3441 0.8312 0.4368
vn -0.0000 0.8996 0.4367
vn -0.0000 0.5800 0.8146
vn 0.2216 0.5355 0.8150
vn 0.3440 0.8312 0.4368
vn 0.6365 0.6360 0.4363
vn 0.4105 0.4109 0.8141
vn 0.5363 0.2222 0.8142
vn 0.8313 0.3443 0.4363
vn 0.5802 0.0001 0.8144
vn 0.8998 0.0001 0.4364
vn 0.8311 -0.3443 0.4366
vn 0.5357 -0.2216 0.8148
vn 0.6360 -0.6362 0.4368
vn 0.4097 -0.4097 0.8151
vn 0.3441 -0.8311 0.4369
vn 0.2217 -0.5353 0.8151
vn 0.1763 -0.8856 0.4298
vn 0.1150 -0.5762 0.8092
vn -0.3745 -0.9048 -0.2027
vn -0.3746 -0.9047 -0.2029
vn -0.1908 -0.9614 -0.1983
vn -0.1905 -0.9616 -0.1978
vn 0.9047 0.3748 -0.2029
vn 0.9045 0.3750 -0.2029
vn 0.9793 -0.0000 -0.2024
vn 0.9049 -0.3744 -0.2021
vn 0.9048 -0.3747 -0.2022
vn 0.6925 -0.6925 -0.2024
vn 0.3742 -0.9049 -0.2029
vn 0.3743 -0.9049 -0.2027
vn -0.6202 0.6200 -0.4806
vn -0.3357 0.8100 -0.4808
vn -0.3363 0.8096 -0.4810
vn -0.6201 0.6203 -0.4803
vn 0.0006 0.8771 -0.4802
vn -0.8102 0.3358 -0.4805
vn 0.0004 0.8772 -0.4802
vn -0.8103 0.3356 -0.4804
vn 0.3358 0.8101 -0.4806
vn -0.8771 0.0002 -0.4803
vn 0.3352 0.8099 -0.4814
vn -0.8773 0.0001 -0.4799
vn 0.6202 0.6199 -0.4808
vn -0.8103 -0.3355 -0.4804
vn 0.6200 0.6202 -0.4806
vn -0.8102 -0.3356 -0.4805
vn 0.8102 0.3356 -0.4806
vn -0.6200 -0.6203 -0.4804
vn 0.8102 0.3357 -0.4806
vn -0.6201 -0.6203 -0.4803
vn 0.8769 0.0002 -0.4806
vn -0.3354 -0.8103 -0.4804
vn 0.8770 0.0001 -0.4805
vn -0.3355 -0.8103 -0.4804
vn -0.1719 -0.8639 -0.4734
vn -0.1716 -0.8639 -0.4735
vn 0.8102 -0.3355 -0.4806
vn 0.6200 -0.6202 -0.4806
vn 0.3353 -0.8104 -0.4805
vn 0.3355 -0.8103 -0.4806
vn 0.1718 -0.8639 -0.4734
vn 0.1719 -0.8639 -0.4735
vn 0.9240 -0.3825 -0.0000
vn 0.0002 0.5168 -0.8561
vn 0.0002 0.5167 -0.8561
vn -0.1983 0.4781 -0.8556
vn 0.1980 0.4782 -0.8556
vn -0.3652 0.3653 -0.8563
vn 0.1978 0.4783 -0.8556
vn -0.3651 0.3652 -0.8564
vn 0.3655 0.3654 -0.8561
vn -0.4769 0.1975 -0.8564
vn 0.3656 0.3652 -0.8561
vn -0.4769 0.1977 -0.8564
vn 0.4774 0.1977 -0.8562
vn -0.5169 -0.0000 -0.8560
vn -0.5171 -0.0000 -0.8560
vn -0.4776 -0.1976 -0.8561
vn 0.5171 -0.0000 -0.8560
vn -0.4774 -0.1977 -0.8561
vn 0.4780 -0.1978 -0.8558
vn -0.3652 -0.3652 -0.8563
vn 0.4779 -0.1979 -0.8559
vn -0.3650 -0.3653 -0.8564
vn 0.3653 -0.3655 -0.8561
vn -0.7011 0.2904 0.6512
vn -0.7013 0.2902 0.6512
vn -0.5367 0.5369 0.6509
vn -0.5366 0.5369 0.6511
vn -0.7595 0.0001 0.6505
vn -0.2912 0.7020 0.6499
vn -0.7595 0.0002 0.6505
vn -0.2911 0.7020 0.6499
vn -0.7018 -0.2903 0.6506
vn -0.7015 -0.2905 0.6507
vn -0.5367 -0.5368 0.6510
vn -0.5365 -0.5369 0.6510
vn 0.7015 0.2906 0.6508
vn 0.7596 -0.0000 0.6504
vn -0.4036 0.9150 -0.0000
vn 0.7094 0.4742 0.5214
vn 0.1663 0.8378 0.5200
vn 0.1112 0.5606 0.8206
vn 0.4747 0.3174 0.8209
vn -0.3177 0.4754 0.8204
vn -0.4741 0.7100 0.5207
vn -0.5602 0.1108 0.8209
vn -0.8365 0.1669 0.5219
vn -0.4746 -0.3173 0.8210
vn -0.7095 -0.4738 0.5216
vn -0.1658 -0.8363 0.5226
vn -0.1111 -0.5595 0.8213
vn 0.4742 -0.7095 0.5213
vn 0.3170 -0.4754 0.8207
vn 0.5601 -0.1120 0.8209
vt 1.983398 0.776367
vt 1.984375 0.776367
vt 1.983398 0.776855
vt 1.981445 0.777832
vt 1.985352 0.777832
vt 1.981445 0.776855
vt 1.980469 0.777344
vt 1.982422 0.771973
vt 1.981445 0.779297
vt 1.985352 0.776855
vt 1.986328 0.777344
vt 1.987305 0.773438
vt 1.986328 0.779297
vt 1.985352 0.771973
vt 1.990234 0.775391
vt 1.990234 0.774902
vt 1.988281 0.772461
vt 1.985352 0.770996
vt 1.982422 0.770996
vt 1.991211 0.777832
vt 1.992188 0.777832
vt 1.979492 0.773438
vt 1.978516 0.772461
vt 1.977539 0.775391
vt 1.976562 0.774902
vt 1.976562 0.777832
vt 1.975586 0.777832
vt 1.975586 0.781250
vt 1.980469 0.778809
vt 1.980469 0.779785
vt 1.981445 0.781250
vt 1.976562 0.780762
vt 1.976562 0.784180
vt 1.980469 0.781250
vt 1.977539 0.783691
vt 1.979492 0.785645
vt 1.978516 0.786133
vt 1.981445 0.782227
vt 1.982422 0.786621
vt 1.982422 0.787598
vt 1.983398 0.782715
vt 1.983398 0.781738
vt 1.985352 0.787598
vt 1.984375 0.782715
vt 1.985352 0.786621
vt 1.988281 0.786133
vt 1.985352 0.782227
vt 1.985352 0.781250
vt 1.987305 0.785645
vt 1.986328 0.781250
vt 1.990234 0.783691
vt 1.990234 0.784180
vt 1.987305 0.779785
vt 1.991211 0.780762
vt 1.992188 0.781250
vt 1.987305 0.778809
vt 1.751953 0.159058
vt 1.751953 0.162231
vt 1.743164 0.162231
vt 1.743164 0.159058
vt 1.743164 0.165283
vt 1.751953 0.156006
vt 1.751953 0.165283
vt 1.743164 0.156006
vt 1.743164 0.168457
vt 1.751953 0.152710
vt 1.751953 0.168457
vt 1.743164 0.152710
vt 1.751953 0.171509
vt 1.751953 0.149658
vt 1.743164 0.171509
vt 1.743164 0.149658
vt 1.743164 0.174683
vt 1.743164 0.146484
vt 1.751953 0.174683
vt 1.751953 0.146484
vt 1.751953 0.177734
vt 1.743164 0.143433
vt 1.743164 0.177734
vt 1.751953 0.181030
vt 1.743164 0.181030
vt 1.751953 0.143433
vt 1.751953 0.140259
vt 1.743164 0.140259
vt 1.743164 0.137207
vt 1.751953 0.137207
vt 1.743164 0.134033
vt 1.751953 0.134033
vt 1.751953 0.130981
vt 1.743164 0.130981
vt 1.741211 0.177734
vt 1.741211 0.181030
vt 1.701172 0.181030
vt 1.701172 0.177734
vt 1.701172 0.174683
vt 1.741211 0.174683
vt 1.701172 0.171509
vt 1.741211 0.171509
vt 1.701172 0.168457
vt 1.741211 0.168457
vt 1.701172 0.165283
vt 1.741211 0.165283
vt 1.701172 0.162231
vt 1.741211 0.162231
vt 1.701172 0.159058
vt 1.741211 0.159058
vt 1.701172 0.156006
vt 1.741211 0.156006
vt 1.701172 0.152710
vt 1.741211 0.152710
vt 1.741211 0.149658
vt 1.701172 0.149658
vt 1.701172 0.146484
vt 1.741211 0.146484
vt 1.741211 0.143433
vt 1.701172 0.143433
vt 1.701172 0.140259
vt 1.741211 0.140259
vt 1.701172 0.137207
vt 1.741211 0.137207
vt 1.701172 0.134033
vt 1.741211 0.134033
vt 1.701172 0.130981
vt 1.741211 0.130981
vt 1.699219 0.159058
vt 1.699219 0.156006
vt 1.700195 0.156006
vt 1.700195 0.159058
vt 1.700195 0.152710
vt 1.700195 0.162231
vt 1.699219 0.152710
vt 1.699219 0.162231
vt 1.700195 0.149658
vt 1.700195 0.165283
vt 1.699219 0.149658
vt 1.699219 0.165283
vt 1.700195 0.146484
vt 1.700195 0.168457
vt 1.699219 0.146484
vt 1.699219 0.168457
vt 1.700195 0.143433
vt 1.700195 0.171509
vt 1.699219 0.143433
vt 1.699219 0.171509
vt 1.699219 0.140259
vt 1.700195 0.174683
vt 1.700195 0.140259
vt 1.699219 0.174683
vt 1.699219 0.137207
vt 1.700195 0.177734
vt 1.700195 0.137207
vt 1.699219 0.177734
vt 1.699219 0.181030
vt 1.700195 0.181030
vt 1.699219 0.134033
vt 1.700195 0.134033
vt 1.700195 0.130981
vt 1.699219 0.130981
vt 1.696289 0.159058
vt 1.696289 0.156006
vt 1.698242 0.156006
vt 1.698242 0.159058
vt 1.698242 0.152710
vt 1.696289 0.162231
vt 1.696289 0.152710
vt 1.698242 0.162231
vt 1.698242 0.149658
vt 1.698242 0.165283
vt 1.696289 0.149658
vt 1.696289 0.165283
vt 1.698242 0.146484
vt 1.696289 0.168457
vt 1.696289 0.146484
vt 1.698242 0.168457
vt 1.698242 0.143433
vt 1.696289 0.171509
vt 1.696289 0.143433
vt 1.698242 0.171509
vt 1.696289 0.140259
vt 1.696289 0.174683
vt 1.698242 0.140259
vt 1.698242 0.174683
vt 1.696289 0.137207
vt 1.696289 0.177734
vt 1.698242 0.137207
vt 1.698242 0.177734
vt 1.696289 0.181030
vt 1.698242 0.181030
vt 1.698242 0.134033
vt 1.696289 0.134033
vt 1.698242 0.130981
vt 1.696289 0.130981
vt 0.940918 0.123718
vt 0.940918 0.125122
vt 0.921387 0.125122
vt 0.940918 0.126465
vt 0.921387 0.126465
vt 0.921387 0.123718
vt 0.921387 0.122314
vt 0.940918 0.122314
vt 0.940918 0.120911
vt 0.921387 0.120911
vt 0.940918 0.119507
vt 0.921387 0.119507
vt 0.921387 0.118103
vt 0.940918 0.118103
vt 0.921387 0.116699
vt 0.940918 0.116699
vt 0.921387 0.115295
vt 0.940918 0.115295
vt 0.921387 0.113892
vt 0.940918 0.113892
vt 0.921387 0.112488
vt 0.940918 0.112488
vt 0.921387 0.111084
vt 0.940918 0.111084
vt 0.921387 0.109680
vt 0.940918 0.109680
vt 0.921387 0.108276
vt 0.940918 0.108276
vt 0.921387 0.106873
vt 0.940918 0.106873
vt 0.921387 0.105469
vt 0.940918 0.105469
vt 0.940918 0.104065
vt 0.921387 0.104065
vt 0.948242 0.089478
vt 0.950195 0.089844
vt 0.949219 0.092346
vt 0.947266 0.091309
vt 0.948242 0.087585
vt 0.946289 0.092712
vt 0.950195 0.087219
vt 0.947266 0.094238
vt 0.947266 0.085754
vt 0.944336 0.093445
vt 0.949219 0.084717
vt 0.944824 0.095215
vt 0.947266 0.082825
vt 0.941895 0.095215
vt 0.946289 0.084351
vt 0.942383 0.093445
vt 0.944336 0.083618
vt 0.939453 0.094238
vt 0.944824 0.081848
vt 0.940430 0.092712
vt 0.942383 0.083618
vt 0.938965 0.091309
vt 0.941895 0.081848
vt 0.937500 0.092346
vt 0.939453 0.082825
vt 0.938477 0.089478
vt 0.940430 0.084351
vt 0.936523 0.089844
vt 0.938965 0.085754
vt 0.936523 0.087219
vt 0.937500 0.084717
vt 0.938477 0.087585
vt 1.653320 0.987305
vt 1.652344 0.986328
vt 1.655273 0.986328
vt 1.652344 0.988281
vt 1.651367 0.987793
vt 1.652344 0.989746
vt 1.651367 0.990234
vt 1.652344 0.992188
vt 1.653320 0.990723
vt 1.655273 0.992188
vt 1.654297 0.987305
vt 1.655273 0.988281
vt 1.656250 0.987793
vt 1.656250 0.990234
vt 1.655273 0.989746
vt 1.654297 0.990723
vt 0.926270 0.092285
vt 0.916992 0.094177
vt 0.924316 0.082825
vt 0.919434 0.095154
vt 0.921875 0.095154
vt 0.924316 0.094177
vt 0.927246 0.089844
vt 0.927246 0.087158
vt 0.926270 0.084717
vt 0.915039 0.084717
vt 0.915039 0.092285
vt 0.921875 0.081787
vt 0.914062 0.089844
vt 0.914062 0.087158
vt 0.919434 0.081787
vt 0.916992 0.082825
vt 0.979980 0.890625
vt 0.981934 0.882324
vt 0.983887 0.893066
vt 0.981934 0.892090
vt 0.979980 0.883789
vt 0.979004 0.885742
vt 0.979004 0.888184
vt 0.986328 0.881348
vt 0.983887 0.881348
vt 0.988281 0.892090
vt 0.986328 0.893066
vt 0.990234 0.883789
vt 0.988281 0.882324
vt 0.990723 0.885742
vt 0.990723 0.888184
vt 0.990234 0.890625
vt 0.983398 0.776367
vt 0.984375 0.776367
vt 0.983887 0.776855
vt 0.985840 0.776855
vt 0.985352 0.771973
vt 0.985840 0.777832
vt 0.981934 0.776855
vt 0.981934 0.777832
vt 0.980957 0.777344
vt 0.979980 0.773438
vt 0.986816 0.777344
vt 0.986328 0.779297
vt 0.987793 0.773438
vt 0.982422 0.771973
vt 0.988770 0.772461
vt 0.985352 0.770996
vt 0.982422 0.770996
vt 0.979004 0.772461
vt 0.977539 0.775391
vt 0.977051 0.774902
vt 0.990234 0.775391
vt 0.990723 0.774902
vt 0.976562 0.777832
vt 0.975586 0.777832
vt 0.975586 0.781250
vt 0.987305 0.778809
vt 0.991211 0.777832
vt 0.992188 0.777832
vt 0.987305 0.779785
vt 0.985840 0.781250
vt 0.991211 0.780762
vt 0.992188 0.781250
vt 0.986816 0.781250
vt 0.990234 0.783691
vt 0.990723 0.784180
vt 0.988770 0.786133
vt 0.985840 0.782227
vt 0.987793 0.785645
vt 0.985352 0.786621
vt 0.985352 0.787598
vt 0.982422 0.787598
vt 0.984375 0.782715
vt 0.983887 0.781738
vt 0.982422 0.786621
vt 0.983398 0.782715
vt 0.981934 0.781250
vt 0.979980 0.785645
vt 0.979004 0.786133
vt 0.981934 0.782227
vt 0.977051 0.784180
vt 0.980957 0.781250
vt 0.977539 0.783691
vt 0.976562 0.780762
vt 0.981445 0.779297
vt 0.980469 0.779785
vt 0.980469 0.778809
vt 0.743164 0.159058
vt 0.751953 0.159058
vt 0.751953 0.162231
vt 0.743164 0.162231
vt 0.743164 0.165283
vt 0.751953 0.156006
vt 0.743164 0.156006
vt 0.760254 0.159058
vt 0.751953 0.152710
vt 0.743164 0.152710
vt 0.760254 0.156006
vt 0.760254 0.152710
vt 0.761230 0.159058
vt 0.761230 0.156006
vt 0.761230 0.162231
vt 0.761230 0.152710
vt 0.760254 0.149658
vt 0.761230 0.149658
vt 0.760254 0.162231
vt 0.761230 0.165283
vt 0.751953 0.149658
vt 0.743164 0.149658
vt 0.751953 0.146484
vt 0.743164 0.146484
vt 0.760254 0.146484
vt 0.761230 0.146484
vt 0.761230 0.143433
vt 0.751953 0.143433
vt 0.743164 0.143433
vt 0.760254 0.143433
vt 0.761230 0.140259
vt 0.751953 0.140259
vt 0.743164 0.140259
vt 0.760254 0.140259
vt 0.760254 0.137207
vt 0.761230 0.137207
vt 0.751953 0.137207
vt 0.743164 0.137207
vt 0.751953 0.134033
vt 0.743164 0.134033
vt 0.743164 0.130981
vt 0.751953 0.130981
vt 0.760254 0.130981
vt 0.760254 0.134033
vt 0.761230 0.134033
vt 0.761230 0.130981
vt 0.741211 0.181030
vt 0.701660 0.181030
vt 0.701660 0.177734
vt 0.741211 0.177734
vt 0.701660 0.174683
vt 0.741211 0.174683
vt 0.701660 0.171509
vt 0.741211 0.171509
vt 0.701660 0.168457
vt 0.741211 0.168457
vt 0.701660 0.165283
vt 0.741211 0.165283
vt 0.701660 0.162231
vt 0.741211 0.162231
vt 0.701660 0.159058
vt 0.741211 0.159058
vt 0.701660 0.156006
vt 0.741211 0.156006
vt 0.701660 0.152710
vt 0.741211 0.152710
vt 0.741211 0.149658
vt 0.701660 0.149658
vt 0.701660 0.146484
vt 0.741211 0.146484
vt 0.741211 0.143433
vt 0.701660 0.143433
vt 0.701660 0.140259
vt 0.741211 0.140259
vt 0.701660 0.137207
vt 0.741211 0.137207
vt 0.701660 0.134033
vt 0.741211 0.134033
vt 0.701660 0.130981
vt 0.741211 0.130981
vt 0.751953 0.165283
vt 0.751953 0.168457
vt 0.760254 0.165283
vt 0.761230 0.168457
vt 0.760254 0.168457
vt 0.743164 0.168457
vt 0.760254 0.171509
vt 0.761230 0.171509
vt 0.751953 0.171509
vt 0.743164 0.171509
vt 0.743164 0.174683
vt 0.751953 0.174683
vt 0.760254 0.174683
vt 0.761230 0.174683
vt 0.751953 0.177734
vt 0.743164 0.177734
vt 0.743164 0.181030
vt 0.751953 0.181030
vt 0.760254 0.181030
vt 0.760254 0.177734
vt 0.761230 0.177734
vt 0.761230 0.181030
vt 0.764160 0.174683
vt 0.764160 0.177734
vt 0.762695 0.177734
vt 0.764160 0.181030
vt 0.762695 0.181030
vt 0.762695 0.174683
vt 0.764160 0.171509
vt 0.762695 0.171509
vt 0.764160 0.168457
vt 0.762695 0.168457
vt 0.764160 0.165283
vt 0.762695 0.165283
vt 0.764160 0.162231
vt 0.762695 0.162231
vt 0.764160 0.159058
vt 0.762695 0.159058
vt 0.764160 0.156006
vt 0.762695 0.156006
vt 0.764160 0.152710
vt 0.762695 0.152710
vt 0.764160 0.149658
vt 0.762695 0.149658
vt 0.762695 0.146484
vt 0.764160 0.146484
vt 0.764160 0.143433
vt 0.762695 0.143433
vt 0.762695 0.140259
vt 0.764160 0.140259
vt 0.762695 0.137207
vt 0.764160 0.137207
vt 0.764160 0.134033
vt 0.762695 0.134033
vt 0.764160 0.130981
vt 0.762695 0.130981
vt 0.699219 0.159058
vt 0.699219 0.156006
vt 0.700195 0.156006
vt 0.700195 0.152710
vt 0.699219 0.152710
vt 0.700195 0.149658
vt 0.699219 0.149658
vt 0.700195 0.146484
vt 0.699219 0.146484
vt 0.700195 0.143433
vt 0.699219 0.143433
vt 0.699219 0.140259
vt 0.700195 0.140259
vt 0.699219 0.137207
vt 0.700195 0.137207
vt 0.699219 0.134033
vt 0.700195 0.134033
vt 0.700195 0.130981
vt 0.699219 0.130981
vt 0.767578 0.159058
vt 0.767578 0.162231
vt 0.767578 0.156006
vt 0.767578 0.165283
vt 0.767578 0.152710
vt 0.767578 0.168457
vt 0.767578 0.149658
vt 0.767578 0.171509
vt 0.767578 0.146484
vt 0.767578 0.174683
vt 0.767578 0.143433
vt 0.767578 0.177734
vt 0.767578 0.181030
vt 0.767578 0.140259
vt 0.767578 0.137207
vt 0.767578 0.134033
vt 0.767578 0.130981
vt 0.696289 0.159058
vt 0.696289 0.156006
vt 0.698242 0.156006
vt 0.698242 0.159058
vt 0.698242 0.152710
vt 0.696289 0.162231
vt 0.696289 0.152710
vt 0.698242 0.162231
vt 0.698242 0.149658
vt 0.698242 0.165283
vt 0.696289 0.149658
vt 0.696289 0.165283
vt 0.698242 0.146484
vt 0.696289 0.168457
vt 0.696289 0.146484
vt 0.698242 0.168457
vt 0.698242 0.143433
vt 0.696289 0.171509
vt 0.696289 0.143433
vt 0.698242 0.171509
vt 0.696289 0.140259
vt 0.696289 0.174683
vt 0.698242 0.140259
vt 0.698242 0.174683
vt 0.698242 0.137207
vt 0.696289 0.177734
vt 0.696289 0.137207
vt 0.698242 0.177734
vt 0.696289 0.181030
vt 0.698242 0.181030
vt 0.698242 0.134033
vt 0.696289 0.134033
vt 0.698242 0.130981
vt 0.696289 0.130981
vt 0.699219 0.162231
vt 0.699219 0.165283
vt 0.699219 0.168457
vt 0.699219 0.171509
vt 0.699219 0.174683
vt 0.699219 0.177734
vt 0.699219 0.181030
vt 0.700195 0.165283
vt 0.700195 0.162231
vt 0.700195 0.168457
vt 0.700195 0.159058
vt 0.700195 0.171509
vt 0.700195 0.174683
vt 0.700195 0.177734
vt 0.700195 0.181030
vt 0.652832 0.986328
vt 0.655273 0.986328
vt 0.654785 0.987305
vt 0.653320 0.987305
vt 0.655762 0.988281
vt 0.656738 0.987793
vt 0.651367 0.987793
vt 0.655762 0.989746
vt 0.656738 0.990234
vt 0.654785 0.990723
vt 0.655273 0.992188
vt 0.652832 0.992188
vt 0.653320 0.990723
vt 0.651367 0.990234
vt 0.652344 0.989746
vt 0.652344 0.988281
s 1
f 2/1/1 3/2/2 1/3/3
f 1/3/3 22/4/4 2/1/1
f 1/3/3 3/2/2 4/5/5
f 22/4/4 24/6/6 2/1/1
f 23/7/7 24/6/6 22/4/4
f 2/1/1 24/6/6 55/8/8
f 3/2/2 2/1/1 55/8/8
f 22/4/4 19/9/9 23/7/7
f 3/2/2 5/10/10 4/5/5
f 5/10/10 6/11/11 4/5/5
f 5/10/10 3/2/2 189/12/12
f 6/11/11 5/10/10 189/12/12
f 4/5/5 6/11/11 7/13/13
f 3/2/2 190/14/14 189/12/12
f 190/14/14 3/2/2 55/8/8
f 188/15/15 6/11/11 189/12/12
f 318/16/16 188/15/15 189/12/12
f 325/17/17 189/12/12 190/14/14
f 325/17/17 318/16/16 189/12/12
f 324/18/18 325/17/17 190/14/14
f 324/18/18 190/14/14 55/8/8
f 329/19/19 324/18/18 55/8/8
f 187/20/20 188/15/15 318/16/16
f 6/11/11 188/15/15 187/20/20
f 319/21/21 187/20/20 318/16/16
f 329/19/19 55/8/8 56/22/22
f 24/6/6 56/22/22 55/8/8
f 211/23/23 329/19/19 56/22/22
f 24/6/6 23/7/7 56/22/22
f 211/23/23 56/22/22 197/24/24
f 23/7/7 197/24/24 56/22/22
f 326/25/25 211/23/23 197/24/24
f 326/25/25 197/24/24 198/26/26
f 198/26/26 197/24/24 23/7/7
f 814/27/27 326/25/25 198/26/26
f 814/27/27 198/26/26 322/28/28
f 21/29/29 198/26/26 23/7/7
f 19/9/9 21/29/29 23/7/7
f 20/30/30 21/29/29 19/9/9
f 21/29/29 20/30/30 198/26/26
f 19/9/9 16/31/31 20/30/30
f 198/26/26 195/32/32 322/28/28
f 20/30/30 195/32/32 198/26/26
f 322/28/28 195/32/32 320/33/33
f 16/31/31 18/34/34 20/30/30
f 20/30/30 18/34/34 195/32/32
f 18/34/34 196/35/35 195/32/32
f 195/32/32 196/35/35 320/33/33
f 320/33/33 196/35/35 194/36/36
f 196/35/35 18/34/34 194/36/36
f 317/37/37 320/33/33 194/36/36
f 17/38/38 18/34/34 16/31/31
f 18/34/34 17/38/38 194/36/36
f 317/37/37 194/36/36 203/39/39
f 203/39/39 194/36/36 17/38/38
f 812/40/40 317/37/37 203/39/39
f 15/41/41 17/38/38 16/31/31
f 15/41/41 203/39/39 17/38/38
f 13/42/42 15/41/41 16/31/31
f 812/40/40 203/39/39 327/43/43
f 14/44/44 15/41/41 13/42/42
f 15/41/41 14/44/44 203/39/39
f 203/39/39 202/45/45 327/43/43
f 14/44/44 202/45/45 203/39/39
f 327/43/43 202/45/45 321/46/46
f 14/44/44 13/42/42 12/47/47
f 13/42/42 10/48/48 12/47/47
f 201/49/49 202/45/45 14/44/44
f 202/45/45 201/49/49 321/46/46
f 12/47/47 201/49/49 14/44/44
f 11/50/50 12/47/47 10/48/48
f 12/47/47 11/50/50 201/49/49
f 10/48/48 7/13/13 11/50/50
f 321/46/46 201/49/49 217/51/51
f 11/50/50 217/51/51 201/49/49
f 323/52/52 321/46/46 217/51/51
f 7/13/13 9/53/53 11/50/50
f 323/52/52 217/51/51 204/54/54
f 217/51/51 11/50/50 204/54/54
f 11/50/50 9/53/53 204/54/54
f 813/55/55 323/52/52 204/54/54
f 813/55/55 204/54/54 319/21/21
f 204/54/54 187/20/20 319/21/21
f 9/53/53 8/56/56 204/54/54
f 8/56/56 187/20/20 204/54/54
f 8/56/56 9/53/53 7/13/13
f 8/56/56 6/11/11 187/20/20
f 6/11/11 8/56/56 7/13/13
f 26/57/57 27/58/58 25/59/58
f 164/60/57 26/57/57 25/59/58
f 25/59/58 27/58/58 31/61/59
f 108/62/60 26/57/57 164/60/57
f 27/58/58 32/63/59 31/61/59
f 107/64/60 108/62/60 164/60/57
f 31/61/59 32/63/59 333/65/61
f 88/66/62 108/62/60 107/64/60
f 32/63/59 334/67/61 333/65/61
f 86/68/62 88/66/62 107/64/60
f 334/67/61 161/69/63 333/65/61
f 87/70/64 88/66/62 86/68/62
f 161/69/63 335/71/63 333/65/61
f 797/72/64 87/70/64 86/68/62
f 335/71/63 161/69/63 160/73/65
f 797/72/64 100/74/66 87/70/64
f 161/69/63 162/75/65 160/73/65
f 100/74/66 101/76/66 87/70/64
f 162/75/65 46/77/67 160/73/65
f 100/74/66 33/78/68 101/76/66
f 46/77/67 45/79/67 160/73/65
f 45/79/67 46/77/67 44/80/69
f 792/81/69 45/79/67 44/80/69
f 33/78/68 35/82/68 101/76/66
f 34/83/70 35/82/68 33/78/68
f 791/84/70 34/83/70 33/78/68
f 791/84/70 159/85/71 34/83/70
f 159/85/71 119/86/71 34/83/70
f 159/85/71 120/87/72 119/86/71
f 120/87/72 121/88/72 119/86/71
f 336/89/73 121/88/72 120/87/72
f 815/90/73 336/89/73 120/87/72
f 29/91/74 30/92/75 28/93/75
f 304/94/74 29/91/74 28/93/75
f 29/91/74 304/94/74 130/95/76
f 129/96/76 29/91/74 130/95/76
f 129/96/76 130/95/76 93/97/77
f 92/98/77 129/96/76 93/97/77
f 92/98/77 93/97/77 91/99/78
f 90/100/78 92/98/77 91/99/78
f 90/100/78 91/99/78 89/101/79
f 131/102/79 90/100/78 89/101/79
f 131/102/79 89/101/79 106/103/80
f 105/104/80 131/102/79 106/103/80
f 105/104/80 106/103/80 104/105/81
f 112/106/81 105/104/80 104/105/81
f 112/106/81 104/105/81 111/107/60
f 125/108/60 112/106/81 111/107/60
f 125/108/60 111/107/60 102/109/82
f 103/110/82 125/108/60 102/109/82
f 42/111/83 103/110/82 102/109/82
f 43/112/83 42/111/83 102/109/82
f 42/111/83 43/112/83 41/113/84
f 261/114/84 42/111/83 41/113/84
f 53/115/85 261/114/84 41/113/84
f 54/116/85 53/115/85 41/113/84
f 53/115/85 54/116/85 40/117/86
f 39/118/86 53/115/85 40/117/86
f 39/118/86 40/117/86 38/119/87
f 37/120/87 39/118/86 38/119/87
f 37/120/87 38/119/87 36/121/88
f 110/122/88 37/120/87 36/121/88
f 110/122/88 36/121/88 109/123/89
f 799/124/90 110/122/88 109/123/89
f 48/71/91 49/73/92 47/96/93
f 64/98/94 48/71/91 47/96/93
f 47/96/93 49/73/92 72/91/95
f 48/71/91 64/98/94 63/65/96
f 49/73/92 73/79/97 72/91/95
f 72/91/95 73/79/97 80/92/98
f 73/79/97 81/81/99 80/92/98
f 64/98/94 65/100/100 63/65/96
f 63/65/96 65/100/100 79/61/101
f 65/100/100 75/102/102 79/61/101
f 79/61/101 75/102/102 74/59/103
f 75/102/102 76/104/104 74/59/103
f 74/59/103 76/104/104 77/60/105
f 76/104/104 78/106/106 77/60/105
f 77/60/105 78/106/106 60/64/107
f 78/106/106 84/108/108 60/64/107
f 84/108/108 61/110/109 60/64/107
f 61/110/109 62/68/110 60/64/107
f 61/110/109 82/111/111 62/68/110
f 82/111/111 83/72/112 62/68/110
f 57/74/113 83/72/112 82/111/111
f 794/114/114 57/74/113 82/111/111
f 794/114/114 58/115/115 57/74/113
f 58/115/115 59/78/115 57/74/113
f 58/115/115 795/118/116 59/78/115
f 66/118/117 68/84/118 59/78/115
f 67/85/119 68/84/118 66/118/117
f 85/120/120 67/85/119 795/118/116
f 69/87/121 67/85/119 85/120/120
f 796/122/122 69/87/121 85/120/120
f 796/122/122 70/124/123 69/87/121
f 70/124/123 71/90/124 69/87/121
f 51/125/125 52/126/60 50/127/60
f 793/128/125 51/125/125 50/127/60
f 50/127/60 52/126/60 259/129/126
f 793/128/125 165/130/127 51/125/125
f 52/126/60 254/131/126 259/129/126
f 165/130/127 166/132/127 51/125/125
f 259/129/126 254/131/126 253/133/128
f 165/130/127 262/134/129 166/132/127
f 254/131/126 244/135/128 253/133/128
f 262/134/129 257/136/129 166/132/127
f 253/133/128 244/135/128 243/137/84
f 262/134/129 258/138/130 257/136/129
f 244/135/128 245/139/84 243/137/84
f 258/138/130 251/140/130 257/136/129
f 243/137/84 245/139/84 246/141/131
f 258/138/130 252/142/132 251/140/130
f 245/139/84 247/143/131 246/141/131
f 252/142/132 249/144/132 251/140/130
f 246/141/131 247/143/131 260/145/70
f 252/142/132 250/146/65 249/144/132
f 263/147/70 246/141/131 260/145/70
f 250/146/65 240/148/65 249/144/132
f 263/147/70 260/145/70 256/149/133
f 250/146/65 241/150/134 240/148/65
f 255/151/133 263/147/70 256/149/133
f 241/150/134 242/152/134 240/148/65
f 248/153/135 242/152/134 241/150/134
f 809/154/135 248/153/135 241/150/134
f 255/151/133 256/149/133 95/155/136
f 798/156/136 255/151/133 95/155/136
f 798/156/136 95/155/136 94/157/137
f 95/155/136 96/158/137 94/157/137
f 98/159/81 99/160/60 97/161/60
f 132/162/81 98/159/81 97/161/60
f 97/161/60 99/160/60 158/163/82
f 133/164/80 98/159/81 132/162/81
f 99/160/60 123/165/82 158/163/82
f 801/166/80 133/164/80 132/162/81
f 158/163/82 123/165/82 122/167/83
f 801/166/80 290/168/79 133/164/80
f 123/165/82 124/169/83 122/167/83
f 290/168/79 291/170/79 133/164/80
f 122/167/83 124/169/83 306/171/84
f 118/172/78 291/170/79 290/168/79
f 124/169/83 305/173/84 306/171/84
f 116/174/78 118/172/78 290/168/79
f 306/171/84 305/173/84 301/175/85
f 117/176/77 118/172/78 116/174/78
f 305/173/84 302/177/85 301/175/85
f 292/178/77 117/176/77 116/174/78
f 301/175/85 302/177/85 128/179/86
f 293/180/76 117/176/77 292/178/77
f 127/181/86 301/175/85 128/179/86
f 296/182/76 293/180/76 292/178/77
f 127/181/86 128/179/86 126/183/87
f 193/184/74 293/180/76 296/182/76
f 800/185/87 127/181/86 126/183/87
f 191/186/74 193/184/74 296/182/76
f 192/187/75 193/184/74 191/186/74
f 805/188/75 192/187/75 191/186/74
f 800/185/87 126/183/87 300/189/88
f 126/183/87 298/190/88 300/189/88
f 300/189/88 298/190/88 297/191/90
f 298/190/88 299/192/90 297/191/90
f 114/161/138 115/126/139 113/125/140
f 115/126/139 114/161/138 238/131/141
f 216/162/142 114/161/138 113/125/140
f 114/161/138 239/163/143 238/131/141
f 215/166/144 216/162/142 113/125/140
f 239/163/143 286/167/145 238/131/141
f 279/132/146 215/166/144 113/125/140
f 286/167/145 208/135/147 238/131/141
f 219/168/148 215/166/144 279/132/146
f 286/167/145 209/171/149 208/135/147
f 220/136/150 219/168/148 279/132/146
f 209/171/149 210/139/151 208/135/147
f 219/168/148 220/136/150 218/140/152
f 207/143/153 210/139/151 209/171/149
f 225/174/152 219/168/148 218/140/152
f 205/175/154 207/143/153 209/171/149
f 225/174/152 218/140/152 224/144/155
f 206/145/156 207/143/153 205/175/154
f 271/178/157 225/174/152 224/144/155
f 230/181/158 206/145/156 205/175/154
f 271/178/157 224/144/155 270/148/159
f 206/145/156 230/181/158 229/149/160
f 810/182/161 271/178/157 270/148/159
f 230/181/158 231/185/162 229/149/160
f 810/182/161 270/148/159 285/186/163
f 276/155/164 229/149/160 231/185/162
f 270/148/159 268/152/165 285/186/163
f 285/186/163 268/152/165 267/188/166
f 268/152/165 269/153/167 267/188/166
f 811/189/168 276/155/164 231/185/162
f 811/189/168 280/191/169 276/155/164
f 280/191/169 281/158/170 276/155/164
f 135/193/171 136/194/126 134/195/126
f 136/194/126 172/196/172 134/195/126
f 172/196/172 173/197/172 134/195/126
f 154/198/171 135/193/171 134/195/126
f 135/193/171 154/198/171 140/199/66
f 142/200/66 135/193/171 140/199/66
f 141/201/85 142/200/66 140/199/66
f 143/202/85 141/201/85 140/199/66
f 144/203/173 141/201/85 143/202/85
f 176/204/173 144/203/173 143/202/85
f 144/203/173 176/204/173 175/205/174
f 177/206/174 144/203/173 175/205/174
f 177/206/174 175/205/174 150/207/136
f 149/208/136 177/206/174 150/207/136
f 149/208/136 150/207/136 148/209/175
f 168/210/176 149/208/136 148/209/175
f 168/210/176 148/209/175 167/211/134
f 171/212/134 168/210/176 167/211/134
f 171/212/134 167/211/134 170/213/177
f 169/214/178 171/212/134 170/213/177
f 169/214/178 170/213/177 147/215/179
f 146/216/179 169/214/178 147/215/179
f 146/216/179 147/215/179 145/217/78
f 174/218/78 146/216/179 145/217/78
f 174/218/78 145/217/78 157/219/180
f 156/220/180 174/218/78 157/219/180
f 156/220/180 157/219/180 155/221/181
f 163/222/181 156/220/180 155/221/181
f 163/222/181 155/221/181 137/223/182
f 139/224/125 163/222/181 137/223/182
f 138/225/183 139/224/125 137/223/182
f 802/226/183 138/225/183 137/223/182
f 152/134/184 153/130/185 151/103/186
f 151/103/186 153/130/185 228/128/187
f 803/101/188 152/134/184 151/103/186
f 807/105/189 151/103/186 228/128/187
f 803/101/188 283/99/190 152/134/184
f 807/105/189 228/128/187 236/107/191
f 283/99/190 284/138/192 152/134/184
f 228/128/187 237/127/193 236/107/191
f 275/142/194 284/138/192 283/99/190
f 236/107/191 237/127/193 235/129/195
f 274/97/196 275/142/194 283/99/190
f 273/109/197 236/107/191 235/129/195
f 214/146/198 275/142/194 274/97/196
f 222/112/199 273/109/197 235/129/195
f 212/95/200 214/146/198 274/97/196
f 223/133/201 222/112/199 235/129/195
f 213/150/202 214/146/198 212/95/200
f 222/112/199 223/133/201 221/137/203
f 226/94/204 213/150/202 212/95/200
f 227/154/205 213/150/202 226/94/204
f 806/93/206 227/154/205 226/94/204
f 278/113/207 222/112/199 221/137/203
f 277/116/208 278/113/207 221/137/203
f 282/141/208 277/116/208 221/137/203
f 277/116/208 282/141/208 264/147/209
f 266/117/210 277/116/208 264/147/209
f 265/119/211 266/117/210 264/147/209
f 272/151/212 265/119/211 264/147/209
f 233/121/213 265/119/211 272/151/212
f 234/156/214 233/121/213 272/151/212
f 233/121/213 234/156/214 232/157/215
f 808/123/216 233/121/213 232/157/215
f 179/227/217 180/228/217 178/229/217
f 328/230/217 179/227/217 178/229/217
f 179/227/217 294/231/217 180/228/217
f 289/232/217 328/230/217 178/229/217
f 294/231/217 295/233/217 180/228/217
f 287/234/217 289/232/217 178/229/217
f 295/233/217 294/231/217 351/235/217
f 288/236/217 289/232/217 287/234/217
f 352/237/217 295/233/217 351/235/217
f 303/238/217 288/236/217 287/234/217
f 349/239/217 352/237/217 351/235/217
f 288/236/217 303/238/217 183/240/217
f 350/241/217 349/239/217 351/235/217
f 182/242/217 288/236/217 183/240/217
f 349/239/217 350/241/217 348/243/217
f 182/242/217 183/240/217 181/244/217
f 347/245/217 349/239/217 348/243/217
f 804/246/217 182/242/217 181/244/217
f 347/245/217 348/243/217 345/247/217
f 804/246/217 181/244/217 331/248/217
f 346/249/217 347/245/217 345/247/217
f 181/244/217 332/250/217 331/248/217
f 343/251/217 346/249/217 345/247/217
f 331/248/217 332/250/217 337/252/217
f 344/253/217 343/251/217 345/247/217
f 332/250/217 338/254/217 337/252/217
f 343/251/217 344/253/217 341/255/217
f 338/254/217 339/256/217 337/252/217
f 342/257/217 343/251/217 341/255/217
f 339/256/217 342/257/217 341/255/217
f 340/258/217 339/256/217 341/255/217
f 339/256/217 340/258/217 337/252/217
f 185/259/218 186/260/219 184/261/220
f 185/259/218 310/262/221 186/260/219
f 310/262/221 307/263/222 186/260/219
f 310/262/221 308/264/223 307/263/222
f 310/262/221 185/259/218 308/264/223
f 308/264/223 309/265/224 307/263/222
f 316/266/225 309/265/224 308/264/223
f 200/267/226 316/266/225 308/264/223
f 308/264/223 185/259/218 200/267/226
f 314/268/227 316/266/225 200/267/226
f 330/269/228 185/259/218 184/261/220
f 330/269/228 184/261/220 312/270/229
f 330/269/228 312/270/229 185/259/218
f 184/261/220 313/271/230 312/270/229
f 312/270/229 313/271/230 311/272/231
f 315/273/232 311/272/231 314/268/227
f 315/273/232 312/270/229 311/272/231
f 199/274/233 314/268/227 200/267/226
f 199/274/233 200/267/226 185/259/218
f 199/274/233 315/273/232 314/268/227
f 312/270/229 199/274/233 185/259/218
f 315/273/232 199/274/233 312/270/229
f 354/275/217 355/276/217 353/277/217
f 355/276/217 354/275/217 368/278/217
f 368/278/217 354/275/217 367/279/217
f 366/280/217 367/279/217 354/275/217
f 354/275/217 353/277/217 365/281/217
f 365/281/217 353/277/217 364/282/217
f 363/283/217 364/282/217 353/277/217
f 357/284/217 353/277/217 355/276/217
f 356/285/217 357/284/217 355/276/217
f 353/277/217 357/284/217 362/286/217
f 358/287/217 357/284/217 356/285/217
f 359/288/217 357/284/217 358/287/217
f 362/286/217 357/284/217 361/289/217
f 360/290/217 361/289/217 357/284/217
f 370/291/217 371/292/217 369/293/217
f 582/294/217 370/291/217 369/293/217
f 371/292/217 370/291/217 585/295/217
f 585/295/217 370/291/217 584/296/217
f 583/297/217 584/296/217 370/291/217
f 371/292/217 574/298/217 369/293/217
f 573/299/217 574/298/217 371/292/217
f 574/298/217 578/300/217 369/293/217
f 581/301/217 369/293/217 578/300/217
f 576/302/217 578/300/217 574/298/217
f 575/303/217 576/302/217 574/298/217
f 577/304/217 578/300/217 576/302/217
f 579/305/217 578/300/217 577/304/217
f 580/306/217 578/300/217 579/305/217
f 373/307/234 374/308/2 372/309/235
f 372/309/235 374/308/2 376/310/10
f 374/308/2 373/307/234 646/311/14
f 374/308/2 646/311/14 376/310/10
f 375/312/5 372/309/235 376/310/10
f 395/313/236 373/307/234 372/309/235
f 393/314/237 395/313/236 372/309/235
f 394/315/7 395/313/236 393/314/237
f 395/313/236 440/316/22 373/307/234
f 395/313/236 394/315/7 440/316/22
f 376/310/10 377/317/11 375/312/5
f 375/312/5 377/317/11 378/318/238
f 377/317/11 376/310/10 647/319/239
f 646/311/14 647/319/239 376/310/10
f 440/316/22 441/320/8 373/307/234
f 373/307/234 441/320/8 646/311/14
f 777/321/240 647/319/239 646/311/14
f 781/322/18 646/311/14 441/320/8
f 781/322/18 777/321/240 646/311/14
f 839/323/19 781/322/18 441/320/8
f 839/323/19 441/320/8 669/324/23
f 441/320/8 440/316/22 669/324/23
f 669/324/23 440/316/22 654/325/24
f 394/315/7 654/325/24 440/316/22
f 782/326/25 669/324/23 654/325/24
f 644/327/241 647/319/239 777/321/240
f 644/327/241 377/317/11 647/319/239
f 774/328/242 644/327/241 777/321/240
f 782/326/25 654/325/24 655/329/26
f 655/329/26 654/325/24 394/315/7
f 838/330/27 782/326/25 655/329/26
f 838/330/27 655/329/26 779/331/28
f 377/317/11 644/327/241 379/332/56
f 377/317/11 379/332/56 378/318/238
f 645/333/243 644/327/241 774/328/242
f 644/327/241 645/333/243 379/332/56
f 775/334/244 645/333/243 774/328/242
f 379/332/56 380/335/245 378/318/238
f 380/335/245 379/332/56 645/333/243
f 381/336/246 378/318/238 380/335/245
f 662/337/247 645/333/243 775/334/244
f 662/337/247 380/335/245 645/333/243
f 780/338/248 662/337/247 775/334/244
f 382/339/249 381/336/246 380/335/245
f 382/339/249 380/335/245 662/337/247
f 675/340/250 662/337/247 780/338/248
f 675/340/250 382/339/249 662/337/247
f 837/341/251 675/340/250 780/338/248
f 837/341/251 778/342/46 675/340/250
f 382/339/249 675/340/250 383/343/252
f 382/339/249 383/343/252 381/336/246
f 778/342/46 660/344/49 675/340/250
f 675/340/250 660/344/49 383/343/252
f 659/345/253 660/344/49 778/342/46
f 383/343/252 660/344/49 659/345/253
f 836/346/43 659/345/253 778/342/46
f 836/346/43 773/347/254 659/345/253
f 381/336/246 383/343/252 385/348/255
f 385/348/255 383/343/252 659/345/253
f 384/349/256 381/336/246 385/348/255
f 773/347/254 661/350/257 659/345/253
f 385/348/255 659/345/253 661/350/257
f 385/348/255 386/351/41 384/349/256
f 386/351/41 385/348/255 661/350/257
f 384/349/256 386/351/41 387/352/31
f 651/353/258 661/350/257 773/347/254
f 386/351/41 661/350/257 651/353/258
f 835/354/259 651/353/258 773/347/254
f 386/351/41 388/355/38 387/352/31
f 388/355/38 386/351/41 651/353/258
f 835/354/259 776/356/260 651/353/258
f 388/355/38 389/357/261 387/352/31
f 389/357/261 388/355/38 651/353/258
f 776/356/260 653/358/262 651/353/258
f 653/358/262 389/357/261 651/353/258
f 652/359/32 653/358/262 776/356/260
f 389/357/261 653/358/262 652/359/32
f 779/331/28 652/359/32 776/356/260
f 655/329/26 652/359/32 779/331/28
f 387/352/31 389/357/261 390/360/263
f 391/361/30 389/357/261 652/359/32
f 391/361/30 652/359/32 655/329/26
f 389/357/261 391/361/30 390/360/263
f 392/362/29 391/361/30 655/329/26
f 391/361/30 392/362/29 390/360/263
f 392/362/29 655/329/26 394/315/7
f 390/360/263 392/362/29 394/315/7
f 393/314/237 390/360/263 394/315/7
f 397/363/57 398/364/57 396/365/58
f 816/366/58 397/363/57 396/365/58
f 816/366/58 396/365/58 402/367/59
f 505/368/60 398/364/57 397/363/57
f 504/369/60 505/368/60 397/363/57
f 398/364/57 629/370/264 396/365/58
f 481/371/62 505/368/60 504/369/60
f 479/372/62 481/371/62 504/369/60
f 505/368/60 541/373/265 398/364/57
f 541/373/265 629/370/264 398/364/57
f 481/371/62 525/374/266 505/368/60
f 525/374/266 541/373/265 505/368/60
f 629/370/264 541/373/265 540/375/267
f 541/373/265 524/376/268 540/375/267
f 541/373/265 525/374/266 524/376/268
f 629/370/264 540/375/267 628/377/269
f 525/374/266 526/378/270 524/376/268
f 525/374/266 539/379/271 526/378/270
f 539/379/271 525/374/266 481/371/62
f 539/379/271 518/380/272 526/378/270
f 783/381/273 629/370/264 628/377/269
f 629/370/264 783/381/273 396/365/58
f 783/381/273 628/377/269 544/382/274
f 480/383/64 539/379/271 481/371/62
f 480/383/64 481/371/62 479/372/62
f 493/384/64 480/383/64 479/372/62
f 494/385/66 480/383/64 493/384/64
f 480/383/64 494/385/66 539/379/271
f 623/386/66 494/385/66 493/384/64
f 539/379/271 519/387/275 518/380/272
f 494/385/66 519/387/275 539/379/271
f 519/387/275 520/388/276 518/380/272
f 626/389/277 520/388/276 519/387/275
f 409/390/68 494/385/66 623/386/66
f 494/385/66 409/390/68 519/387/275
f 407/391/68 409/390/68 623/386/66
f 625/392/278 626/389/277 519/387/275
f 409/390/68 625/392/278 519/387/275
f 529/393/279 626/389/277 625/392/278
f 408/394/70 409/390/68 407/391/68
f 409/390/68 408/394/70 625/392/278
f 618/395/70 408/394/70 407/391/68
f 786/396/280 529/393/279 625/392/278
f 408/394/70 786/396/280 625/392/278
f 786/396/280 530/397/281 529/393/279
f 530/397/281 786/396/280 408/394/70
f 530/397/281 531/398/282 529/393/279
f 556/399/71 408/394/70 618/395/70
f 556/399/71 530/397/281 408/394/70
f 555/400/71 556/399/71 618/395/70
f 416/401/72 556/399/71 555/400/71
f 556/399/71 416/401/72 530/397/281
f 789/402/72 416/401/72 555/400/71
f 416/401/72 789/402/72 788/403/73
f 817/404/73 416/401/72 788/403/73
f 817/404/73 417/405/283 416/401/72
f 530/397/281 418/406/284 531/398/282
f 416/401/72 418/406/284 530/397/281
f 417/405/283 418/406/284 416/401/72
f 418/406/284 639/407/285 531/398/282
f 418/406/284 417/405/283 535/408/286
f 639/407/285 418/406/284 535/408/286
f 400/409/75 401/410/75 399/411/74
f 760/412/74 400/409/75 399/411/74
f 760/412/74 399/411/74 567/413/76
f 566/414/76 760/412/74 567/413/76
f 566/414/76 567/413/76 486/415/77
f 485/416/77 566/414/76 486/415/77
f 485/416/77 486/415/77 484/417/78
f 483/418/78 485/416/77 484/417/78
f 483/418/78 484/417/78 482/419/79
f 570/420/79 483/418/78 482/419/79
f 570/420/79 482/419/79 499/421/80
f 498/422/80 570/420/79 499/421/80
f 498/422/80 499/421/80 497/423/81
f 509/424/81 498/422/80 497/423/81
f 509/424/81 497/423/81 508/425/60
f 560/426/60 509/424/81 508/425/60
f 560/426/60 508/425/60 495/427/82
f 496/428/82 560/426/60 495/427/82
f 428/429/83 496/428/82 495/427/82
f 429/430/83 428/429/83 495/427/82
f 428/429/83 429/430/83 427/431/84
f 720/432/84 428/429/83 427/431/84
f 438/433/85 720/432/84 427/431/84
f 439/434/85 438/433/85 427/431/84
f 438/433/85 439/434/85 426/435/86
f 425/436/86 438/433/85 426/435/86
f 425/436/86 426/435/86 412/437/87
f 411/438/87 425/436/86 412/437/87
f 411/438/87 412/437/87 410/439/88
f 507/440/88 411/438/87 410/439/88
f 507/440/88 410/439/88 506/441/89
f 822/442/90 507/440/88 506/441/89
f 396/365/58 403/443/59 402/367/59
f 396/365/58 783/381/273 403/443/59
f 403/443/59 476/444/61 402/367/59
f 783/381/273 543/445/287 403/443/59
f 403/443/59 543/445/287 476/444/61
f 543/445/287 783/381/273 544/382/274
f 543/445/287 544/382/274 542/446/288
f 784/447/289 543/445/287 542/446/288
f 543/445/287 784/447/289 476/444/61
f 476/444/61 785/448/61 402/367/59
f 784/447/289 542/446/288 477/449/290
f 784/447/289 477/449/290 476/444/61
f 542/446/288 637/450/291 477/449/290
f 476/444/61 478/451/63 785/448/61
f 477/449/290 478/451/63 476/444/61
f 478/451/63 787/452/63 785/448/61
f 787/452/63 478/451/63 619/453/65
f 478/451/63 477/449/290 404/454/65
f 478/451/63 404/454/65 619/453/65
f 477/449/290 637/450/291 632/455/292
f 477/449/290 632/455/292 404/454/65
f 637/450/291 631/456/293 632/455/292
f 404/454/65 406/457/67 619/453/65
f 406/457/67 790/458/67 619/453/65
f 790/458/67 406/457/67 430/459/69
f 406/457/67 431/460/69 430/459/69
f 431/460/69 406/457/67 510/461/294
f 405/462/295 632/455/292 631/456/293
f 632/455/292 405/462/295 404/454/65
f 405/462/295 406/457/67 404/454/65
f 406/457/67 405/462/295 510/461/294
f 511/463/296 405/462/295 631/456/293
f 405/462/295 511/463/296 510/461/294
f 511/463/296 512/464/297 510/461/294
f 414/465/65 415/466/67 413/467/298
f 415/466/67 503/468/69 502/469/299
f 413/467/298 415/466/67 502/469/299
f 413/467/298 502/469/299 627/463/300
f 502/469/299 640/464/301 627/463/300
f 413/467/298 627/463/300 517/456/302
f 516/470/303 414/465/65 413/467/298
f 516/470/303 413/467/298 517/456/302
f 569/471/63 414/465/65 516/470/303
f 516/470/303 517/456/302 515/450/304
f 568/472/305 569/471/63 516/470/303
f 568/472/305 516/470/303 515/450/304
f 565/473/61 569/471/63 568/472/305
f 568/472/305 515/450/304 534/474/306
f 534/474/306 565/473/61 568/472/305
f 515/450/304 532/446/307 534/474/306
f 564/475/59 565/473/61 534/474/306
f 533/476/308 534/474/306 532/446/307
f 533/476/308 564/475/59 534/474/306
f 638/382/309 533/476/308 532/446/307
f 757/477/58 564/475/59 533/476/308
f 533/476/308 638/382/309 635/478/310
f 635/478/310 757/477/58 533/476/308
f 638/382/309 636/377/311 635/478/310
f 550/479/57 757/477/58 635/478/310
f 635/478/310 636/377/311 634/375/312
f 548/480/313 550/479/57 635/478/310
f 548/480/313 635/478/310 634/375/312
f 549/481/60 550/479/57 548/480/313
f 554/482/314 548/480/313 634/375/312
f 554/482/314 549/481/60 548/480/313
f 633/376/315 554/482/314 634/375/312
f 424/483/62 549/481/60 554/482/314
f 554/482/314 633/376/315 522/378/316
f 422/484/317 424/483/62 554/482/314
f 422/484/317 554/482/314 522/378/316
f 423/485/64 424/483/62 422/484/317
f 422/484/317 522/378/316 521/486/318
f 521/486/318 423/485/64 422/484/317
f 522/378/316 523/380/319 521/486/318
f 521/486/318 523/380/319 624/388/320
f 521/486/318 630/487/321 423/485/64
f 630/487/321 521/486/318 624/388/320
f 630/487/321 747/488/66 423/485/64
f 630/487/321 624/388/320 513/389/322
f 500/489/68 747/488/66 630/487/321
f 514/490/323 630/487/321 513/389/322
f 514/490/323 500/489/68 630/487/321
f 501/491/324 514/490/323 513/389/322
f 514/490/323 501/491/324 500/489/68
f 527/393/325 501/491/324 513/389/322
f 501/491/324 419/492/70 500/489/68
f 501/491/324 527/393/325 420/493/326
f 501/491/324 420/493/326 419/492/70
f 420/493/326 421/494/71 419/492/70
f 527/393/325 528/398/327 420/493/326
f 616/495/72 421/494/71 420/493/326
f 420/493/326 528/398/327 614/496/328
f 614/496/328 616/495/72 420/493/326
f 615/497/73 616/495/72 614/496/328
f 528/398/327 474/407/329 614/496/328
f 473/498/330 615/497/73 614/496/328
f 614/496/328 474/407/329 473/498/330
f 474/407/329 475/408/331 473/498/330
f 433/452/91 434/453/92 432/414/93
f 449/416/94 433/452/91 432/414/93
f 432/414/93 434/453/92 457/412/332
f 433/452/91 449/416/94 448/448/96
f 434/453/92 458/458/333 457/412/332
f 457/412/332 458/458/333 468/459/334
f 820/409/335 457/412/332 468/459/334
f 449/416/94 450/418/100 448/448/96
f 448/448/96 450/418/100 467/367/101
f 450/418/100 463/420/102 467/367/101
f 467/367/101 463/420/102 462/366/103
f 463/420/102 464/422/104 462/366/103
f 462/366/103 464/422/104 465/363/105
f 464/422/104 466/424/106 465/363/105
f 465/363/105 466/424/106 445/369/107
f 466/424/106 471/426/108 445/369/107
f 471/426/108 446/428/109 445/369/107
f 446/428/109 447/372/110 445/369/107
f 446/428/109 469/429/111 447/372/110
f 469/429/111 470/384/112 447/372/110
f 444/386/336 470/384/112 469/429/111
f 442/432/337 444/386/336 469/429/111
f 443/391/338 444/386/336 442/432/337
f 819/433/338 443/391/338 442/432/337
f 819/433/338 722/436/339 443/391/338
f 722/436/339 451/395/340 443/391/338
f 722/436/339 452/438/341 451/395/340
f 452/438/341 453/400/120 451/395/340
f 452/438/341 472/440/342 453/400/120
f 472/440/342 454/402/343 453/400/120
f 472/440/342 455/442/123 454/402/343
f 455/442/123 456/403/124 454/402/343
f 436/499/183 437/500/60 435/501/60
f 435/501/60 437/500/60 718/502/126
f 437/500/60 713/503/126 718/502/126
f 718/502/126 713/503/126 712/504/128
f 713/503/126 703/505/128 712/504/128
f 712/504/128 703/505/128 702/506/84
f 703/505/128 704/507/84 702/506/84
f 702/506/84 704/507/84 705/508/131
f 704/507/84 706/509/131 705/508/131
f 705/508/131 706/509/131 719/510/70
f 723/511/70 705/508/131 719/510/70
f 723/511/70 719/510/70 715/512/133
f 714/513/133 723/511/70 715/512/133
f 714/513/133 715/512/133 488/514/136
f 821/515/136 714/513/133 488/514/136
f 821/515/136 488/514/136 487/516/137
f 488/514/136 489/517/137 487/516/137
f 460/477/344 461/479/345 459/518/346
f 587/519/347 460/477/344 459/518/346
f 459/518/346 461/479/345 613/520/348
f 460/477/344 587/519/347 586/521/349
f 461/479/345 600/481/350 613/520/348
f 602/475/351 460/477/344 586/521/349
f 613/520/348 600/481/350 597/522/352
f 602/475/351 586/521/349 588/523/353
f 600/481/350 601/483/354 597/522/352
f 590/473/355 602/475/351 588/523/353
f 601/483/354 598/485/356 597/522/352
f 589/471/357 590/473/355 588/523/353
f 598/485/356 599/524/358 597/522/352
f 606/525/359 589/471/357 588/523/353
f 598/485/356 545/488/360 599/524/358
f 589/471/357 606/525/359 605/465/361
f 545/488/360 547/526/362 599/524/358
f 606/525/359 607/527/363 605/465/361
f 546/528/364 547/526/362 545/488/360
f 605/465/361 607/527/363 595/529/365
f 823/489/366 546/528/364 545/488/360
f 826/466/367 605/465/361 595/529/365
f 826/466/367 595/529/365 594/468/368
f 595/529/365 596/530/369 594/468/368
f 823/489/366 603/492/370 546/528/364
f 603/492/370 604/531/370 546/528/364
f 593/532/371 604/531/370 603/492/370
f 591/494/371 593/532/371 603/492/370
f 592/533/372 593/532/371 591/494/371
f 608/495/373 592/533/372 591/494/371
f 609/534/374 592/533/372 608/495/373
f 827/497/375 609/534/374 608/495/373
f 491/535/81 492/536/60 490/537/60
f 571/538/81 491/535/81 490/537/60
f 490/537/60 492/536/60 617/539/82
f 572/540/80 491/535/81 571/538/81
f 492/536/60 558/541/82 617/539/82
f 825/542/80 572/540/80 571/538/81
f 617/539/82 558/541/82 557/543/83
f 825/542/80 748/544/79 572/540/80
f 558/541/82 559/545/83 557/543/83
f 748/544/79 749/546/79 572/540/80
f 557/543/83 559/545/83 762/547/84
f 553/548/78 749/546/79 748/544/79
f 559/545/83 761/549/84 762/547/84
f 551/550/78 553/548/78 748/544/79
f 762/547/84 761/549/84 758/551/85
f 552/552/77 553/548/78 551/550/78
f 761/549/84 759/553/85 758/551/85
f 750/554/77 552/552/77 551/550/78
f 758/551/85 759/553/85 562/555/376
f 751/556/76 552/552/77 750/554/77
f 824/557/376 758/551/85 562/555/376
f 752/558/76 751/556/76 750/554/77
f 824/557/376 562/555/376 561/559/87
f 650/560/74 751/556/76 752/558/76
f 562/555/376 563/561/87 561/559/87
f 648/562/74 650/560/74 752/558/76
f 649/563/75 650/560/74 648/562/74
f 829/564/75 649/563/75 648/562/74
f 561/559/87 563/561/87 756/565/88
f 563/561/87 754/566/88 756/565/88
f 756/565/88 754/566/88 753/567/90
f 754/566/88 755/568/90 753/567/90
f 537/537/377 538/500/378 536/499/379
f 674/538/379 537/537/377 536/499/379
f 537/537/377 697/539/380 538/500/378
f 674/538/379 536/499/379 673/569/381
f 697/539/380 698/503/382 538/500/378
f 739/542/383 674/538/379 673/569/381
f 697/539/380 666/543/384 698/503/382
f 739/542/383 673/569/381 678/570/385
f 666/543/384 668/505/386 698/503/382
f 677/544/387 739/542/383 678/570/385
f 667/507/388 668/505/386 666/543/384
f 677/544/387 678/570/385 676/571/389
f 682/547/149 667/507/388 666/543/384
f 684/550/390 677/544/387 676/571/389
f 663/509/153 667/507/388 682/547/149
f 683/554/391 684/550/390 676/571/389
f 830/551/392 663/509/153 682/547/149
f 731/572/393 683/554/391 676/571/389
f 830/551/392 664/557/394 663/509/153
f 683/554/391 731/572/393 730/558/395
f 664/557/394 665/510/396 663/509/153
f 731/572/393 732/573/397 730/558/395
f 664/557/394 689/559/398 665/510/396
f 730/558/395 732/573/397 745/562/163
f 689/559/398 690/512/398 665/510/396
f 732/573/397 728/574/165 745/562/163
f 745/562/163 728/574/165 727/564/166
f 728/574/165 729/575/167 727/564/166
f 736/514/164 690/512/398 689/559/398
f 834/565/168 736/514/164 689/559/398
f 834/565/168 740/567/169 736/514/164
f 740/567/169 741/517/170 736/514/164
f 611/419/399 612/576/400 610/577/401
f 828/421/402 611/419/399 610/577/401
f 611/419/399 743/417/403 612/576/400
f 828/421/402 610/577/401 687/423/404
f 743/417/403 744/578/405 612/576/400
f 610/577/401 688/579/406 687/423/404
f 743/417/403 746/415/407 744/578/405
f 687/423/404 688/579/406 695/425/191
f 746/415/407 735/580/408 744/578/405
f 688/579/406 696/501/193 695/425/191
f 746/415/407 670/413/409 735/580/408
f 695/425/191 696/501/193 694/502/195
f 670/413/409 672/581/410 735/580/408
f 734/427/197 695/425/191 694/502/195
f 671/582/202 672/581/410 670/413/409
f 680/430/199 734/427/197 694/502/195
f 685/411/204 671/582/202 670/413/409
f 686/583/205 671/582/202 685/411/204
f 831/410/206 686/583/205 685/411/204
f 681/504/201 680/430/199 694/502/195
f 680/430/199 681/504/201 679/506/411
f 738/431/207 680/430/199 679/506/411
f 738/431/207 679/506/411 737/508/412
f 742/434/412 738/431/207 737/508/412
f 726/435/210 742/434/412 737/508/412
f 724/511/209 726/435/210 737/508/412
f 725/437/211 726/435/210 724/511/209
f 733/513/212 725/437/211 724/511/209
f 692/439/213 725/437/211 733/513/212
f 693/515/214 692/439/213 733/513/212
f 692/439/213 693/515/214 691/516/215
f 832/441/216 692/439/213 691/516/215
f 621/579/182 622/577/127 620/569/127
f 818/499/413 621/579/182 620/569/127
f 621/579/182 818/499/413 435/501/60
f 620/569/127 622/577/127 721/570/129
f 622/577/127 716/576/129 721/570/129
f 721/570/129 716/576/129 710/571/130
f 716/576/129 717/578/130 710/571/130
f 717/578/130 711/580/132 710/571/130
f 711/580/132 708/572/132 710/571/130
f 711/580/132 709/581/65 708/572/132
f 709/581/65 699/573/65 708/572/132
f 709/581/65 700/582/134 699/573/65
f 700/582/134 701/574/134 699/573/65
f 707/575/135 701/574/134 700/582/134
f 833/583/135 707/575/135 700/582/134
f 642/584/414 643/585/415 641/586/416
f 658/587/417 642/584/414 641/586/416
f 641/586/416 643/585/415 656/588/418
f 641/586/416 656/588/418 658/587/417
f 643/585/415 768/589/419 656/588/418
f 642/584/414 658/587/417 763/590/222
f 656/588/418 768/589/419 767/591/420
f 768/589/419 769/592/421 767/591/420
f 767/591/420 769/592/421 770/593/422
f 767/591/420 770/593/422 656/588/418
f 769/592/421 771/594/423 770/593/422
f 770/593/422 771/594/423 772/595/424
f 770/593/422 657/596/425 656/588/418
f 657/596/425 770/593/422 772/595/424
f 657/596/425 658/587/417 656/588/418
f 657/596/425 772/595/424 765/597/426
f 764/598/427 657/596/425 765/597/426
f 764/598/427 658/587/417 657/596/425
f 764/598/427 765/597/426 763/590/222
f 766/599/428 658/587/417 764/598/427
f 766/599/428 764/598/427 763/590/222
f 658/587/417 766/599/428 763/590/222
