# Blender 3.6.5
# www.blender.org
o dotsS
v -0.000435 0.032808 0.017510
v -0.000890 0.033003 0.017008
v -0.000587 0.032607 0.017008
v 0.000652 0.033640 0.017510
v 0.000949 0.033243 0.017008
v 0.000883 0.033736 0.017008
v 0.000089 0.034073 0.017510
v -0.000371 0.034255 0.017008
v -0.000274 0.034026 0.017510
v 0.000560 0.032938 0.017510
v 0.000700 0.033277 0.017510
v -0.000707 0.033462 0.017510
v -0.000658 0.033097 0.017510
v 0.000428 0.033932 0.017510
v 0.000122 0.034321 0.017008
v 0.000268 0.032714 0.017510
v 0.000758 0.032784 0.017008
v -0.000765 0.033953 0.017008
v -0.000955 0.033494 0.017008
v 0.000581 0.034130 0.017008
v -0.000095 0.032667 0.017510
v 0.000364 0.032482 0.017008
v -0.000566 0.033802 0.017510
v -0.000128 0.032417 0.017008
v 0.000428 0.046707 0.017510
v 0.000883 0.046511 0.017008
v 0.000581 0.046908 0.017008
v -0.000658 0.045875 0.017510
v -0.000955 0.046271 0.017008
v -0.000890 0.045778 0.017008
v 0.000268 0.045489 0.017510
v -0.000128 0.045194 0.017008
v 0.000364 0.045259 0.017008
v -0.000566 0.046577 0.017510
v -0.000707 0.046237 0.017510
v 0.000652 0.046417 0.017510
v 0.000949 0.046021 0.017008
v 0.000700 0.046052 0.017510
v -0.000435 0.045583 0.017510
v -0.000095 0.045442 0.017510
v -0.000274 0.046801 0.017510
v -0.000765 0.046730 0.017008
v 0.000758 0.045562 0.017008
v -0.000587 0.045385 0.017008
v 0.000089 0.046848 0.017510
v -0.000371 0.047033 0.017008
v 0.000560 0.045713 0.017510
v 0.000122 0.047096 0.017008
vn -0.8268 -0.3420 0.4466
vn -0.5448 -0.7084 0.4488
vn -0.3552 -0.4621 0.8126
vn -0.5395 -0.2246 0.8115
vn -0.5788 0.0763 0.8119
vn -0.8872 0.1160 0.4467
vn -0.7105 0.5447 0.4456
vn -0.4634 0.3555 0.8117
vn -0.2231 0.5407 0.8111
vn -0.3430 0.8271 0.4452
vn -0.0764 -0.5772 0.8130
vn -0.1163 -0.8855 0.4498
vn 0.3417 -0.8260 0.4482
vn 0.5787 -0.0756 0.8121
vn 0.2227 -0.5392 0.8122
vn 0.7092 -0.5447 0.4476
vn 0.4628 -0.3545 0.8125
vn 0.8868 -0.1167 0.4472
vn 0.5389 0.2233 0.8122
vn 0.8263 0.3428 0.4468
vn 0.0768 0.5790 0.8117
vn 0.1168 0.8873 0.4462
vn 0.3554 0.4629 0.8120
vn 0.5449 0.7097 0.4466
vn 0.8266 0.3424 0.4467
vn 0.5440 0.7091 0.4486
vn 0.3548 0.4619 0.8129
vn 0.5392 0.2253 0.8115
vn 0.8872 -0.1162 0.4465
vn 0.5787 -0.0764 0.8119
vn 0.7104 -0.5450 0.4454
vn 0.0767 0.5781 0.8124
vn 0.1169 0.8873 0.4461
vn -0.3410 0.8266 0.4478
vn 0.4634 -0.3555 0.8117
vn 0.2235 -0.5403 0.8112
vn 0.3431 -0.8276 0.4442
vn -0.5787 0.0756 0.8121
vn -0.2227 0.5391 0.8123
vn -0.7093 0.5444 0.4478
vn -0.4627 0.3545 0.8125
vn -0.8868 0.1167 0.4472
vn -0.5390 -0.2227 0.8123
vn -0.8266 -0.3426 0.4465
vn -0.1171 -0.8876 0.4455
vn -0.3559 -0.4631 0.8117
vn -0.5450 -0.7101 0.4459
vn -0.0770 -0.5786 0.8120
vt 1.883789 0.981445
vt 1.884766 0.981445
vt 1.884766 0.982910
vt 1.883789 0.982910
vt 1.882812 0.982910
vt 1.881836 0.981934
vt 1.881836 0.983398
vt 1.882812 0.983398
vt 1.882812 0.984375
vt 1.881836 0.984375
vt 1.885742 0.982422
vt 1.886719 0.983398
vt 1.884766 0.984863
vt 1.884766 0.983887
vt 1.886719 0.984863
vt 1.884766 0.984375
vt 1.885742 0.985840
vt 1.883789 0.984863
vt 1.884766 0.986328
vt 1.882812 0.984863
vt 1.881836 0.985840
vt 1.882812 0.986328
vt 0.883789 0.981445
vt 0.884766 0.981445
vt 0.884766 0.982910
vt 0.883789 0.982910
vt 0.882324 0.981934
vt 0.883301 0.982910
vt 0.881836 0.983398
vt 0.886230 0.982422
vt 0.886719 0.983398
vt 0.883301 0.983398
vt 0.883301 0.984375
vt 0.881836 0.984375
vt 0.884766 0.984863
vt 0.885254 0.983887
vt 0.886719 0.984863
vt 0.885254 0.984375
vt 0.886230 0.985840
vt 0.884277 0.984863
vt 0.884766 0.986328
vt 0.882324 0.985840
vt 0.883789 0.984863
vt 0.883301 0.986328
vt 0.883301 0.984863
s 1
f 2/1/1 3/2/2 1/3/3
f 13/4/4 2/1/1 1/3/3
f 2/1/1 13/4/4 12/5/5
f 13/4/4 1/3/3 12/5/5
f 19/6/6 2/1/1 12/5/5
f 18/7/7 19/6/6 12/5/5
f 23/8/8 18/7/7 12/5/5
f 12/5/5 1/3/3 23/8/8
f 18/7/7 23/8/8 9/9/9
f 23/8/8 1/3/3 9/9/9
f 8/10/10 18/7/7 9/9/9
f 1/3/3 3/2/2 21/3/11
f 3/2/2 24/11/12 21/3/11
f 24/11/12 22/12/13 21/3/11
f 21/3/11 11/13/14 1/3/3
f 9/9/9 1/3/3 11/13/14
f 22/12/13 16/14/15 21/3/11
f 16/14/15 11/13/14 21/3/11
f 22/12/13 17/15/16 16/14/15
f 17/15/16 10/16/17 16/14/15
f 10/16/17 11/13/14 16/14/15
f 17/15/16 5/17/18 10/16/17
f 5/17/18 11/13/14 10/16/17
f 11/13/14 5/17/18 4/18/19
f 4/18/19 9/9/9 11/13/14
f 5/17/18 6/19/20 4/18/19
f 8/10/10 9/9/9 7/20/21
f 15/21/22 8/10/10 7/20/21
f 14/18/23 9/9/9 4/18/19
f 4/18/19 6/19/20 14/18/23
f 7/20/21 9/9/9 14/18/23
f 15/21/22 7/20/21 14/18/23
f 6/19/20 20/22/24 14/18/23
f 20/22/24 15/21/22 14/18/23
f 26/23/25 27/24/26 25/25/27
f 36/26/28 26/23/25 25/25/27
f 37/27/29 26/23/25 36/26/28
f 38/28/30 37/27/29 36/26/28
f 36/26/28 25/25/27 38/28/30
f 43/29/31 37/27/29 38/28/30
f 25/25/27 27/24/26 45/25/32
f 27/24/26 48/30/33 45/25/32
f 48/30/33 46/31/34 45/25/32
f 47/32/35 43/29/31 38/28/30
f 43/29/31 47/32/35 31/33/36
f 47/32/35 38/28/30 31/33/36
f 33/34/37 43/29/31 31/33/36
f 25/25/27 35/35/38 38/28/30
f 45/25/32 35/35/38 25/25/27
f 38/28/30 35/35/38 31/33/36
f 46/31/34 41/36/39 45/25/32
f 41/36/39 35/35/38 45/25/32
f 46/31/34 42/37/40 41/36/39
f 42/37/40 34/38/41 41/36/39
f 34/38/41 35/35/38 41/36/39
f 42/37/40 29/39/42 34/38/41
f 29/39/42 35/35/38 34/38/41
f 35/35/38 29/39/42 28/40/43
f 28/40/43 31/33/36 35/35/38
f 29/39/42 30/41/44 28/40/43
f 32/42/45 33/34/37 31/33/36
f 28/40/43 30/41/44 39/43/46
f 39/43/46 31/33/36 28/40/43
f 30/41/44 44/44/47 39/43/46
f 44/44/47 32/42/45 39/43/46
f 40/45/48 31/33/36 39/43/46
f 32/42/45 40/45/48 39/43/46
f 40/45/48 32/42/45 31/33/36
