# Blender 3.6.5
# www.blender.org
o dotsL
v -0.015518 -0.004922 -0.187049
v -0.014754 -0.005183 -0.186427
v -0.014705 -0.004816 -0.187049
v -0.015119 -0.007956 -0.187049
v -0.015651 -0.007348 -0.186427
v -0.015876 -0.007643 -0.187049
v -0.014174 -0.005423 -0.186427
v -0.013948 -0.005129 -0.187049
v -0.013449 -0.005781 -0.187049
v -0.013792 -0.005921 -0.186427
v -0.013710 -0.006545 -0.186427
v -0.013342 -0.006592 -0.187049
v -0.014448 -0.007507 -0.186427
v -0.015070 -0.007588 -0.186427
v -0.013655 -0.007351 -0.187049
v -0.013950 -0.007124 -0.186427
v -0.016032 -0.006850 -0.186427
v -0.016375 -0.006991 -0.187049
v -0.014306 -0.007849 -0.187049
v -0.016482 -0.006180 -0.187049
v -0.016115 -0.006227 -0.186427
v -0.016169 -0.005421 -0.187049
v -0.015874 -0.005648 -0.186427
v -0.015376 -0.005264 -0.186427
v -0.014754 -0.005183 -0.232039
v -0.015518 -0.004922 -0.231423
v -0.014705 -0.004816 -0.231423
v -0.015876 -0.007643 -0.231423
v -0.015070 -0.007588 -0.232039
v -0.015119 -0.007956 -0.231423
v -0.013948 -0.005129 -0.231423
v -0.013792 -0.005921 -0.232039
v -0.013449 -0.005781 -0.231423
v -0.013710 -0.006545 -0.232039
v -0.013342 -0.006592 -0.231423
v -0.014448 -0.007507 -0.232039
v -0.014306 -0.007849 -0.231423
v -0.013950 -0.007124 -0.232039
v -0.013655 -0.007351 -0.231423
v -0.016375 -0.006991 -0.231423
v -0.015651 -0.007348 -0.232039
v -0.016482 -0.006180 -0.231423
v -0.016032 -0.006850 -0.232039
v -0.016169 -0.005421 -0.231423
v -0.016115 -0.006227 -0.232039
v -0.015376 -0.005264 -0.232039
v -0.014174 -0.005423 -0.232039
v -0.015874 -0.005648 -0.232039
v -0.016299 0.011572 -0.234266
v -0.018200 0.012717 -0.236101
v -0.017689 0.013385 -0.234266
v -0.020949 0.005513 -0.234256
v -0.022547 0.007052 -0.236096
v -0.020839 0.006345 -0.236096
v -0.023058 0.006387 -0.234256
v -0.023671 0.008518 -0.236096
v -0.024448 0.008197 -0.234256
v -0.023913 0.010351 -0.236096
v -0.018686 0.005810 -0.234256
v -0.019007 0.006588 -0.236096
v -0.016001 0.009308 -0.234266
v -0.017525 0.007704 -0.236096
v -0.016834 0.009417 -0.236101
v -0.019798 0.014256 -0.234261
v -0.021739 0.013184 -0.236096
v -0.022061 0.013958 -0.234256
v -0.016856 0.007193 -0.234261
v -0.024745 0.010461 -0.234256
v -0.023205 0.012057 -0.236096
v -0.019907 0.013424 -0.236096
v -0.017075 0.011251 -0.236101
v -0.023872 0.012568 -0.234256
v -0.016221 0.011838 -0.018510
v -0.014856 0.012370 -0.018510
v -0.016037 0.012370 -0.018510
v -0.016037 0.009936 -0.018510
v -0.014856 0.009936 -0.018510
v -0.016221 0.010474 -0.018510
v -0.016037 0.012370 -0.022286
v -0.014856 0.012370 -0.022286
v -0.016221 0.011838 -0.022286
v -0.016221 0.010474 -0.022286
v -0.014856 0.009936 -0.022286
v -0.016037 0.009936 -0.022286
v -0.014856 0.009524 -0.021875
v -0.015888 0.009524 -0.018921
v -0.015888 0.009524 -0.021875
v -0.014856 0.012782 -0.018921
v -0.015888 0.012782 -0.021875
v -0.015888 0.012782 -0.018921
v -0.016321 0.011155 -0.022286
v -0.016321 0.011155 -0.018510
v -0.016455 0.012401 -0.021875
v -0.016650 0.011838 -0.018921
v -0.016455 0.012401 -0.018921
v -0.016750 0.011155 -0.018921
v -0.016651 0.010474 -0.021875
v -0.016651 0.010474 -0.018921
v -0.016650 0.011838 -0.021875
v -0.016455 0.009905 -0.018921
v -0.015888 0.009524 -0.018921
v -0.015888 0.012782 -0.018921
v -0.016455 0.012401 -0.018921
v -0.016455 0.009905 -0.021875
v -0.015888 0.009524 -0.021875
v -0.016455 0.012401 -0.021875
v -0.015888 0.012782 -0.021875
v -0.016650 0.011838 -0.018921
v -0.016650 0.011838 -0.021875
v -0.016455 0.009905 -0.018921
v -0.016455 0.009905 -0.021875
v -0.014856 0.012782 -0.018921
v -0.014856 0.009524 -0.021875
v -0.016651 0.010474 -0.018921
v -0.016750 0.011155 -0.018921
v -0.016651 0.010474 -0.021875
v -0.016750 0.011155 -0.021875
v 0.016221 0.011838 -0.018510
v 0.016038 0.012370 -0.018510
v 0.014855 0.012370 -0.018510
v 0.016038 0.009936 -0.018510
v 0.016221 0.010474 -0.018510
v 0.014855 0.009936 -0.018510
v 0.016038 0.012370 -0.022286
v 0.016221 0.011838 -0.022286
v 0.014855 0.012370 -0.022286
v 0.016221 0.010474 -0.022286
v 0.016038 0.009936 -0.022286
v 0.014855 0.009936 -0.022286
v 0.015888 0.009524 -0.018921
v 0.014855 0.009524 -0.021875
v 0.015888 0.009524 -0.021875
v 0.015888 0.012782 -0.021875
v 0.014855 0.012782 -0.018921
v 0.015888 0.012782 -0.018921
v 0.016321 0.011155 -0.022286
v 0.016321 0.011155 -0.018510
v 0.016650 0.011838 -0.018921
v 0.016455 0.012401 -0.021875
v 0.016455 0.012401 -0.018921
v 0.016650 0.010474 -0.018921
v 0.016750 0.011155 -0.021875
v 0.016750 0.011155 -0.018921
v 0.016650 0.011838 -0.021875
v 0.016455 0.009905 -0.018921
v 0.015888 0.009524 -0.018921
v 0.016455 0.012401 -0.018921
v 0.015888 0.012782 -0.018921
v 0.016455 0.009905 -0.021875
v 0.015888 0.009524 -0.021875
v 0.015888 0.012782 -0.021875
v 0.016455 0.012401 -0.021875
v 0.016650 0.011838 -0.021875
v 0.016455 0.009905 -0.021875
v 0.014855 0.012782 -0.018921
v 0.014855 0.012782 -0.021875
v 0.014855 0.009524 -0.021875
v 0.014855 0.009524 -0.018921
v 0.016650 0.010474 -0.018921
v 0.016650 0.011838 -0.018921
v 0.016650 0.010474 -0.021875
v 0.016750 0.011155 -0.021875
v 0.016455 0.009905 -0.018921
v 0.016650 0.010474 -0.021875
v -0.014856 0.009524 -0.018921
v -0.014856 0.012782 -0.021875
v -0.016750 0.011155 -0.021875
v -0.014856 0.012782 -0.021875
v -0.014856 0.009524 -0.018921
v 0.014855 0.009524 -0.018921
v 0.014855 0.012782 -0.021875
v 0.016750 0.011155 -0.018921
vn 0.0719 0.5462 0.8346
vn 0.1120 0.8514 0.5125
vn -0.3283 0.7940 0.5117
vn -0.2106 0.5098 0.8341
vn -0.6813 0.5229 0.5123
vn 0.3353 0.4370 0.8346
vn 0.5227 0.6809 0.5130
vn -0.4370 0.3349 0.8348
vn 0.7934 0.3281 0.5127
vn -0.5464 0.0719 0.8344
vn -0.8517 0.1114 0.5121
vn 0.5091 0.2109 0.8345
vn -0.0723 -0.5460 0.8346
vn -0.5089 -0.2108 0.8346
vn -0.7936 -0.3281 0.5123
vn -0.5227 -0.6813 0.5125
vn -0.3356 -0.4371 0.8345
vn -0.1121 -0.8516 0.5120
vn 0.2108 -0.5095 0.8342
vn 0.3286 -0.7940 0.5114
vn 0.6812 -0.5225 0.5128
vn 0.4367 -0.3345 0.8351
vn 0.5459 -0.0721 0.8347
vn 0.8512 -0.1114 0.5129
vn -0.3276 0.7923 -0.5148
vn 0.1117 0.8496 -0.5155
vn 0.0716 0.5446 -0.8356
vn 0.5215 0.6797 -0.5158
vn -0.2099 0.5083 -0.8352
vn -0.6798 0.5218 -0.5153
vn -0.4357 0.3339 -0.8359
vn -0.5449 0.0717 -0.8355
vn -0.8498 0.1111 -0.5152
vn -0.5075 -0.2103 -0.8356
vn -0.7919 -0.3275 -0.5154
vn 0.3341 0.4358 -0.8357
vn 0.5076 0.2101 -0.8356
vn 0.7919 0.3273 -0.5155
vn 0.5445 -0.0721 -0.8357
vn 0.8492 -0.1114 -0.5161
vn 0.4356 -0.3340 -0.8359
vn 0.6792 -0.5213 -0.5166
vn 0.3282 -0.7919 -0.5150
vn 0.2108 -0.5081 -0.8351
vn -0.1118 -0.8498 -0.5151
vn -0.3347 -0.4359 -0.8355
vn -0.5217 -0.6798 -0.5155
vn -0.0720 -0.5444 -0.8357
vn 0.3621 0.4733 -0.8030
vn 0.5529 0.7218 -0.4163
vn 0.8402 0.3479 -0.4160
vn 0.0774 0.5931 -0.8014
vn 0.1174 0.9020 -0.4155
vn 0.5520 0.2289 -0.8018
vn -0.2293 0.5530 -0.8010
vn -0.3489 0.8403 -0.4149
vn -0.4747 0.3642 -0.8012
vn -0.7217 0.5537 -0.4153
vn -0.9019 0.1190 -0.4152
vn -0.0781 -0.5935 -0.8010
vn -0.5934 0.0783 -0.8011
vn -0.8404 -0.3482 -0.4154
vn -0.5527 -0.2291 -0.8013
vn -0.5539 -0.7218 -0.4149
vn -0.3644 -0.4749 -0.8010
vn -0.1189 -0.9021 -0.4149
vn 0.3445 -0.8419 -0.4153
vn 0.2263 -0.5536 -0.8015
vn 0.5919 -0.0756 -0.8024
vn 0.9020 -0.1155 -0.4160
vn 0.4764 -0.3668 -0.7991
vn 0.7207 -0.5538 -0.4170
vn -0.0000 0.3822 0.9241
vn -0.2925 0.4095 0.8642
vn -0.3869 0.0986 0.9168
vn -0.1653 0.7260 0.6675
vn -0.0000 0.7063 0.7079
vn -0.6220 0.4144 0.6643
vn -0.6830 0.1594 0.7128
vn -0.4014 -0.0000 0.9159
vn -0.6913 0.0002 0.7226
vn -0.6825 -0.1588 0.7134
vn -0.0000 -0.3822 0.9241
vn -0.3863 -0.0980 0.9172
vn -0.6221 -0.4135 0.6648
vn -0.2930 -0.4091 0.8642
vn -0.1653 -0.7260 0.6675
vn -0.0000 -0.7063 0.7079
vn -0.0000 0.3822 -0.9241
vn -0.3869 0.0986 -0.9168
vn -0.2925 0.4095 -0.8641
vn -0.1653 0.7260 -0.6675
vn -0.0000 0.7063 -0.7079
vn -0.6221 0.4144 -0.6643
vn -0.6830 0.1594 -0.7128
vn -0.4014 -0.0000 -0.9159
vn -0.6913 0.0002 -0.7225
vn -0.6825 -0.1588 -0.7134
vn -0.0000 -0.3822 -0.9241
vn -0.3863 -0.0980 -0.9172
vn -0.6222 -0.4135 -0.6648
vn -0.2930 -0.4091 -0.8642
vn -0.1653 -0.7260 -0.6675
vn -0.0000 -0.7063 -0.7079
vn -0.2911 -0.9567 -0.0000
vn -0.0000 -1.0000 -0.0000
vn -0.7928 -0.6095 -0.0000
vn -0.9718 -0.2359 -0.0000
vn -1.0000 0.0003 -0.0000
vn -0.9715 0.2369 -0.0000
vn -0.7923 0.6101 -0.0000
vn -0.2911 0.9567 -0.0000
vn -0.0000 1.0000 -0.0000
vn 0.2930 0.4094 0.8640
vn 0.3864 0.0987 0.9170
vn 0.6222 0.4145 0.6641
vn 0.1655 0.7260 0.6675
vn 0.6826 0.1597 0.7131
vn 0.4018 -0.0000 0.9157
vn 0.6920 -0.0002 0.7219
vn 0.6832 -0.1590 0.7127
vn 0.3867 -0.0981 0.9170
vn 0.6227 -0.4137 0.6642
vn 0.2933 -0.4092 0.8640
vn 0.1655 -0.7260 0.6675
vn 0.3864 0.0987 -0.9170
vn 0.2930 0.4094 -0.8640
vn 0.6222 0.4145 -0.6641
vn 0.1655 0.7260 -0.6674
vn 0.6826 0.1597 -0.7131
vn 0.4018 -0.0000 -0.9157
vn 0.6920 -0.0002 -0.7219
vn 0.6832 -0.1590 -0.7127
vn 0.3867 -0.0981 -0.9170
vn 0.6227 -0.4137 -0.6641
vn 0.2933 -0.4092 -0.8640
vn 0.1655 -0.7260 -0.6674
vn 0.2914 -0.9566 -0.0000
vn 0.7930 -0.6093 -0.0000
vn 0.9718 -0.2359 -0.0000
vn 1.0000 -0.0003 -0.0000
vn 0.9715 0.2370 -0.0000
vn 0.7921 0.6104 -0.0000
vn 0.2914 0.9566 -0.0000
vt 0.980469 0.140015
vt 0.979980 0.140991
vt 0.979004 0.140259
vt 0.979492 0.139526
vt 0.978516 0.139160
vt 0.980957 0.140015
vt 0.981445 0.140991
vt 0.979492 0.138794
vt 0.982422 0.140381
vt 0.979492 0.138062
vt 0.978516 0.137817
vt 0.981934 0.139648
vt 0.981445 0.136963
vt 0.979492 0.137329
vt 0.979004 0.136597
vt 0.979980 0.135986
vt 0.980469 0.136963
vt 0.981445 0.135986
vt 0.981934 0.137451
vt 0.982422 0.136597
vt 0.983398 0.137817
vt 0.982422 0.138062
vt 0.982422 0.138916
vt 0.983398 0.139160
vt 0.006580 0.855469
vt 0.007744 0.856445
vt 0.007988 0.855469
vt 0.009094 0.856445
vt 0.007317 0.854980
vt 0.005924 0.854492
vt 0.006950 0.854004
vt 0.006950 0.853516
vt 0.005920 0.853027
vt 0.007366 0.852539
vt 0.006592 0.852051
vt 0.008789 0.855469
vt 0.009499 0.854980
vt 0.010269 0.855469
vt 0.009918 0.854004
vt 0.010956 0.854492
vt 0.009933 0.853516
vt 0.010956 0.853027
vt 0.010284 0.852051
vt 0.009552 0.852539
vt 0.009117 0.851074
vt 0.008064 0.852051
vt 0.007763 0.851074
vt 0.008865 0.852051
vt 0.865234 0.985840
vt 0.865723 0.988281
vt 0.862305 0.987793
vt 0.866699 0.984863
vt 0.868164 0.986816
vt 0.863281 0.985840
vt 0.867676 0.983398
vt 0.870117 0.983887
vt 0.867676 0.981445
vt 0.870117 0.980957
vt 0.868652 0.978027
vt 0.861816 0.979492
vt 0.866699 0.979980
vt 0.865723 0.976562
vt 0.865234 0.979004
vt 0.862793 0.976562
vt 0.863281 0.978516
vt 0.859863 0.977539
vt 0.858398 0.980469
vt 0.860840 0.980957
vt 0.861328 0.984863
vt 0.859863 0.986328
vt 0.860840 0.982910
vt 0.858398 0.983398
vt 0.485352 0.528320
vt 0.485352 0.526855
vt 0.485840 0.526855
vt 0.484619 0.526855
vt 0.484619 0.528320
vt 0.485107 0.526367
vt 0.485840 0.526367
vt 0.486572 0.526855
vt 0.486572 0.525879
vt 0.487305 0.526367
vt 0.487793 0.528320
vt 0.487305 0.526855
vt 0.488037 0.526367
vt 0.487793 0.526855
vt 0.488525 0.526855
vt 0.488525 0.528320
vt 0.035736 0.528320
vt 0.035187 0.526855
vt 0.035736 0.526855
vt 0.036346 0.526855
vt 0.036377 0.528320
vt 0.035919 0.526367
vt 0.035278 0.526367
vt 0.034485 0.526855
vt 0.034485 0.525879
vt 0.033722 0.526367
vt 0.033234 0.528320
vt 0.033783 0.526855
vt 0.033051 0.526367
vt 0.033234 0.526855
vt 0.032623 0.526855
vt 0.032593 0.528320
vt 0.664062 0.046997
vt 0.661133 0.046997
vt 0.661133 0.045929
vt 0.664062 0.045929
vt 0.664062 0.047729
vt 0.661133 0.047729
vt 0.664062 0.048340
vt 0.661133 0.048340
vt 0.664062 0.049072
vt 0.661133 0.049072
vt 0.661133 0.049805
vt 0.664062 0.049805
vt 0.661133 0.050415
vt 0.664062 0.050415
vt 0.661133 0.051147
vt 0.664062 0.051147
vt 0.664062 0.052216
vt 0.661133 0.052216
vt 1.485352 0.526855
vt 1.485352 0.528320
vt 1.484375 0.526367
vt 1.484375 0.526855
vt 1.484375 0.528320
vt 1.485352 0.526367
vt 1.486328 0.526855
vt 1.486328 0.525879
vt 1.487305 0.526367
vt 1.487305 0.528320
vt 1.487305 0.526855
vt 1.488281 0.526855
vt 1.488281 0.528320
vt 1.035156 0.526855
vt 1.035156 0.528320
vt 1.035156 0.526367
vt 1.036133 0.526855
vt 1.036133 0.528320
vt 1.034180 0.526855
vt 1.034180 0.525879
vt 1.033203 0.526367
vt 1.033203 0.528320
vt 1.033203 0.526855
vt 1.032227 0.526367
vt 1.032227 0.526855
vt 1.032227 0.528320
vt 1.661133 0.045929
vt 1.661133 0.046997
vt 1.664062 0.046997
vt 1.664062 0.045929
vt 1.661133 0.047729
vt 1.664062 0.047729
vt 1.661133 0.048340
vt 1.664062 0.048340
vt 1.661133 0.049072
vt 1.664062 0.049072
vt 1.661133 0.049805
vt 1.664062 0.049805
vt 1.661133 0.050415
vt 1.664062 0.050415
vt 1.664062 0.051147
vt 1.661133 0.051147
vt 1.664062 0.052216
vt 1.661133 0.052216
s 1
f 2/1/1 3/2/2 1/3/3
f 24/4/4 2/1/1 1/3/3
f 24/4/4 1/3/3 22/5/5
f 2/1/1 7/6/6 3/2/2
f 7/6/6 8/7/7 3/2/2
f 24/4/4 23/8/8 2/1/1
f 23/8/8 24/4/4 22/5/5
f 2/1/1 23/8/8 7/6/6
f 8/7/7 7/6/6 9/9/9
f 21/10/10 23/8/8 22/5/5
f 20/11/11 21/10/10 22/5/5
f 7/6/6 23/8/8 10/12/12
f 7/6/6 10/12/12 9/9/9
f 21/10/10 14/13/13 23/8/8
f 23/8/8 14/13/13 10/12/12
f 17/14/14 21/10/10 20/11/11
f 17/14/14 14/13/13 21/10/10
f 18/15/15 17/14/14 20/11/11
f 17/14/14 18/15/15 6/16/16
f 5/17/17 17/14/14 6/16/16
f 5/17/17 14/13/13 17/14/14
f 5/17/17 6/16/16 4/18/18
f 14/13/13 5/17/17 4/18/18
f 13/19/19 14/13/13 4/18/18
f 19/20/20 13/19/19 4/18/18
f 13/19/19 19/20/20 15/21/21
f 13/19/19 16/22/22 14/13/13
f 16/22/22 13/19/19 15/21/21
f 16/22/22 10/12/12 14/13/13
f 11/23/23 16/22/22 15/21/21
f 11/23/23 10/12/12 16/22/22
f 12/24/24 11/23/23 15/21/21
f 10/12/12 11/23/23 9/9/9
f 11/23/23 12/24/24 9/9/9
f 26/25/25 27/26/26 25/27/27
f 25/27/27 27/26/26 31/28/28
f 46/29/29 26/25/25 25/27/27
f 44/30/30 26/25/25 46/29/29
f 48/31/31 44/30/30 46/29/29
f 46/29/29 25/27/27 48/31/31
f 48/31/31 45/32/32 44/30/30
f 48/31/31 25/27/27 45/32/32
f 45/32/32 42/33/33 44/30/30
f 45/32/32 43/34/34 42/33/33
f 45/32/32 25/27/27 43/34/34
f 43/34/34 40/35/35 42/33/33
f 47/36/36 25/27/27 31/28/28
f 47/36/36 31/28/28 32/37/37
f 47/36/36 32/37/37 25/27/27
f 31/28/28 33/38/38 32/37/37
f 32/37/37 33/38/38 34/39/39
f 33/38/38 35/40/40 34/39/39
f 32/37/37 38/41/41 25/27/27
f 34/39/39 38/41/41 32/37/37
f 34/39/39 35/40/40 38/41/41
f 25/27/27 38/41/41 43/34/34
f 35/40/40 39/42/42 38/41/41
f 38/41/41 39/42/42 37/43/43
f 36/44/44 38/41/41 37/43/43
f 36/44/44 43/34/34 38/41/41
f 36/44/44 37/43/43 30/45/45
f 43/34/34 41/46/46 40/35/35
f 41/46/46 28/47/47 40/35/35
f 29/48/48 43/34/34 36/44/44
f 29/48/48 36/44/44 30/45/45
f 41/46/46 43/34/34 29/48/48
f 29/48/48 30/45/45 28/47/47
f 41/46/46 29/48/48 28/47/47
f 50/49/49 51/50/50 49/51/51
f 50/49/49 70/52/52 51/50/50
f 70/52/52 64/53/53 51/50/50
f 71/54/54 50/49/49 49/51/51
f 50/49/49 71/54/54 70/52/52
f 70/52/52 65/55/55 64/53/53
f 65/55/55 66/56/56 64/53/53
f 65/55/55 69/57/57 66/56/56
f 65/55/55 70/52/52 69/57/57
f 69/57/57 72/58/58 66/56/56
f 72/58/58 69/57/57 68/59/59
f 70/52/52 54/60/60 69/57/57
f 71/54/54 54/60/60 70/52/52
f 69/57/57 58/61/61 68/59/59
f 69/57/57 54/60/60 58/61/61
f 68/59/59 58/61/61 57/62/62
f 58/61/61 56/63/63 57/62/62
f 58/61/61 54/60/60 56/63/63
f 57/62/62 56/63/63 55/64/64
f 56/63/63 53/65/65 55/64/64
f 53/65/65 56/63/63 54/60/60
f 55/64/64 53/65/65 52/66/66
f 53/65/65 54/60/60 52/66/66
f 52/66/66 54/60/60 59/67/67
f 54/60/60 60/68/68 59/67/67
f 63/69/69 54/60/60 71/54/54
f 63/69/69 60/68/68 54/60/60
f 63/69/69 71/54/54 49/51/51
f 61/70/70 63/69/69 49/51/51
f 62/71/71 60/68/68 63/69/69
f 62/71/71 63/69/69 61/70/70
f 60/68/68 62/71/71 59/67/67
f 67/72/72 62/71/71 61/70/70
f 62/71/71 67/72/72 59/67/67
f 74/73/73 75/74/74 73/75/75
f 75/74/74 74/73/73 102/76/76
f 74/73/73 112/77/77 102/76/76
f 102/76/76 103/78/78 75/74/74
f 75/74/74 103/78/78 73/75/75
f 103/78/78 108/79/79 73/75/75
f 74/73/73 73/75/75 92/80/80
f 73/75/75 108/79/79 92/80/80
f 108/79/79 115/81/81 92/80/80
f 115/81/81 114/82/82 92/80/80
f 74/73/73 92/80/80 77/83/83
f 114/82/82 78/84/84 92/80/80
f 92/80/80 78/84/84 77/83/83
f 114/82/82 100/85/85 78/84/84
f 100/85/85 76/86/86 78/84/84
f 77/83/83 78/84/84 76/86/86
f 101/87/87 76/86/86 100/85/85
f 77/83/83 76/86/86 101/87/87
f 169/88/88 77/83/83 101/87/87
f 80/89/89 81/90/90 79/91/91
f 80/89/89 79/91/91 107/92/92
f 168/93/93 80/89/89 107/92/92
f 106/94/94 107/92/92 79/91/91
f 79/91/91 81/90/90 106/94/94
f 81/90/90 109/95/95 106/94/94
f 80/89/89 91/96/96 81/90/90
f 81/90/90 91/96/96 109/95/95
f 91/96/96 117/97/97 109/95/95
f 117/97/97 91/96/96 116/98/98
f 80/89/89 83/99/99 91/96/96
f 91/96/96 82/100/100 116/98/98
f 83/99/99 82/100/100 91/96/96
f 116/98/98 82/100/100 104/101/101
f 82/100/100 84/102/102 104/101/101
f 83/99/99 84/102/102 82/100/100
f 84/102/102 105/103/103 104/101/101
f 84/102/102 83/99/99 105/103/103
f 83/99/99 113/104/104 105/103/103
f 86/105/105 87/106/105 85/107/106
f 165/108/106 86/105/105 85/107/106
f 86/105/105 110/109/107 87/106/105
f 110/109/107 111/110/107 87/106/105
f 111/110/107 110/109/107 98/111/108
f 97/112/108 111/110/107 98/111/108
f 97/112/108 98/111/108 96/113/109
f 167/114/109 97/112/108 96/113/109
f 167/114/109 96/113/109 99/115/110
f 96/113/109 94/116/110 99/115/110
f 99/115/110 94/116/110 93/117/111
f 94/116/110 95/118/111 93/117/111
f 89/119/112 93/117/111 95/118/111
f 90/120/112 89/119/112 95/118/111
f 89/119/112 90/120/112 88/121/113
f 166/122/113 89/119/112 88/121/113
f 119/123/114 120/124/73 118/123/115
f 147/125/116 119/123/114 118/123/115
f 147/125/116 148/126/117 119/123/114
f 119/123/114 148/126/117 120/124/73
f 148/126/117 155/127/77 120/124/73
f 160/128/118 147/125/116 118/123/115
f 160/128/118 118/123/115 137/129/119
f 118/123/115 120/124/73 137/129/119
f 172/130/120 160/128/118 137/129/119
f 172/130/120 137/129/119 159/131/121
f 120/124/73 123/132/83 137/129/119
f 137/129/119 122/133/122 159/131/121
f 123/132/83 122/133/122 137/129/119
f 159/131/121 122/133/122 145/131/123
f 122/133/122 121/133/124 145/131/123
f 122/133/122 123/132/83 121/133/124
f 121/133/124 146/134/125 145/131/123
f 121/133/124 123/132/83 146/134/125
f 123/132/83 158/135/88 146/134/125
f 125/136/126 126/137/89 124/136/127
f 124/136/127 152/138/128 125/136/126
f 151/139/129 152/138/128 124/136/127
f 124/136/127 126/137/89 151/139/129
f 126/137/89 156/140/93 151/139/129
f 152/138/128 153/138/130 125/136/126
f 136/141/131 126/137/89 125/136/126
f 125/136/126 153/138/130 136/141/131
f 153/138/130 162/142/132 136/141/131
f 136/141/131 162/142/132 161/143/133
f 129/144/99 126/137/89 136/141/131
f 127/145/134 136/141/131 161/143/133
f 127/145/134 129/144/99 136/141/131
f 127/145/134 161/143/133 149/146/135
f 128/145/136 127/145/134 149/146/135
f 128/145/136 129/144/99 127/145/134
f 150/147/137 128/145/136 149/146/135
f 128/145/136 150/147/137 129/144/99
f 150/147/137 157/148/104 129/144/99
f 131/149/106 132/150/138 130/151/138
f 170/152/106 131/149/106 130/151/138
f 130/151/138 132/150/138 154/153/139
f 163/154/139 130/151/138 154/153/139
f 154/153/139 164/155/140 163/154/139
f 164/155/140 141/156/140 163/154/139
f 164/155/140 142/157/141 141/156/140
f 142/157/141 143/158/141 141/156/140
f 142/157/141 144/159/142 143/158/141
f 144/159/142 138/160/142 143/158/141
f 144/159/142 139/161/143 138/160/142
f 139/161/143 140/162/143 138/160/142
f 135/163/144 140/162/143 139/161/143
f 133/164/144 135/163/144 139/161/143
f 134/165/113 135/163/144 133/164/144
f 171/166/113 134/165/113 133/164/144
