# Blender 3.6.5
# www.blender.org
o magE
v -0.012616 0.004665 -0.090175
v -0.012922 0.004665 -0.089620
v -0.013386 0.004665 -0.091733
v -0.015162 -0.017971 -0.126690
v -0.014478 -0.017383 -0.091083
v -0.014480 -0.017386 -0.127034
v -0.015698 -0.024038 -0.130638
v -0.015698 -0.038817 -0.089707
v -0.015698 -0.022704 -0.128583
v -0.011808 -0.023046 -0.154048
v -0.012771 -0.021280 -0.151906
v -0.010815 -0.021291 -0.153015
v -0.013811 -0.037206 -0.085717
v -0.015191 -0.019231 -0.087407
v -0.015192 -0.038409 -0.087403
v -0.014801 -0.033133 -0.150516
v 0.012001 -0.032816 -0.153649
v 0.014801 -0.033133 -0.150516
v -0.012194 -0.031943 -0.154447
v 0.012190 -0.024522 -0.154447
v 0.012194 -0.031943 -0.154447
v -0.014189 -0.024522 -0.153424
v -0.012190 -0.024522 -0.154447
v -0.014192 -0.032022 -0.153423
v -0.015499 -0.024522 -0.151646
v -0.012771 -0.021280 -0.151906
v -0.015101 -0.023060 -0.151228
v -0.014029 -0.021276 -0.150104
v -0.015500 -0.032187 -0.151647
v -0.015698 -0.024522 -0.149505
v -0.012389 0.011740 -0.151498
v -0.010436 -0.019821 -0.152621
v -0.012389 -0.019821 -0.151498
v -0.015312 -0.023039 -0.149103
v -0.014325 -0.021295 -0.148076
v -0.015307 -0.023031 -0.132907
v -0.014329 -0.021302 -0.133290
v -0.015142 -0.018846 -0.127789
v -0.014495 -0.019431 -0.128788
v -0.015157 -0.020117 -0.128454
v -0.012615 0.004136 -0.103870
v -0.013386 0.003431 -0.104669
v -0.012615 0.003431 -0.104669
v -0.009636 -0.001939 -0.087064
v -0.012053 -0.016126 -0.087683
v -0.009636 -0.016126 -0.087064
v -0.009638 0.006792 -0.087064
v -0.009638 0.005224 -0.087064
v -0.007235 0.006792 -0.087064
v 0.014279 -0.039236 -0.087403
v -0.013418 -0.038499 -0.086367
v -0.014279 -0.039236 -0.087403
v -0.011923 -0.036188 -0.085099
v -0.013807 -0.019231 -0.085718
v -0.011385 -0.017976 -0.085693
v -0.012580 -0.017379 -0.087092
v -0.013279 -0.017978 -0.086308
v -0.014662 -0.017977 -0.088000
v -0.013966 -0.017380 -0.088781
v -0.015165 -0.017974 -0.090313
v -0.012616 0.004665 -0.102469
v -0.013386 0.004665 -0.102469
v 0.010691 -0.017380 -0.086471
v -0.009636 -0.016126 -0.087064
v -0.010691 -0.017380 -0.086471
v -0.013437 -0.016126 -0.089372
v -0.013945 -0.001939 -0.091675
v -0.013945 -0.016126 -0.091680
v -0.015698 -0.019231 -0.089715
v 0.011385 -0.017976 -0.085693
v -0.011377 0.004106 -0.088760
v -0.012056 -0.000822 -0.090294
v -0.011376 -0.000822 -0.088760
v -0.005484 0.004776 -0.087064
v -0.014376 -0.021280 -0.131626
v -0.015195 -0.021551 -0.129447
v -0.014457 -0.020711 -0.129877
v -0.011734 0.004665 -0.088256
v -0.013636 0.011735 -0.149692
v -0.013636 -0.019821 -0.149691
v -0.013945 0.011725 -0.147682
v -0.013945 -0.019821 -0.147680
v -0.012615 -0.001381 -0.102469
v -0.013386 -0.001381 -0.091735
v -0.012615 -0.001381 -0.090175
v -0.012615 -0.000147 -0.104669
v -0.013386 -0.000851 -0.103870
v -0.012615 -0.000851 -0.103870
v -0.011915 -0.019231 -0.085100
v 0.011915 -0.019231 -0.085100
v -0.012057 0.004106 -0.103058
v -0.012057 0.001643 -0.104449
v -0.012057 -0.000822 -0.103058
v -0.012615 0.001643 -0.105019
v -0.013386 -0.000147 -0.104669
v -0.010493 0.004106 -0.087520
v -0.010492 -0.000822 -0.087520
v -0.013386 0.001643 -0.105019
v -0.010193 0.010523 -0.091145
v -0.010387 -0.014403 -0.092030
v -0.010198 0.012234 -0.092934
v -0.013048 0.011947 -0.091185
v -0.010838 0.010887 -0.090495
v -0.011036 0.011789 -0.091392
v -0.009932 0.012245 -0.146767
v -0.009065 -0.014403 -0.148369
v -0.008930 0.012258 -0.148336
v -0.010029 0.019274 -0.148567
v -0.013214 0.013301 -0.149761
v -0.013520 0.013297 -0.147778
v -0.009743 0.009408 -0.090379
v -0.010193 -0.014403 -0.091145
v 0.002536 0.011006 -0.150105
v -0.002536 0.011006 -0.151821
v -0.002536 0.011006 -0.150105
v -0.009756 0.019271 -0.150324
v -0.012002 0.013311 -0.151527
v -0.012719 0.010438 -0.089680
v -0.010224 0.009787 -0.089685
v -0.013521 0.013296 -0.093553
v -0.010029 0.019275 -0.100035
v -0.010029 0.019275 -0.105270
v -0.008893 0.019260 -0.151760
v -0.010121 0.013317 -0.152621
v -0.009881 0.008145 -0.087698
v -0.009121 0.009400 -0.089365
v -0.006851 0.019284 -0.103599
v -0.010173 0.012235 -0.098105
v -0.007634 0.008145 -0.087699
v -0.007634 0.009400 -0.089364
v -0.002695 0.010206 -0.149306
v 0.002695 0.010206 -0.149306
v 0.010436 -0.019821 -0.152621
v -0.010436 -0.019821 -0.152621
v -0.007300 0.012268 -0.149274
v -0.006603 0.019246 -0.147775
v -0.008693 0.020000 -0.149820
v -0.006642 0.020000 -0.149125
v -0.007936 0.020000 -0.151117
v -0.006832 0.019274 -0.146540
v -0.007376 -0.014403 -0.149306
v -0.010106 -0.014403 -0.146780
v -0.007028 0.020000 -0.148331
v -0.008935 0.020000 -0.148201
v -0.007207 0.020000 -0.147009
v -0.008931 0.019999 -0.105282
v -0.007210 0.019999 -0.104351
v -0.004275 0.011727 -0.150105
v -0.009062 0.019457 -0.099136
v -0.010947 0.012932 -0.092514
v -0.007627 0.019434 -0.099159
v -0.008834 0.009004 -0.089993
v -0.009743 -0.014403 -0.090379
v -0.013439 0.009390 -0.089368
v -0.013945 0.005224 -0.091672
v -0.013438 0.005224 -0.089369
v -0.006969 0.020000 -0.151776
v -0.005742 0.020000 -0.149731
v -0.005742 0.020000 -0.151778
v -0.004275 0.011727 -0.151821
v -0.004942 0.013465 -0.150105
v -0.004942 0.019200 -0.151821
v -0.004942 0.013465 -0.151821
v -0.006876 0.007958 -0.087737
v -0.005713 0.007491 -0.089321
v -0.006876 0.009151 -0.089321
v -0.005742 0.013317 -0.149306
v -0.006022 0.019216 -0.148745
v -0.007589 0.019251 -0.152621
v -0.005742 0.013317 -0.152621
v 0.005697 0.006592 -0.089993
v -0.004955 0.006942 -0.088879
v 0.004955 0.006942 -0.088879
v -0.013438 -0.001939 -0.089370
v -0.012072 0.007756 -0.087698
v -0.012058 0.005224 -0.087683
v -0.014511 -0.018285 -0.128139
v -0.013945 -0.018464 -0.129782
v -0.015162 -0.017971 -0.126690
v -0.015698 -0.019231 -0.126658
v -0.013945 0.005224 -0.103480
v -0.013386 0.004136 -0.103870
v -0.013386 0.004665 -0.102469
v -0.013945 -0.001939 -0.103480
v -0.013386 -0.001381 -0.102469
v -0.013386 -0.000851 -0.103870
v -0.010493 0.004106 -0.087520
v -0.011734 0.004665 -0.088256
v -0.011733 -0.001381 -0.088256
v -0.010492 -0.000822 -0.087520
v -0.010198 0.012234 -0.092934
v -0.006853 0.019285 -0.100081
v -0.007211 0.019999 -0.100524
v -0.013945 0.011713 -0.091671
v -0.012765 0.013051 -0.092351
v -0.013521 0.013296 -0.093553
v -0.008930 0.019999 -0.100524
v -0.010029 0.019275 -0.100035
v -0.007235 0.006792 -0.087064
v -0.007346 0.009007 -0.089993
v -0.004955 0.006057 -0.087704
v -0.005713 0.006298 -0.087737
v -0.005484 0.004776 -0.087064
v -0.005697 0.006592 -0.089993
v -0.005742 0.019204 -0.149306
v -0.004942 0.019200 -0.150105
v -0.005742 0.019249 -0.152621
v -0.004942 0.019200 -0.151821
v -0.015264 -0.022631 -0.131177
v -0.015698 -0.024522 -0.132660
v -0.014480 -0.017386 -0.127034
v -0.013945 -0.019821 -0.131960
v -0.013945 -0.019427 -0.130625
v -0.015698 -0.021011 -0.127442
v -0.013945 0.003725 -0.105180
v -0.013945 0.001643 -0.105588
v -0.012389 -0.019821 -0.151498
v -0.012389 -0.019821 -0.151498
v -0.013636 -0.019821 -0.149691
v -0.013802 -0.023057 -0.153011
v -0.013802 -0.023057 -0.153011
v -0.012001 -0.032816 -0.153649
v -0.014192 -0.032022 -0.153423
v -0.012194 -0.031943 -0.154447
v -0.013659 -0.032905 -0.152802
v -0.015500 -0.032187 -0.151647
v -0.014724 -0.033062 -0.151358
v -0.013945 -0.019821 -0.147680
v -0.012053 -0.016126 -0.087683
v -0.013437 -0.016126 -0.089372
v -0.013945 -0.016126 -0.091680
v -0.012235 -0.037700 -0.085513
v -0.013811 -0.037206 -0.085717
v -0.015192 -0.038409 -0.087403
v -0.014796 -0.039640 -0.089707
v -0.015698 -0.038817 -0.089707
v 0.005484 0.004776 -0.087064
v -0.013945 -0.016633 -0.128910
v 0.011923 -0.036188 -0.085099
v 0.013418 -0.038499 -0.086367
v 0.012235 -0.037700 -0.085513
v -0.015698 -0.032433 -0.149508
v -0.013386 0.004665 -0.091733
v 0.011808 -0.023046 -0.154048
v 0.002695 0.010206 -0.149306
v -0.002695 0.010206 -0.149306
v 0.007376 -0.014403 -0.149306
v -0.012922 0.004665 -0.089620
v -0.012922 -0.001381 -0.089620
v -0.013386 -0.001381 -0.091735
v -0.012057 0.000146 -0.104157
v -0.012056 -0.001939 -0.087682
v -0.013386 -0.001381 -0.102469
v -0.013386 0.004136 -0.103870
v -0.012057 0.004106 -0.090294
v -0.011733 -0.001381 -0.088256
v -0.013386 0.003431 -0.104669
v -0.013386 0.001643 -0.105019
v -0.013945 -0.000440 -0.105180
v -0.012057 0.003138 -0.104157
v -0.013386 -0.000147 -0.104669
v -0.010439 0.011743 -0.152621
v -0.011542 0.008966 -0.088270
v -0.013439 0.009390 -0.089368
v -0.012072 0.007756 -0.087698
v -0.009638 0.006792 -0.087064
v -0.008893 0.019260 -0.151760
v -0.009756 0.019271 -0.150324
v -0.007589 0.019251 -0.152621
v -0.010029 0.019274 -0.148567
v -0.010029 0.019275 -0.105270
v -0.010193 0.010523 -0.091145
v -0.009743 0.009408 -0.090379
v 0.010815 -0.021291 -0.153015
v -0.008834 0.009004 -0.089993
v -0.006603 0.019246 -0.147775
v -0.006832 0.019274 -0.146540
v -0.006851 0.019284 -0.103599
v -0.004898 0.011119 -0.149306
v -0.002695 0.010206 -0.152621
v -0.005742 0.013317 -0.149306
v -0.005742 0.013317 -0.152621
v -0.004898 0.011119 -0.152621
v -0.006022 0.019216 -0.148745
v 0.002695 0.010206 -0.152621
v 0.002536 0.011006 -0.151821
v 0.010436 -0.019821 -0.152621
v -0.002695 0.010206 -0.152621
v 0.002695 0.010206 -0.152621
v -0.005742 0.019204 -0.149306
v -0.005742 0.019249 -0.152621
v -0.012922 -0.001381 -0.089620
v 0.011923 -0.036188 -0.085099
v -0.013945 -0.016126 -0.128228
v 0.015162 -0.017971 -0.126690
v 0.014478 -0.017383 -0.091083
v 0.015165 -0.017974 -0.090313
v 0.015698 -0.038817 -0.089707
v 0.015698 -0.024038 -0.130638
v 0.015698 -0.022704 -0.128583
v 0.012771 -0.021280 -0.151906
v 0.013811 -0.037206 -0.085717
v 0.015191 -0.019231 -0.087407
v 0.013807 -0.019231 -0.085718
v 0.014189 -0.024522 -0.153424
v 0.015499 -0.024522 -0.151646
v 0.014192 -0.032022 -0.153423
v 0.014189 -0.024522 -0.153424
v 0.012771 -0.021280 -0.151906
v 0.015101 -0.023060 -0.151228
v 0.013803 -0.023057 -0.153011
v 0.015698 -0.024522 -0.149505
v 0.015500 -0.032187 -0.151647
v 0.012389 0.011740 -0.151498
v 0.012389 -0.019821 -0.151498
v 0.014029 -0.021276 -0.150104
v 0.015312 -0.023039 -0.149103
v 0.014325 -0.021295 -0.148076
v 0.015307 -0.023031 -0.132907
v 0.015142 -0.018846 -0.127789
v 0.014495 -0.019431 -0.128788
v 0.014511 -0.018285 -0.128139
v 0.009638 0.006792 -0.087064
v 0.007235 0.006792 -0.087064
v 0.009637 -0.016126 -0.087064
v 0.012580 -0.017379 -0.087092
v 0.014663 -0.017977 -0.088000
v 0.013279 -0.017978 -0.086308
v 0.013966 -0.017380 -0.088781
v 0.015192 -0.038409 -0.087403
v 0.015698 -0.019231 -0.089715
v 0.015196 -0.021551 -0.129447
v 0.014376 -0.021280 -0.131626
v 0.014457 -0.020711 -0.129877
v 0.013636 0.011735 -0.149692
v 0.012389 -0.019821 -0.151498
v 0.012389 0.011740 -0.151498
v 0.013945 0.011725 -0.147682
v 0.013636 -0.019821 -0.149691
v 0.010838 0.010887 -0.090495
v 0.013048 0.011947 -0.091185
v 0.011036 0.011789 -0.091392
v 0.013214 0.013301 -0.149761
v 0.010029 0.019274 -0.148567
v 0.013520 0.013297 -0.147778
v 0.012002 0.013311 -0.151527
v 0.009756 0.019271 -0.150324
v 0.010224 0.009787 -0.089685
v 0.012719 0.010438 -0.089680
v 0.010029 0.019275 -0.100035
v 0.013521 0.013296 -0.093553
v 0.010121 0.013317 -0.152621
v 0.008894 0.019260 -0.151760
v 0.012002 0.013311 -0.151527
v 0.009881 0.008145 -0.087698
v 0.011542 0.008966 -0.088270
v 0.009121 0.009400 -0.089365
v 0.007634 0.008145 -0.087699
v 0.006642 0.020000 -0.149125
v 0.008693 0.020000 -0.149820
v 0.007936 0.020000 -0.151117
v 0.007028 0.020000 -0.148331
v 0.008935 0.020000 -0.148201
v 0.015157 -0.020117 -0.128454
v 0.007207 0.020000 -0.147009
v 0.008930 0.019999 -0.100524
v 0.004275 0.011727 -0.150105
v 0.010947 0.012932 -0.092514
v 0.009062 0.019457 -0.099136
v 0.007627 0.019434 -0.099159
v 0.013945 -0.016126 -0.091680
v 0.013439 0.009390 -0.089368
v 0.013438 -0.016126 -0.089372
v 0.006969 0.020000 -0.151776
v 0.005742 0.020000 -0.149731
v 0.004942 0.013465 -0.150105
v 0.004275 0.011727 -0.151821
v 0.004942 0.019200 -0.151821
v 0.004942 0.013465 -0.151821
v 0.005713 0.007491 -0.089321
v 0.006876 0.007958 -0.087737
v 0.006876 0.009151 -0.089321
v 0.005742 0.013317 -0.149306
v 0.006022 0.019216 -0.148745
v 0.005742 0.019204 -0.149306
v 0.007589 0.019251 -0.152621
v 0.005742 0.013317 -0.152621
v 0.005742 0.019249 -0.152621
v 0.013945 -0.016126 -0.128228
v 0.013945 -0.016633 -0.128910
v 0.012072 0.007756 -0.087698
v 0.012053 -0.016126 -0.087683
v 0.013945 -0.018464 -0.129782
v 0.015162 -0.017971 -0.126690
v 0.015698 -0.019231 -0.126658
v 0.010198 0.012234 -0.092934
v 0.007211 0.019999 -0.100524
v 0.006853 0.019285 -0.100081
v 0.013945 0.011713 -0.091671
v 0.012765 0.013051 -0.092351
v 0.010029 0.019275 -0.100035
v 0.007235 0.006792 -0.087064
v 0.007346 0.009007 -0.089993
v 0.007634 0.009400 -0.089364
v 0.004955 0.006057 -0.087704
v 0.005484 0.004776 -0.087064
v 0.005713 0.006298 -0.087737
v 0.005742 0.019204 -0.149306
v 0.004942 0.019200 -0.150105
v 0.005742 0.019249 -0.152621
v 0.004942 0.019200 -0.151821
v 0.005742 0.020000 -0.151778
v 0.015264 -0.022631 -0.131177
v 0.015698 -0.024522 -0.132660
v 0.013945 -0.019821 -0.131960
v 0.014329 -0.021302 -0.133290
v 0.013945 -0.019821 -0.133441
v 0.013945 -0.019427 -0.130625
v 0.015698 -0.021011 -0.127442
v 0.012389 -0.019821 -0.151498
v 0.012389 -0.019821 -0.151498
v 0.013636 -0.019821 -0.149691
v 0.013803 -0.023057 -0.153011
v 0.014192 -0.032022 -0.153423
v 0.013659 -0.032905 -0.152802
v 0.015500 -0.032187 -0.151647
v 0.014724 -0.033062 -0.151358
v 0.013945 -0.019821 -0.147680
v 0.012053 -0.016126 -0.087683
v 0.013438 -0.016126 -0.089372
v 0.013811 -0.037206 -0.085717
v 0.015192 -0.038409 -0.087403
v 0.014796 -0.039640 -0.089707
v 0.014481 -0.017386 -0.127034
v 0.013945 -0.016633 -0.128910
v 0.013945 -0.016126 -0.128228
v 0.015698 -0.032433 -0.149508
v 0.010439 0.011743 -0.152621
v 0.013945 0.011713 -0.091671
v 0.013439 0.009390 -0.089368
v 0.012072 0.007756 -0.087698
v 0.013521 0.013296 -0.093553
v 0.008894 0.019260 -0.151760
v 0.007589 0.019251 -0.152621
v 0.010029 0.019274 -0.148567
v 0.010193 0.010523 -0.091145
v 0.009743 0.009408 -0.090379
v 0.008834 0.009004 -0.089993
v 0.006603 0.019246 -0.147775
v 0.006832 0.019274 -0.146540
v 0.009638 0.006792 -0.087064
v 0.004898 0.011119 -0.149306
v 0.004898 0.011119 -0.152621
v 0.005742 0.013317 -0.149306
v 0.005742 0.013317 -0.152621
v 0.006022 0.019216 -0.148745
v 0.005742 0.019204 -0.149306
v 0.004942 0.019200 -0.150105
v 0.005742 0.019249 -0.152621
v 0.014481 -0.017386 -0.127034
v 0.013945 -0.016126 -0.091680
v -0.006853 0.019285 -0.100081
v -0.005697 0.006592 -0.089993
v -0.008834 -0.014403 -0.089993
v 0.005697 0.006592 -0.089993
v 0.008834 0.009004 -0.089993
v 0.008834 -0.014403 -0.089993
v -0.010387 -0.014403 -0.092030
v 0.008834 -0.014403 -0.089993
v 0.010387 -0.014403 -0.092030
v -0.015698 -0.032433 -0.149508
v 0.009637 -0.016126 -0.087064
v -0.013945 0.011713 -0.091671
v -0.004942 0.019200 -0.150105
v -0.005742 0.019204 -0.149306
v -0.005742 0.019249 -0.152621
v -0.013945 -0.019821 -0.133441
v -0.013945 -0.016633 -0.128910
v -0.013945 -0.019821 -0.133441
v -0.013945 -0.019821 -0.131960
v -0.013945 -0.018464 -0.129782
v -0.013945 -0.019427 -0.130625
v -0.013945 -0.016126 -0.128228
v -0.011923 -0.036188 -0.085099
v -0.013945 -0.016126 -0.128228
v 0.007300 0.012268 -0.149274
v 0.004898 0.011119 -0.149306
v -0.004898 0.011119 -0.149306
v 0.004898 0.011119 -0.152621
v -0.004898 0.011119 -0.152621
v 0.012194 -0.031943 -0.154447
v 0.015698 -0.032433 -0.149508
v 0.014192 -0.032022 -0.153423
v 0.013945 -0.019821 -0.147680
v 0.008894 0.019260 -0.151760
v 0.013945 -0.019821 -0.133441
v 0.013945 -0.018464 -0.129782
v 0.013945 -0.019427 -0.130625
v 0.013945 -0.019821 -0.131960
v 0.015698 -0.038817 -0.089707
v 0.009756 0.019271 -0.150324
v 0.013945 -0.016126 -0.128228
v -0.007346 0.009007 -0.089993
v 0.007346 0.009007 -0.089993
v -0.009065 -0.014403 -0.148369
v -0.010106 -0.014403 -0.146780
v -0.007376 -0.014403 -0.149306
v 0.010106 -0.014403 -0.146780
v -0.010193 -0.014403 -0.091145
v -0.008834 -0.014403 -0.089993
v -0.009743 -0.014403 -0.090379
v 0.009743 -0.014403 -0.090379
v 0.010193 -0.014403 -0.091145
v 0.009065 -0.014403 -0.148369
v 0.007376 -0.014403 -0.149306
v 0.010193 0.010523 -0.091145
v 0.010198 0.012234 -0.092934
v 0.010387 -0.014403 -0.092030
v 0.009932 0.012245 -0.146767
v 0.008930 0.012258 -0.148336
v 0.009065 -0.014403 -0.148369
v 0.009743 0.009408 -0.090379
v 0.010193 -0.014403 -0.091145
v 0.010173 0.012235 -0.098105
v 0.006851 0.019284 -0.103599
v 0.007300 0.012268 -0.149274
v 0.006603 0.019246 -0.147775
v 0.006832 0.019274 -0.146540
v 0.007376 -0.014403 -0.149306
v 0.010106 -0.014403 -0.146780
v 0.008834 0.009004 -0.089993
v 0.009743 -0.014403 -0.090379
v 0.006853 0.019285 -0.100081
v 0.006022 0.019216 -0.148745
v 0.008834 -0.014403 -0.089993
vn -0.0000 -1.0000 -0.0000
vn -0.3256 -0.9429 0.0697
vn -0.5618 -0.7604 0.3259
vn -0.3429 -0.9291 0.1388
vn -0.0000 -0.9837 0.1798
vn -0.0000 -0.8568 0.5157
vn -0.8021 -0.3920 0.4506
vn -0.7981 -0.1995 0.5685
vn -0.8935 -0.4072 0.1893
vn -0.3428 -0.7887 0.5102
vn -0.0000 -0.4976 0.8674
vn -0.8588 -0.4793 0.1810
vn -0.3685 -0.4625 0.8064
vn -0.0000 -0.0000 1.0000
vn -0.9017 -0.2152 0.3750
vn -0.3711 -0.0001 0.9286
vn -0.0000 0.4975 0.8675
vn -0.9091 -0.0001 0.4166
vn -0.8589 0.4791 0.1811
vn -0.9017 0.2151 0.3752
vn -0.3687 0.4624 0.8064
vn -0.0000 0.8568 0.5157
vn -0.3429 0.7887 0.5103
vn -0.0000 0.9837 0.1798
vn -0.3431 0.9290 0.1388
vn -0.0000 1.0000 -0.0000
vn -0.8936 0.4070 0.1893
vn -0.3256 0.9429 0.0697
vn -0.5617 0.7605 0.3259
vn -0.8021 0.3919 0.4506
vn -0.7982 0.1992 0.5685
vn -0.7726 0.6299 0.0793
vn -0.8475 0.5307 -0.0000
vn -0.7913 0.6115 -0.0000
vn -0.9050 0.4190 0.0742
vn -0.9202 0.3914 -0.0000
vn -0.7914 0.5002 0.3515
vn -0.7785 0.6221 0.0830
vn -0.6334 0.7139 0.2987
vn -0.4542 0.5440 0.7055
vn -0.9651 0.2166 -0.1472
vn -0.3758 0.7421 0.5550
vn -0.6617 0.6813 0.3131
vn -0.9687 0.2196 0.1159
vn -0.1082 0.6883 0.7173
vn -0.0666 0.4720 0.8791
vn -0.4009 0.6992 0.5920
vn -0.1145 0.6580 0.7443
vn 0.1082 0.6883 0.7173
vn 0.0666 0.4720 0.8791
vn 0.4542 0.5440 0.7055
vn 0.1145 0.6580 0.7443
vn 0.3758 0.7421 0.5550
vn -0.1645 0.2404 0.9566
vn 0.6334 0.7139 0.2987
vn 0.7914 0.5002 0.3515
vn 0.4009 0.6992 0.5920
vn 0.7726 0.6299 0.0793
vn 0.9050 0.4190 0.0742
vn 0.8475 0.5307 -0.0000
vn 0.9202 0.3914 -0.0000
vn 0.7913 0.6115 -0.0000
vn 0.7785 0.6221 0.0830
vn 0.9651 0.2166 -0.1472
vn 0.6617 0.6813 0.3131
vn 0.9687 0.2196 0.1159
vn 0.8651 0.2547 0.4322
vn 0.9235 0.0001 0.3835
vn 0.6368 0.0002 0.7710
vn 0.9944 -0.0000 0.1054
vn 0.5484 0.2645 0.7933
vn 0.1782 0.0001 0.9840
vn 0.1645 0.2404 0.9566
vn -0.1782 0.0001 0.9840
vn -0.5484 0.2645 0.7933
vn -0.6368 0.0002 0.7710
vn -0.8651 0.2547 0.4322
vn -0.9235 0.0001 0.3835
vn -0.9944 -0.0000 0.1054
vn -0.9840 0.0908 -0.1534
vn -0.9899 0.1053 -0.0946
vn -0.9922 0.1149 -0.0488
vn -0.9927 0.1197 -0.0115
vn -0.9991 -0.0000 -0.0429
vn -0.9182 0.3715 -0.1372
vn -0.8885 0.3547 -0.2911
vn -0.8372 0.2986 -0.4582
vn -0.8008 0.3663 -0.4739
vn -0.7798 0.4873 -0.3931
vn -0.8600 0.3992 -0.3180
vn -0.9064 0.4066 -0.1143
vn -0.8263 0.3054 -0.4732
vn -0.9464 0.2549 -0.1983
vn -0.9286 0.2022 -0.3112
vn -0.9629 0.2658 -0.0460
vn -0.8542 0.3300 -0.4019
vn -0.9488 0.2146 -0.2319
vn -0.8560 0.4117 -0.3127
vn -0.9549 0.2384 -0.1771
vn -0.9261 0.3772 -0.0111
vn -0.9679 0.2515 -0.0000
vn -0.9621 0.2654 -0.0623
vn -0.9287 0.3700 -0.0251
vn -0.9154 0.3977 -0.0622
vn -0.8867 0.3289 -0.3249
vn -0.9156 0.3984 -0.0536
vn -0.8203 0.4837 -0.3051
vn -0.7677 0.3542 -0.5341
vn -0.7001 0.5156 -0.4940
vn -0.8252 0.4702 -0.3130
vn -0.7005 0.4974 -0.5117
vn -0.9896 0.1348 -0.0507
vn -0.9404 0.0001 -0.3402
vn -0.9176 0.1665 -0.3609
vn -0.6540 0.0001 -0.7565
vn -0.6379 0.1785 -0.7491
vn -0.2372 -0.0000 -0.9715
vn -0.2439 0.1556 -0.9572
vn -0.4038 0.4826 -0.7772
vn 0.2439 0.1556 -0.9572
vn -0.2181 0.4453 -0.8684
vn -0.4185 0.5045 -0.7552
vn 0.2372 -0.0000 -0.9715
vn 0.4488 0.1711 -0.8771
vn 0.4561 -0.0000 -0.8899
vn 0.4038 0.4826 -0.7772
vn 0.2181 0.4453 -0.8684
vn 0.4185 0.5045 -0.7552
vn -0.2126 0.4556 -0.8644
vn -0.4638 0.3456 -0.8157
vn -0.2181 0.3048 -0.9271
vn 0.2181 0.3048 -0.9271
vn 0.2126 0.4556 -0.8644
vn 0.4638 0.3456 -0.8157
vn 0.0963 -0.8741 -0.4762
vn 0.3859 -0.9146 -0.1205
vn -0.3859 -0.9146 -0.1205
vn 0.1578 -0.6846 -0.7117
vn 0.4397 -0.6808 -0.5858
vn -0.1578 -0.6846 -0.7117
vn 0.2670 -0.8774 -0.3987
vn 0.6465 -0.6903 -0.3248
vn 0.3919 -0.8912 -0.2283
vn 0.6786 -0.7280 -0.0974
vn -0.0963 -0.8741 -0.4762
vn -0.4397 -0.6808 -0.5858
vn -0.2670 -0.8774 -0.3987
vn -0.6465 -0.6903 -0.3248
vn 0.3699 -0.9265 0.0690
vn 0.6716 -0.7355 0.0901
vn -0.3919 -0.8912 -0.2283
vn -0.6786 -0.7280 -0.0974
vn 0.5767 -0.6369 0.5116
vn -0.3699 -0.9265 0.0690
vn -0.6716 -0.7355 0.0901
vn -0.5767 -0.6369 0.5116
vn -0.3213 -0.8263 0.4627
vn 0.3213 -0.8263 0.4627
vn -0.2128 -0.6641 0.7167
vn -0.3137 -0.4307 0.8462
vn 0.2128 -0.6641 0.7167
vn 0.3137 -0.4307 0.8462
vn -0.0905 -0.4865 0.8690
vn -0.0625 -0.2516 0.9658
vn 0.0905 -0.4865 0.8690
vn 0.0625 -0.2516 0.9658
vn -0.2581 -0.0000 -0.9661
vn -0.6775 -0.0000 -0.7355
vn -0.6852 0.0781 -0.7241
vn -0.9265 0.1141 -0.3586
vn -0.9293 -0.0000 -0.3693
vn -0.2739 0.0297 -0.9613
vn -0.9890 0.1281 -0.0733
vn -0.9971 -0.0000 -0.0761
vn -0.0000 -0.0000 -1.0000
vn 0.2581 -0.0000 -0.9661
vn 0.2739 0.0297 -0.9613
vn 0.4987 0.0490 -0.8654
vn 0.4988 -0.0000 -0.8667
vn 0.4960 0.1506 -0.8552
vn 0.2749 0.0951 -0.9568
vn 0.5280 0.2276 -0.8182
vn 0.2167 0.0925 -0.9718
vn -0.2167 0.0925 -0.9718
vn -0.2749 0.0951 -0.9568
vn -0.6474 0.3009 -0.7002
vn -0.6681 0.2390 -0.7047
vn -0.8309 0.4402 -0.3403
vn -0.8766 0.3379 -0.3428
vn -0.8652 0.4959 -0.0739
vn -0.9233 0.3777 -0.0692
vn -0.8635 0.5043 -0.0000
vn -0.9465 0.3228 -0.0000
vn -0.9966 0.0608 0.0558
vn -0.9669 -0.2388 0.0902
vn -0.9216 -0.3751 0.1000
vn -0.9404 -0.0001 0.3401
vn -0.7522 -0.6568 0.0530
vn -0.7007 -0.7094 0.0760
vn -0.7522 -0.5277 0.3947
vn -0.6220 -0.7170 0.3147
vn -0.9539 -0.1495 0.2604
vn -0.7257 -0.3424 0.5967
vn -0.9414 -0.0000 0.3372
vn -0.7138 -0.0000 0.7004
vn -0.7257 0.3424 0.5967
vn -0.8335 -0.3728 0.4077
vn -0.4151 -0.6662 0.6195
vn -0.6185 0.0013 0.7858
vn -0.4927 -0.3905 0.7777
vn -0.1387 0.0011 0.9903
vn -0.1780 -0.0395 0.9832
vn -0.4835 0.0130 0.8752
vn -0.4834 -0.0133 0.8753
vn -0.1778 0.0394 0.9833
vn -0.4151 0.6663 0.6194
vn -0.4927 0.3911 0.7774
vn -0.5374 -0.0001 0.8433
vn -0.8337 0.3724 0.4078
vn -0.6221 0.7167 0.3151
vn -0.1251 -0.0000 0.9921
vn -0.8998 -0.0001 0.4363
vn 0.1251 -0.0000 0.9921
vn 0.1401 0.0002 0.9901
vn 0.5374 -0.0001 0.8433
vn 0.6180 -0.0000 0.7862
vn 0.8998 -0.0002 0.4363
vn 0.9404 -0.0001 0.3401
vn 0.9942 -0.0000 0.1079
vn 0.9966 0.0608 0.0558
vn 1.0000 -0.0000 -0.0000
vn 0.9890 0.1281 -0.0733
vn 0.9465 0.3228 -0.0000
vn 0.9971 -0.0000 -0.0761
vn 0.9293 -0.0000 -0.3693
vn 0.9233 0.3777 -0.0692
vn 0.8635 0.5043 -0.0000
vn 0.8652 0.4959 -0.0739
vn 0.9265 0.1141 -0.3586
vn 0.8229 -0.0000 -0.5681
vn 0.8193 0.1004 -0.5644
vn 0.8766 0.3379 -0.3428
vn 0.7881 0.3059 -0.5341
vn 0.8309 0.4402 -0.3403
vn 0.7870 0.3926 -0.4759
vn -0.9216 0.3751 0.1000
vn -0.9942 -0.0000 0.1079
vn -0.7007 0.7094 0.0760
vn -0.7522 0.6568 0.0530
vn -0.9669 0.2388 0.0902
vn -0.7522 0.5277 0.3947
vn -1.0000 -0.0000 -0.0000
vn -0.9539 0.1494 0.2604
vn 0.9947 -0.0036 -0.1029
vn 0.9931 -0.1170 0.0012
vn 0.9919 -0.0058 -0.1266
vn 0.9310 -0.0000 -0.3650
vn 0.7420 -0.0000 -0.6704
vn 0.6595 -0.0000 -0.7517
vn 0.2209 -0.0000 -0.9753
vn 0.1992 -0.0000 -0.9800
vn 0.9753 -0.2209 0.0046
vn 0.9048 -0.4258 0.0013
vn 0.9575 -0.0065 0.2882
vn 0.9061 -0.4231 0.0030
vn 0.9419 -0.1996 0.2700
vn 0.6810 -0.0048 0.7322
vn 0.9215 -0.3707 0.1158
vn 0.6969 -0.1570 0.6998
vn 0.8829 -0.2683 0.3854
vn 0.2516 -0.0018 0.9678
vn 0.2947 -0.0766 0.9525
vn 0.8393 -0.1034 0.5337
vn 0.0822 -0.0521 0.9953
vn 0.8948 -0.0000 0.4464
vn 0.0093 0.0006 1.0000
vn -0.0008 -0.0001 1.0000
vn -0.0093 0.0006 1.0000
vn -0.0325 -0.0227 0.9992
vn -0.0822 -0.0521 0.9953
vn -0.8324 -0.0132 0.5540
vn -0.8948 -0.0000 0.4464
vn 0.4272 0.6826 0.5929
vn 0.4110 0.6557 0.6334
vn -0.2234 0.6951 0.6834
vn 0.7188 0.5761 0.3891
vn 0.6946 0.4121 0.5896
vn 0.3887 0.8004 0.4563
vn 0.6369 0.7706 -0.0208
vn -0.1925 0.6452 0.7394
vn -0.5020 0.6375 0.5844
vn -0.4017 0.5129 0.7587
vn -0.2238 0.7506 0.6218
vn -0.4931 0.7401 0.4573
vn -0.0636 0.6325 0.7719
vn -0.1767 0.4735 0.8629
vn 0.0054 0.5932 0.8050
vn -0.0262 0.4203 0.9070
vn -0.2100 0.8402 0.4999
vn -0.5125 0.8219 0.2487
vn 0.4027 0.5895 0.7003
vn 0.0912 0.6419 0.7613
vn 0.4153 0.6736 0.6113
vn 0.7889 0.4913 0.3692
vn 0.2774 0.4036 0.8719
vn -0.2512 0.9554 0.1553
vn 0.4914 0.8518 0.1817
vn 0.8939 0.4483 0.0002
vn -0.5502 0.8350 0.0001
vn 0.5251 0.8510 0.0002
vn 0.8732 0.4846 0.0514
vn -0.2872 0.9579 -0.0000
vn 0.4756 0.8783 0.0481
vn 0.7737 0.5914 0.2273
vn -0.2961 0.9550 -0.0189
vn -0.5425 0.8388 -0.0467
vn 0.3696 0.9193 0.1350
vn 0.6623 0.6709 0.3335
vn -0.2890 0.9520 -0.1010
vn -0.4934 0.8493 -0.1879
vn -0.3962 0.8402 -0.3702
vn 0.3037 0.9277 0.2173
vn 0.6349 0.4887 0.5984
vn -0.2297 0.9462 -0.2280
vn -0.1945 0.8030 -0.5634
vn 0.4671 0.8111 0.3520
vn 0.7385 0.6412 0.2087
vn -0.0874 0.9262 -0.3667
vn 0.2428 0.7247 -0.6449
vn 0.3414 0.8851 -0.3162
vn 0.6820 0.6946 -0.2288
vn 0.1785 0.8965 -0.4056
vn 0.1785 0.8965 0.4056
vn -0.1785 0.8965 0.4056
vn 0.1367 0.6866 0.7141
vn 0.6416 0.6247 0.4451
vn -0.1367 0.6866 0.7141
vn 0.4845 0.4720 0.7365
vn 0.6892 0.1277 0.7133
vn -0.6416 0.6247 0.4451
vn -0.4845 0.4720 0.7365
vn -0.6892 0.1277 0.7133
vn -0.1785 0.8965 -0.4056
vn -0.8996 0.1667 0.4037
vn -0.7069 -0.0000 0.7074
vn -0.9236 -0.0000 0.3832
vn -0.9217 -0.0000 -0.3880
vn -0.1367 0.6866 -0.7141
vn -0.6416 0.6247 -0.4451
vn -0.4845 0.4720 -0.7365
vn 0.1367 0.6866 -0.7141
vn -0.6892 0.1277 -0.7133
vn 0.6416 0.6247 -0.4451
vn 0.4845 0.4720 -0.7365
vn 0.6892 0.1277 -0.7133
vn -0.8996 0.1667 -0.4037
vn -0.7068 -0.0000 -0.7074
vn 0.8996 0.1667 0.4037
vn 0.7069 -0.0000 0.7074
vn 0.9236 -0.0000 0.3832
vn 0.9217 -0.0000 -0.3880
vn 0.8996 0.1667 -0.4037
vn 0.7068 -0.0000 -0.7074
vn 0.1738 0.9669 0.1871
vn 0.2092 0.8683 -0.4498
vn 0.1277 0.9904 0.0534
vn 0.3676 0.7534 -0.5452
vn 0.5907 0.8068 0.0152
vn 0.4595 0.5757 0.6763
vn 0.7660 0.6243 -0.1531
vn 0.4609 0.7102 -0.5322
vn 0.4051 0.5520 0.7289
vn 0.1593 0.4408 0.8833
vn 0.1975 0.9611 0.1932
vn -0.4609 0.7102 -0.5322
vn 0.0715 0.6161 0.7844
vn -0.1593 0.4409 0.8833
vn -0.0715 0.6161 0.7844
vn -0.1975 0.9611 0.1932
vn -0.4051 0.5520 0.7289
vn -0.2774 0.4036 0.8719
vn -0.7660 0.6243 -0.1531
vn -0.3676 0.7534 -0.5452
vn -0.4595 0.5757 0.6763
vn -0.0912 0.6419 0.7613
vn -0.5907 0.8068 0.0152
vn -0.1277 0.9904 0.0534
vn -0.2092 0.8683 -0.4498
vn 0.0262 0.4203 0.9070
vn -0.1738 0.9669 0.1871
vn -0.6369 0.7706 -0.0208
vn -0.0054 0.5932 0.8050
vn 0.1767 0.4735 0.8629
vn -0.3887 0.8004 0.4563
vn 0.0636 0.6325 0.7719
vn 0.4017 0.5129 0.7587
vn -0.7188 0.5761 0.3891
vn 0.1925 0.6452 0.7394
vn 0.5020 0.6375 0.5844
vn -0.4272 0.6826 0.5929
vn 0.2234 0.6951 0.6834
vn -0.4110 0.6557 0.6334
vn -0.6946 0.4121 0.5896
vn 0.2238 0.7506 0.6218
vn 0.4931 0.7401 0.4573
vn -0.4027 0.5895 0.7003
vn 0.2100 0.8402 0.4999
vn 0.5125 0.8219 0.2487
vn -0.4153 0.6736 0.6113
vn -0.7889 0.4913 0.3692
vn 0.2512 0.9554 0.1553
vn -0.4914 0.8518 0.1818
vn -0.8732 0.4846 0.0514
vn 0.5424 0.8388 -0.0467
vn -0.4756 0.8783 0.0481
vn -0.7737 0.5914 0.2273
vn 0.2961 0.9550 -0.0189
vn 0.2890 0.9520 -0.1010
vn 0.4934 0.8493 -0.1879
vn -0.3696 0.9193 0.1350
vn -0.6623 0.6709 0.3335
vn 0.3962 0.8402 -0.3702
vn -0.3037 0.9277 0.2173
vn -0.6349 0.4887 0.5984
vn 0.2297 0.9462 -0.2280
vn 0.1945 0.8030 -0.5634
vn 0.0874 0.9262 -0.3667
vn -0.2428 0.7247 -0.6449
vn -0.4671 0.8111 0.3520
vn -0.7385 0.6412 0.2087
vn -0.3414 0.8851 -0.3162
vn -0.6820 0.6946 -0.2288
vn 0.9922 0.1149 -0.0488
vn 0.9899 0.1053 -0.0946
vn 0.9927 0.1197 -0.0115
vn 0.9182 0.3715 -0.1372
vn 0.9840 0.0908 -0.1534
vn 0.9991 -0.0000 -0.0429
vn 0.8885 0.3547 -0.2911
vn 0.8372 0.2986 -0.4582
vn 0.8008 0.3663 -0.4739
vn 0.7798 0.4873 -0.3931
vn 0.8600 0.3992 -0.3180
vn 0.9064 0.4066 -0.1143
vn 0.8263 0.3054 -0.4732
vn 0.9464 0.2549 -0.1983
vn 0.9286 0.2022 -0.3112
vn 0.9629 0.2658 -0.0460
vn 0.8542 0.3300 -0.4019
vn 0.9488 0.2146 -0.2319
vn 0.8560 0.4117 -0.3127
vn 0.9549 0.2384 -0.1771
vn 0.9261 0.3772 -0.0111
vn 0.9679 0.2515 -0.0000
vn 0.9621 0.2654 -0.0623
vn 0.9287 0.3700 -0.0251
vn 0.9154 0.3977 -0.0622
vn 0.8867 0.3289 -0.3249
vn 0.9156 0.3984 -0.0536
vn 0.8203 0.4837 -0.3051
vn 0.7677 0.3542 -0.5341
vn 0.7001 0.5156 -0.4940
vn 0.8252 0.4702 -0.3130
vn 0.7005 0.4974 -0.5117
vn 0.9896 0.1348 -0.0507
vn 0.9404 0.0001 -0.3402
vn 0.9176 0.1665 -0.3609
vn 0.8051 0.0001 -0.5932
vn 0.7923 0.1767 -0.5839
vn -0.9931 -0.1170 0.0012
vn -0.9947 -0.0036 -0.1029
vn -0.9919 -0.0058 -0.1266
vn -0.9310 -0.0000 -0.3650
vn -0.7420 -0.0000 -0.6704
vn -0.6595 -0.0000 -0.7517
vn -0.3904 -0.0000 -0.9206
vn -0.9753 -0.2209 0.0046
vn -0.9048 -0.4258 0.0013
vn -0.9575 -0.0065 0.2882
vn -0.9061 -0.4231 0.0030
vn -0.9419 -0.1996 0.2700
vn -0.6810 -0.0048 0.7322
vn -0.9215 -0.3707 0.1158
vn -0.6969 -0.1570 0.6998
vn -0.4857 -0.0035 0.8741
vn -0.8829 -0.2683 0.3854
vn -0.5156 -0.1210 0.8483
vn -0.8390 -0.1931 0.5087
vt 0.040070 0.157104
vt 0.035889 0.157837
vt 0.039154 0.156250
vt 0.043182 0.156128
vt 0.013474 0.156250
vt 0.013084 0.157959
vt 0.009392 0.156494
vt 0.042633 0.154541
vt 0.045807 0.154541
vt 0.039124 0.154541
vt 0.010437 0.155029
vt 0.007256 0.154297
vt 0.012489 0.154541
vt 0.008797 0.153442
vt 0.006081 0.149414
vt 0.010201 0.152588
vt 0.007896 0.149414
vt 0.007256 0.144653
vt 0.009590 0.149414
vt 0.012489 0.144287
vt 0.010201 0.146362
vt 0.008797 0.145508
vt 0.009384 0.142456
vt 0.010437 0.143921
vt 0.013084 0.140991
vt 0.013474 0.142578
vt 0.035889 0.141113
vt 0.039124 0.144287
vt 0.039154 0.142578
vt 0.040039 0.141846
vt 0.043182 0.142700
vt 0.042633 0.144287
vt 0.045807 0.144287
vt 0.197144 0.672363
vt 0.121643 0.671875
vt 0.122437 0.669922
vt 0.195923 0.675781
vt 0.119080 0.674316
vt 0.202393 0.676270
vt 0.198486 0.669922
vt 0.203125 0.672363
vt 0.209229 0.676270
vt 0.122559 0.666992
vt 0.208984 0.672363
vt 0.203857 0.669922
vt 0.199341 0.666992
vt 0.214111 0.672852
vt 0.216309 0.676270
vt 0.208862 0.669434
vt 0.213257 0.669922
vt 0.261230 0.672852
vt 0.259033 0.676270
vt 0.266113 0.676270
vt 0.261963 0.669922
vt 0.266357 0.672363
vt 0.212891 0.666992
vt 0.272217 0.672363
vt 0.272949 0.676270
vt 0.266602 0.669434
vt 0.278076 0.672363
vt 0.279541 0.675781
vt 0.353760 0.671875
vt 0.356201 0.674316
vt 0.353027 0.669922
vt 0.276855 0.669922
vt 0.352783 0.666992
vt 0.271484 0.669922
vt 0.276123 0.666992
vt 0.271240 0.666992
vt 0.271240 0.626953
vt 0.266602 0.629395
vt 0.276123 0.625977
vt 0.266602 0.666992
vt 0.262451 0.631348
vt 0.262451 0.666992
vt 0.212891 0.631348
vt 0.208740 0.666992
vt 0.208740 0.629395
vt 0.204224 0.666992
vt 0.204224 0.626953
vt 0.199341 0.625977
vt 0.120911 0.663086
vt 0.118530 0.659668
vt 0.114258 0.656738
vt 0.110046 0.655762
vt 0.075012 0.639648
vt 0.113037 0.660156
vt 0.116638 0.662109
vt 0.118652 0.665039
vt 0.120056 0.667480
vt 0.122131 0.669434
vt 0.115417 0.664551
vt 0.111938 0.663086
vt 0.117554 0.666992
vt 0.113831 0.666992
vt 0.115479 0.668945
vt 0.111267 0.666016
vt 0.118896 0.668945
vt 0.117126 0.672363
vt 0.120972 0.670898
vt 0.118408 0.673340
vt 0.108643 0.663086
vt 0.108337 0.666504
vt 0.078491 0.666504
vt 0.109497 0.659180
vt 0.077637 0.663574
vt 0.074036 0.666992
vt 0.075684 0.659180
vt 0.073120 0.663574
vt 0.069214 0.667969
vt 0.068237 0.664551
vt 0.071228 0.658691
vt 0.066528 0.659668
vt 0.075012 0.655762
vt 0.070557 0.640137
vt 0.070557 0.655762
vt 0.065918 0.640137
vt 0.065918 0.655762
vt 0.061279 0.640625
vt 0.061279 0.655762
vt 0.065369 0.659668
vt 0.010590 0.655762
vt 0.060638 0.659180
vt 0.063660 0.664062
vt 0.010574 0.640625
vt 0.005920 0.655762
vt 0.005909 0.640137
vt 0.006496 0.659668
vt 0.011230 0.659180
vt 0.008194 0.664551
vt 0.058838 0.663574
vt 0.062744 0.667480
vt 0.057983 0.666504
vt 0.013901 0.666504
vt 0.013046 0.663574
vt 0.009117 0.667480
vt 0.463867 0.854980
vt 0.457275 0.860840
vt 0.457275 0.798828
vt 0.466309 0.855469
vt 0.464111 0.860352
vt 0.466309 0.804199
vt 0.462158 0.858398
vt 0.460205 0.863281
vt 0.458984 0.860840
vt 0.455322 0.863770
vt 0.463867 0.804688
vt 0.464111 0.799805
vt 0.462158 0.801270
vt 0.460205 0.796875
vt 0.328857 0.860840
vt 0.328613 0.863281
vt 0.458984 0.798828
vt 0.455322 0.796387
vt 0.323242 0.862305
vt 0.328857 0.798828
vt 0.328613 0.796387
vt 0.323242 0.797363
vt 0.323975 0.799805
vt 0.323975 0.859863
vt 0.321289 0.801758
vt 0.318359 0.800293
vt 0.321289 0.857910
vt 0.318359 0.859375
vt 0.318848 0.804199
vt 0.315430 0.804688
vt 0.318848 0.855469
vt 0.315430 0.854980
vt 0.054871 0.441162
vt 0.059692 0.441162
vt 0.060394 0.507324
vt 0.064758 0.506836
vt 0.064392 0.441162
vt 0.055817 0.507812
vt 0.068787 0.506836
vt 0.068787 0.441162
vt 0.039001 0.504883
vt 0.010674 0.441162
vt 0.043732 0.507324
vt 0.027405 0.504883
vt 0.046112 0.512695
vt 0.010788 0.508301
vt 0.022690 0.507324
vt 0.005909 0.508301
vt 0.005909 0.441162
vt 0.006756 0.511719
vt 0.020874 0.511719
vt 0.011452 0.511719
vt 0.013420 0.524902
vt 0.016800 0.524414
vt 0.020782 0.524414
vt 0.049042 0.526367
vt 0.053253 0.525391
vt 0.055756 0.511230
vt 0.057190 0.524902
vt 0.060150 0.510254
vt 0.061432 0.524414
vt 0.064392 0.509766
vt 0.065857 0.524414
vt 0.068298 0.510254
vt 0.157471 0.524902
vt 0.182129 0.510254
vt 0.168457 0.524902
vt 0.186035 0.506836
vt 0.161377 0.493652
vt 0.186035 0.493896
vt 0.191040 0.502441
vt 0.163574 0.491943
vt 0.186035 0.492188
vt 0.160767 0.490967
vt 0.191040 0.492188
vt 0.157837 0.490479
vt 0.159180 0.489502
vt 0.156860 0.486084
vt 0.158447 0.486084
vt 0.159180 0.482666
vt 0.191040 0.493896
vt 0.195435 0.492188
vt 0.195557 0.499268
vt 0.195557 0.494141
vt 0.200806 0.497314
vt 0.200806 0.493896
vt 0.198853 0.491455
vt 0.205933 0.497070
vt 0.198853 0.481201
vt 0.209595 0.492920
vt 0.200806 0.478760
vt 0.195435 0.480469
vt 0.232666 0.492920
vt 0.195557 0.478516
vt 0.195557 0.448975
vt 0.191040 0.478760
vt 0.191040 0.480469
vt 0.200806 0.448975
vt 0.191040 0.448975
vt 0.241333 0.448975
vt 0.236328 0.497070
vt 0.241455 0.497070
vt 0.246582 0.448975
vt 0.246704 0.499023
vt 0.251221 0.448975
vt 0.251221 0.502441
vt 0.256104 0.448975
vt 0.256104 0.507324
vt 0.332764 0.448730
vt 0.373779 0.507324
vt 0.260010 0.510742
vt 0.334229 0.447754
vt 0.373779 0.441162
vt 0.343750 0.441162
vt 0.336182 0.443848
vt 0.340576 0.441162
vt 0.337891 0.441895
vt 0.377930 0.441162
vt 0.374023 0.510254
vt 0.273682 0.525391
vt 0.375977 0.524902
vt 0.377930 0.507324
vt 0.382568 0.441162
vt 0.382568 0.507324
vt 0.378174 0.510254
vt 0.382812 0.511230
vt 0.379883 0.524902
vt 0.383545 0.525879
vt 0.186035 0.478760
vt 0.186035 0.448975
vt 0.186035 0.480469
vt 0.163452 0.480225
vt 0.161255 0.478760
vt 0.160645 0.481201
vt 0.109619 0.448975
vt 0.157715 0.481689
vt 0.108032 0.447754
vt 0.098511 0.441162
vt 0.106201 0.444092
vt 0.101624 0.441162
vt 0.104431 0.441895
vt 0.663574 0.395996
vt 0.663574 0.424072
vt 0.662109 0.422119
vt 0.662598 0.395996
vt 0.661133 0.420898
vt 0.661621 0.395996
vt 0.660156 0.420410
vt 0.660645 0.395996
vt 0.657227 0.417969
vt 0.658691 0.420410
vt 0.642090 0.395996
vt 0.645508 0.417725
vt 0.642090 0.420410
vt 0.643555 0.420410
vt 0.669434 0.424072
vt 0.671875 0.432373
vt 0.720703 0.395996
vt 0.675293 0.432373
vt 0.720703 0.423828
vt 0.722656 0.395996
vt 0.720703 0.431885
vt 0.722656 0.424072
vt 0.722168 0.431885
vt 0.724609 0.395996
vt 0.724609 0.424316
vt 0.723633 0.432129
vt 0.726074 0.425781
vt 0.724121 0.432129
vt 0.727051 0.423340
vt 0.729492 0.422363
vt 0.740723 0.395996
vt 0.735352 0.422363
vt 0.737793 0.423340
vt 0.740234 0.424561
vt 0.738770 0.425537
vt 0.738770 0.431885
vt 0.738281 0.431885
vt 0.492432 0.854004
vt 0.495117 0.854492
vt 0.494873 0.858887
vt 0.492920 0.852051
vt 0.498047 0.852051
vt 0.489502 0.852539
vt 0.490723 0.851074
vt 0.490234 0.857910
vt 0.495117 0.860840
vt 0.488037 0.859863
vt 0.498291 0.858398
vt 0.500488 0.860352
vt 0.486084 0.855469
vt 0.483154 0.856445
vt 0.483887 0.851562
vt 0.480469 0.851074
vt 0.518066 0.851074
vt 0.520020 0.853516
vt 0.498535 0.854492
vt 0.484131 0.846680
vt 0.518555 0.848145
vt 0.520020 0.845703
vt 0.480957 0.845215
vt 0.521484 0.851074
vt 0.521484 0.847168
vt 0.527832 0.845703
vt 0.531250 0.854004
vt 0.529297 0.847656
vt 0.617188 0.845703
vt 0.531250 0.851074
vt 0.618164 0.847656
vt 0.619629 0.845703
vt 0.620605 0.851074
vt 0.621582 0.854004
vt 0.620605 0.847168
vt 0.621094 0.844238
vt 0.624023 0.850586
vt 0.625000 0.853027
vt 0.628418 0.851562
vt 0.622559 0.846191
vt 0.622070 0.843750
vt 0.626465 0.849121
vt 0.630371 0.848633
vt 0.623535 0.844238
vt 0.624512 0.841797
vt 0.627930 0.847168
vt 0.630371 0.844238
vt 0.627930 0.844238
vt 0.628418 0.842285
vt 0.283447 0.947266
vt 0.283447 0.943848
vt 0.294678 0.943848
vt 0.283691 0.941406
vt 0.279541 0.943848
vt 0.294678 0.941406
vt 0.279541 0.941406
vt 0.275391 0.941406
vt 0.298828 0.943848
vt 0.298828 0.941406
vt 0.302734 0.941406
vt 0.294678 0.947266
vt 0.302734 0.943848
vt 0.315186 0.941406
vt 0.315186 0.943848
vt 0.315186 0.947266
vt 0.294678 0.949707
vt 0.298828 0.947266
vt 0.298828 0.949707
vt 0.283447 0.949707
vt 0.302734 0.949707
vt 0.279541 0.947266
vt 0.279541 0.949707
vt 0.275391 0.949707
vt 0.302734 0.947266
vt 0.315430 0.949707
vt 0.275391 0.943848
vt 0.262939 0.941406
vt 0.262939 0.943848
vt 0.262939 0.947266
vt 0.275391 0.947266
vt 0.262939 0.949707
vt 0.488525 0.850098
vt 0.490234 0.849121
vt 0.488525 0.846680
vt 0.489746 0.845215
vt 0.488281 0.845215
vt 0.483887 0.845215
vt 0.486084 0.841309
vt 0.487305 0.839844
vt 0.481689 0.841309
vt 0.478271 0.840332
vt 0.484619 0.839355
vt 0.487305 0.817383
vt 0.481445 0.839355
vt 0.478271 0.816895
vt 0.481445 0.817871
vt 0.484619 0.817871
vt 0.481934 0.815918
vt 0.481201 0.812012
vt 0.486084 0.815918
vt 0.489990 0.811523
vt 0.484131 0.812012
vt 0.484131 0.810547
vt 0.488281 0.812012
vt 0.488770 0.810547
vt 0.490234 0.808105
vt 0.480713 0.806152
vt 0.488770 0.807129
vt 0.490967 0.806152
vt 0.484131 0.805664
vt 0.483398 0.800781
vt 0.489746 0.804688
vt 0.486328 0.801758
vt 0.488281 0.797363
vt 0.493164 0.805176
vt 0.490479 0.799316
vt 0.495361 0.796387
vt 0.492676 0.803223
vt 0.495117 0.798340
vt 0.495361 0.802734
vt 0.498291 0.805176
vt 0.498535 0.798828
vt 0.500488 0.796875
vt 0.498779 0.802734
vt 0.518555 0.806152
vt 0.520020 0.803711
vt 0.518555 0.809082
vt 0.520020 0.811523
vt 0.521484 0.806641
vt 0.521484 0.810059
vt 0.617188 0.811523
vt 0.621582 0.803711
vt 0.618164 0.810059
vt 0.619629 0.812012
vt 0.620605 0.806641
vt 0.624023 0.807129
vt 0.625000 0.804199
vt 0.620605 0.810547
vt 0.621094 0.812988
vt 0.628418 0.806152
vt 0.622559 0.811523
vt 0.622070 0.813965
vt 0.626465 0.808594
vt 0.630371 0.809082
vt 0.627930 0.810547
vt 0.630371 0.813477
vt 0.623535 0.812988
vt 0.624512 0.815430
vt 0.627930 0.812988
vt 0.628418 0.815430
vt 0.361084 0.656738
vt 0.356934 0.659668
vt 0.365479 0.655762
vt 0.362305 0.660156
vt 0.354492 0.663086
vt 0.400391 0.639648
vt 0.358887 0.662109
vt 0.356689 0.665039
vt 0.355469 0.667480
vt 0.353271 0.669434
vt 0.360107 0.664551
vt 0.363525 0.663086
vt 0.357910 0.666992
vt 0.361572 0.666992
vt 0.359863 0.668945
vt 0.364014 0.666016
vt 0.356445 0.668945
vt 0.358154 0.672363
vt 0.354492 0.670898
vt 0.356934 0.673340
vt 0.366699 0.663086
vt 0.367188 0.666504
vt 0.396973 0.666504
vt 0.365967 0.659180
vt 0.397705 0.663574
vt 0.401367 0.666992
vt 0.399658 0.659180
vt 0.402344 0.663574
vt 0.406250 0.667969
vt 0.407227 0.664551
vt 0.404297 0.658691
vt 0.408936 0.659668
vt 0.400391 0.655762
vt 0.404785 0.640137
vt 0.404785 0.655762
vt 0.409424 0.640137
vt 0.409424 0.655762
vt 0.472168 0.751465
vt 0.469971 0.752930
vt 0.469971 0.730957
vt 0.470947 0.752930
vt 0.471680 0.752441
vt 0.412354 0.752441
vt 0.472168 0.732910
vt 0.470947 0.731445
vt 0.471680 0.731934
vt 0.412354 0.731445
vt 0.409668 0.750000
vt 0.410645 0.751465
vt 0.409668 0.734375
vt 0.410645 0.732422
vt 1.663086 0.424072
vt 1.663086 0.395996
vt 1.662109 0.422119
vt 1.662109 0.395996
vt 1.661133 0.420898
vt 1.661133 0.395996
vt 1.660156 0.420410
vt 1.660156 0.395996
vt 1.668945 0.424072
vt 1.671875 0.432373
vt 1.720703 0.395996
vt 1.674805 0.432373
vt 1.720703 0.423828
vt 1.722656 0.395996
vt 1.720703 0.431885
vt 1.722656 0.424072
vt 1.724609 0.395996
vt 1.721680 0.431885
vt 1.724609 0.424316
vt 1.723633 0.432129
s 1
f 2/1/1 3/2/1 1/3/2
f 78/4/3 2/1/1 1/3/2
f 1/3/2 3/2/1 61/5/4
f 3/2/1 62/6/5 61/5/4
f 62/6/5 254/7/6 61/5/4
f 71/8/7 78/4/3 1/3/2
f 71/8/7 96/9/8 78/4/3
f 1/3/2 61/5/4 255/10/9
f 255/10/9 71/8/7 1/3/2
f 254/7/6 41/11/10 61/5/4
f 254/7/6 42/12/11 41/11/10
f 61/5/4 91/13/12 255/10/9
f 91/13/12 61/5/4 41/11/10
f 42/12/11 43/14/13 41/11/10
f 42/12/11 98/15/14 43/14/13
f 91/13/12 41/11/10 260/16/15
f 41/11/10 43/14/13 260/16/15
f 98/15/14 94/17/16 43/14/13
f 43/14/13 94/17/16 260/16/15
f 98/15/14 95/18/17 94/17/16
f 260/16/15 92/19/18 91/13/12
f 94/17/16 92/19/18 260/16/15
f 92/19/18 93/20/19 91/13/12
f 91/13/12 93/20/19 255/10/9
f 92/19/18 94/17/16 251/21/20
f 92/19/18 251/21/20 93/20/19
f 95/18/17 86/22/21 94/17/16
f 94/17/16 86/22/21 251/21/20
f 95/18/17 87/23/22 86/22/21
f 86/22/21 88/24/23 251/21/20
f 87/23/22 88/24/23 86/22/21
f 88/24/23 93/20/19 251/21/20
f 88/24/23 87/23/22 253/25/24
f 83/26/25 88/24/23 253/25/24
f 88/24/23 83/26/25 93/20/19
f 253/25/24 84/27/26 83/26/25
f 72/28/27 255/10/9 93/20/19
f 93/20/19 83/26/25 72/28/27
f 255/10/9 72/28/27 71/8/7
f 84/27/26 85/29/28 83/26/25
f 83/26/25 85/29/28 72/28/27
f 85/29/28 84/27/26 292/30/26
f 85/29/28 292/30/26 256/31/29
f 72/28/27 85/29/28 73/32/30
f 72/28/27 73/32/30 71/8/7
f 85/29/28 256/31/29 73/32/30
f 71/8/7 73/32/30 96/9/8
f 73/32/30 256/31/29 97/33/31
f 73/32/30 97/33/31 96/9/8
f 5/34/32 6/35/33 4/36/34
f 231/37/35 294/38/36 6/35/33
f 5/34/32 231/37/35 6/35/33
f 230/39/37 231/37/35 5/34/32
f 60/40/38 5/34/32 4/36/34
f 59/41/39 230/39/37 5/34/32
f 5/34/32 60/40/38 59/41/39
f 229/42/40 230/39/37 59/41/39
f 60/40/38 4/36/34 180/43/41
f 56/44/42 229/42/40 59/41/39
f 60/40/38 58/45/43 59/41/39
f 59/41/39 58/45/43 56/44/42
f 58/45/43 60/40/38 69/46/44
f 69/46/44 60/40/38 180/43/41
f 229/42/40 56/44/42 65/47/45
f 64/48/46 229/42/40 65/47/45
f 58/45/43 57/49/47 56/44/42
f 65/47/45 56/44/42 55/50/48
f 56/44/42 57/49/47 55/50/48
f 64/48/46 65/47/45 63/51/49
f 472/52/50 64/48/46 63/51/49
f 472/52/50 63/51/49 429/53/51
f 63/51/49 65/47/45 70/54/52
f 65/47/45 55/50/48 70/54/52
f 63/51/49 326/55/53 429/53/51
f 326/55/53 63/51/49 70/54/52
f 55/50/48 89/56/54 70/54/52
f 55/50/48 57/49/47 89/56/54
f 429/53/51 326/55/53 329/57/55
f 430/58/56 429/53/51 329/57/55
f 328/59/57 326/55/53 70/54/52
f 430/58/56 329/57/55 296/60/58
f 461/61/59 430/58/56 296/60/58
f 461/61/59 296/60/58 460/62/60
f 502/63/61 461/61/59 460/62/60
f 460/62/60 296/60/58 295/64/62
f 296/60/58 297/65/63 295/64/62
f 296/60/58 329/57/55 297/65/63
f 295/64/62 297/65/63 395/66/64
f 329/57/55 326/55/53 327/67/65
f 329/57/55 327/67/65 297/65/63
f 326/55/53 328/59/57 327/67/65
f 297/65/63 327/67/65 331/68/66
f 297/65/63 331/68/66 395/66/64
f 327/67/65 328/59/57 303/69/67
f 327/67/65 303/69/67 331/68/66
f 331/68/66 303/69/67 330/70/68
f 330/70/68 303/69/67 302/71/69
f 298/72/70 331/68/66 330/70/68
f 303/69/67 304/73/71 302/71/69
f 328/59/57 304/73/71 303/69/67
f 302/71/69 304/73/71 239/74/72
f 90/75/73 304/73/71 328/59/57
f 304/73/71 90/75/73 239/74/72
f 70/54/52 90/75/73 328/59/57
f 89/56/54 90/75/73 70/54/52
f 90/75/73 89/56/54 239/74/72
f 89/56/54 53/76/74 239/74/72
f 89/56/54 54/77/75 53/76/74
f 57/49/47 54/77/75 89/56/54
f 54/77/75 13/78/76 53/76/74
f 54/77/75 57/49/47 14/79/77
f 54/77/75 14/79/77 13/78/76
f 57/49/47 58/45/43 14/79/77
f 14/79/77 15/80/78 13/78/76
f 14/79/77 58/45/43 69/46/44
f 14/79/77 69/46/44 15/80/78
f 69/46/44 8/81/79 15/80/78
f 69/46/44 214/82/80 8/81/79
f 180/43/41 214/82/80 69/46/44
f 9/83/81 8/81/79 214/82/80
f 8/81/79 9/83/81 7/84/82
f 8/81/79 7/84/82 210/85/83
f 8/81/79 210/85/83 471/86/84
f 7/84/82 9/83/81 209/87/85
f 210/85/83 7/84/82 209/87/85
f 76/88/86 9/83/81 214/82/80
f 9/83/81 76/88/86 209/87/85
f 214/82/80 180/43/41 40/89/87
f 40/89/87 76/88/86 214/82/80
f 180/43/41 38/90/88 40/89/87
f 38/90/88 180/43/41 179/91/89
f 76/88/86 40/89/87 77/92/90
f 209/87/85 76/88/86 75/93/91
f 76/88/86 77/92/90 75/93/91
f 40/89/87 39/94/92 77/92/90
f 39/94/92 40/89/87 38/90/88
f 77/92/90 39/94/92 213/95/93
f 77/92/90 213/95/93 75/93/91
f 39/94/92 178/96/94 213/95/93
f 213/95/93 212/97/95 75/93/91
f 178/96/94 39/94/92 177/98/96
f 177/98/96 39/94/92 38/90/88
f 38/90/88 179/91/89 177/98/96
f 238/99/97 178/96/94 177/98/96
f 179/91/89 211/100/98 177/98/96
f 238/99/97 177/98/96 211/100/98
f 485/101/99 238/99/97 211/100/98
f 37/102/100 75/93/91 212/97/95
f 477/103/101 37/102/100 212/97/95
f 477/103/101 228/104/102 37/102/100
f 37/102/100 36/105/103 75/93/91
f 36/105/103 209/87/85 75/93/91
f 228/104/102 35/106/104 37/102/100
f 36/105/103 37/102/100 35/106/104
f 36/105/103 210/85/83 209/87/85
f 228/104/102 219/107/105 35/106/104
f 210/85/83 36/105/103 34/108/106
f 34/108/106 36/105/103 35/106/104
f 219/107/105 28/109/107 35/106/104
f 34/108/106 35/106/104 28/109/107
f 219/107/105 218/110/108 28/109/107
f 218/110/108 26/111/109 28/109/107
f 27/112/110 28/109/107 26/111/109
f 27/112/110 34/108/106 28/109/107
f 221/113/111 27/112/110 26/111/109
f 30/114/112 210/85/83 34/108/106
f 34/108/106 27/112/110 30/114/112
f 30/114/112 471/86/84 210/85/83
f 471/86/84 30/114/112 29/115/113
f 27/112/110 25/116/114 30/114/112
f 27/112/110 221/113/111 25/116/114
f 30/114/112 25/116/114 29/115/113
f 29/115/113 25/116/114 24/117/115
f 221/113/111 22/118/116 25/116/114
f 25/116/114 22/118/116 24/117/115
f 24/117/115 22/118/116 19/119/117
f 22/118/116 23/120/118 19/119/117
f 22/118/116 220/121/119 23/120/118
f 23/120/118 20/122/120 19/119/117
f 220/121/119 10/123/121 23/120/118
f 23/120/118 10/123/121 20/122/120
f 220/121/119 11/124/122 10/123/121
f 20/122/120 21/125/123 19/119/117
f 21/125/123 20/122/120 305/126/124
f 493/127/125 21/125/123 305/126/124
f 423/128/126 305/126/124 20/122/120
f 244/129/127 423/128/126 20/122/120
f 10/123/121 244/129/127 20/122/120
f 423/128/126 244/129/127 301/130/128
f 11/124/122 12/131/129 10/123/121
f 11/124/122 217/132/130 12/131/129
f 217/132/130 134/133/131 12/131/129
f 12/131/129 134/133/131 133/134/132
f 244/129/127 274/135/133 301/130/128
f 274/135/133 244/129/127 10/123/121
f 12/131/129 274/135/133 10/123/121
f 274/135/133 12/131/129 133/134/132
f 420/136/134 301/130/128 274/135/133
f 133/134/132 420/136/134 274/135/133
f 17/137/135 18/138/136 16/139/137
f 491/140/138 424/141/139 17/137/135
f 491/140/138 17/137/135 224/142/140
f 424/141/139 425/143/141 17/137/135
f 424/141/139 426/144/142 425/143/141
f 425/143/141 18/138/136 17/137/135
f 426/144/142 427/145/143 425/143/141
f 427/145/143 18/138/136 425/143/141
f 18/138/136 427/145/143 426/144/142
f 437/146/144 18/138/136 426/144/142
f 17/137/135 222/147/145 224/142/140
f 17/137/135 16/139/137 222/147/145
f 223/148/146 224/142/140 222/147/145
f 225/149/147 223/148/146 222/147/145
f 222/147/145 16/139/137 225/149/147
f 226/150/148 223/148/146 225/149/147
f 433/151/149 18/138/136 437/146/144
f 433/151/149 16/139/137 18/138/136
f 500/152/150 433/151/149 437/146/144
f 227/153/151 226/150/148 225/149/147
f 227/153/151 225/149/147 16/139/137
f 226/150/148 227/153/151 16/139/137
f 242/154/152 226/150/148 16/139/137
f 500/152/150 432/155/153 433/151/149
f 242/154/152 16/139/137 235/156/154
f 235/156/154 16/139/137 433/151/149
f 236/157/155 242/154/152 235/156/154
f 234/158/156 236/157/155 235/156/154
f 52/159/157 235/156/154 433/151/149
f 52/159/157 234/158/156 235/156/154
f 432/155/153 50/160/158 433/151/149
f 50/160/158 52/159/157 433/151/149
f 234/158/156 52/159/157 51/161/159
f 51/161/159 52/159/157 50/160/158
f 233/162/160 234/158/156 51/161/159
f 240/163/161 50/160/158 432/155/153
f 240/163/161 51/161/159 50/160/158
f 431/164/162 240/163/161 432/155/153
f 233/162/160 51/161/159 232/165/163
f 51/161/159 240/163/161 232/165/163
f 484/166/164 233/162/160 232/165/163
f 241/167/165 240/163/161 431/164/162
f 240/163/161 241/167/165 232/165/163
f 293/168/166 241/167/165 431/164/162
f 484/166/164 232/165/163 293/168/166
f 232/165/163 241/167/165 293/168/166
f 32/169/167 33/170/168 31/171/169
f 31/171/169 33/170/168 79/172/170
f 33/170/168 80/173/171 79/172/170
f 262/174/172 32/169/167 31/171/169
f 79/172/170 80/173/171 81/175/173
f 80/173/171 82/176/174 81/175/173
f 262/174/172 288/177/175 32/169/167
f 32/169/167 288/177/175 287/178/176
f 490/179/175 288/177/175 262/174/172
f 288/177/175 289/180/175 287/178/176
f 170/181/175 490/179/175 262/174/172
f 287/178/176 289/180/175 438/182/177
f 438/182/177 289/180/175 489/183/175
f 314/184/178 315/185/179 287/178/176
f 438/182/177 314/184/178 287/178/176
f 354/186/180 314/184/178 438/182/177
f 438/182/177 489/183/175 387/187/175
f 352/188/181 354/186/180 438/182/177
f 352/188/181 438/182/177 387/187/175
f 353/189/182 354/186/180 352/188/181
f 386/190/183 353/189/182 352/188/181
f 352/188/181 387/187/175 386/190/183
f 387/187/175 388/191/175 386/190/183
f 476/192/175 170/181/175 169/193/184
f 170/181/175 124/194/185 169/193/184
f 262/174/172 124/194/185 170/181/175
f 169/193/184 124/194/185 123/195/186
f 117/196/187 124/194/185 262/174/172
f 124/194/185 117/196/187 123/195/186
f 31/171/169 117/196/187 262/174/172
f 123/195/186 117/196/187 116/197/188
f 109/198/189 117/196/187 31/171/169
f 117/196/187 109/198/189 116/197/188
f 79/172/170 109/198/189 31/171/169
f 116/197/188 109/198/189 108/199/190
f 110/200/191 109/198/189 79/172/170
f 109/198/189 110/200/191 108/199/190
f 110/200/191 122/201/192 108/199/190
f 81/175/173 110/200/191 79/172/170
f 120/202/193 122/201/192 110/200/191
f 120/202/193 110/200/191 81/175/173
f 121/203/192 122/201/192 120/202/193
f 473/204/194 120/202/193 81/175/173
f 81/175/173 181/205/195 473/204/194
f 473/204/194 181/205/195 155/206/196
f 473/204/194 155/206/196 154/207/197
f 181/205/195 183/208/198 155/206/196
f 183/208/198 243/209/199 155/206/196
f 182/210/200 183/208/198 181/205/195
f 243/209/199 248/211/201 155/206/196
f 181/205/195 215/212/202 182/210/200
f 81/175/173 215/212/202 181/205/195
f 215/212/202 257/213/203 182/210/200
f 215/212/202 216/214/204 257/213/203
f 81/175/173 216/214/204 215/212/202
f 216/214/204 258/215/205 257/213/203
f 258/215/205 216/214/204 261/216/206
f 248/211/201 156/217/207 155/206/196
f 155/206/196 156/217/207 154/207/197
f 248/211/201 188/218/208 156/217/207
f 154/207/197 156/217/207 175/219/209
f 156/217/207 176/220/210 175/219/209
f 188/218/208 176/220/210 156/217/207
f 175/219/209 176/220/210 47/221/211
f 176/220/210 188/218/208 48/222/212
f 176/220/210 48/222/212 47/221/211
f 48/222/212 188/218/208 187/223/213
f 48/222/212 49/224/14 47/221/211
f 187/223/213 190/225/214 48/222/212
f 48/222/212 74/226/14 49/224/14
f 190/225/214 44/227/215 48/222/212
f 48/222/212 44/227/215 74/226/14
f 44/227/215 190/225/214 189/228/216
f 74/226/14 44/227/215 237/229/14
f 44/227/215 189/228/216 252/230/217
f 252/230/217 45/231/218 44/227/215
f 252/230/217 189/228/216 174/232/219
f 252/230/217 174/232/219 45/231/218
f 189/228/216 249/233/220 174/232/219
f 45/231/218 46/234/221 44/227/215
f 174/232/219 66/235/222 45/231/218
f 46/234/221 325/236/223 44/227/215
f 237/229/14 44/227/215 325/236/223
f 237/229/14 325/236/223 324/237/14
f 324/237/14 325/236/223 323/238/224
f 325/236/223 392/239/225 323/238/224
f 392/239/225 391/240/226 323/238/224
f 391/240/226 392/239/225 373/241/227
f 372/242/228 391/240/226 373/241/227
f 372/242/228 373/241/227 371/243/229
f 439/244/230 372/242/228 371/243/229
f 371/243/229 389/245/231 439/244/230
f 439/244/230 389/245/231 338/246/232
f 351/247/233 439/244/230 338/246/232
f 390/248/231 338/246/232 389/245/231
f 338/246/232 390/248/231 494/249/234
f 390/248/231 496/250/231 494/249/234
f 497/251/231 496/250/231 390/248/231
f 497/251/231 499/252/231 496/250/231
f 498/253/231 499/252/231 497/251/231
f 494/249/234 339/254/235 338/246/232
f 345/255/236 351/247/233 338/246/232
f 350/256/237 351/247/233 345/255/236
f 344/257/238 350/256/237 345/255/236
f 339/254/235 335/258/239 338/246/232
f 345/255/236 338/246/232 335/258/239
f 339/254/235 336/259/240 335/258/239
f 336/259/240 337/260/241 335/258/239
f 343/261/242 345/255/236 335/258/239
f 343/261/242 335/258/239 337/260/241
f 344/257/238 345/255/236 343/261/242
f 346/262/243 343/261/242 337/260/241
f 347/263/244 344/257/238 343/261/242
f 347/263/244 343/261/242 346/262/243
f 495/264/245 347/263/244 346/262/243
f 67/265/246 68/266/247 66/235/222
f 174/232/219 67/265/246 66/235/222
f 174/232/219 249/233/220 67/265/246
f 249/233/220 250/267/248 67/265/246
f 250/267/248 185/268/249 67/265/246
f 67/265/246 184/269/250 68/266/247
f 185/268/249 184/269/250 67/265/246
f 185/268/249 186/270/251 184/269/250
f 68/266/247 184/269/250 483/271/252
f 259/272/253 184/269/250 186/270/251
f 184/269/250 259/272/253 483/271/252
f 261/216/206 259/272/253 186/270/251
f 216/214/204 259/272/253 261/216/206
f 259/272/253 216/214/204 483/271/252
f 483/271/252 216/214/204 81/175/173
f 483/271/252 81/175/173 478/273/252
f 82/176/174 478/273/252 81/175/173
f 479/274/252 478/273/252 82/176/174
f 478/273/252 479/274/252 481/275/252
f 480/276/252 481/275/252 479/274/252
f 482/277/252 481/275/252 480/276/252
f 100/278/254 101/279/255 99/280/256
f 112/281/257 100/278/254 99/280/256
f 112/281/257 99/280/256 111/282/258
f 153/283/259 112/281/257 111/282/258
f 153/283/259 111/282/258 152/284/260
f 464/285/261 153/283/259 152/284/260
f 463/286/175 464/285/261 152/284/260
f 503/287/175 463/286/175 152/284/260
f 467/288/175 464/285/261 463/286/175
f 465/289/175 467/288/175 463/286/175
f 466/290/175 467/288/175 465/289/175
f 504/291/175 466/290/175 465/289/175
f 101/279/255 100/278/254 128/292/262
f 462/293/263 101/279/255 128/292/262
f 142/294/264 128/292/262 100/278/254
f 127/295/265 462/293/263 128/292/262
f 105/296/266 128/292/262 142/294/264
f 127/295/265 128/292/262 105/296/266
f 142/294/264 106/297/267 105/296/266
f 140/298/268 127/295/265 105/296/266
f 106/297/267 107/299/269 105/296/266
f 105/296/266 107/299/269 140/298/268
f 107/299/269 136/300/270 140/298/268
f 107/299/269 106/297/267 141/301/271
f 136/300/270 107/299/269 135/302/272
f 135/302/272 107/299/269 141/301/271
f 168/303/273 136/300/270 135/302/272
f 168/303/273 135/302/272 167/304/274
f 475/305/275 168/303/273 167/304/274
f 167/304/274 135/302/272 488/306/276
f 141/301/271 488/306/276 135/302/272
f 141/301/271 246/307/14 488/306/276
f 247/308/277 246/307/14 141/301/271
f 246/307/14 247/308/277 245/309/14
f 487/310/278 245/309/14 247/308/277
f 486/311/279 487/310/278 247/308/277
f 383/312/280 487/310/278 486/311/279
f 486/311/279 384/313/281 383/312/280
f 384/313/281 385/314/282 383/312/280
f 103/315/283 104/316/284 102/317/285
f 104/316/284 103/315/283 272/318/286
f 191/319/287 104/316/284 272/318/286
f 103/315/283 119/320/288 272/318/286
f 119/320/288 273/321/289 272/318/286
f 118/322/290 103/315/283 102/317/285
f 119/320/288 103/315/283 118/322/290
f 102/317/285 194/323/291 118/322/290
f 194/323/291 264/324/292 118/322/290
f 102/317/285 195/325/293 194/323/291
f 195/325/293 102/317/285 104/316/284
f 195/325/293 196/326/294 194/323/291
f 118/322/290 264/324/292 263/327/295
f 263/327/295 119/320/288 118/322/290
f 264/324/292 265/328/296 263/327/295
f 263/327/295 265/328/296 125/329/297
f 263/327/295 125/329/297 119/320/288
f 265/328/296 266/330/298 125/329/297
f 196/326/294 195/325/293 149/331/299
f 198/332/300 196/326/294 149/331/299
f 150/333/301 195/325/293 104/316/284
f 195/325/293 150/333/301 149/331/299
f 150/333/301 104/316/284 191/319/287
f 129/334/302 125/329/297 266/330/298
f 151/335/303 150/333/301 191/319/287
f 150/333/301 151/335/303 149/331/299
f 192/336/304 151/335/303 191/319/287
f 199/337/305 129/334/302 266/330/298
f 197/338/306 149/331/299 151/335/303
f 197/338/306 198/332/300 149/331/299
f 192/336/304 193/339/307 151/335/303
f 193/339/307 197/338/306 151/335/303
f 193/339/307 192/336/304 278/340/308
f 271/341/309 198/332/300 197/338/306
f 147/342/310 193/339/307 278/340/308
f 197/338/306 193/339/307 147/342/310
f 278/340/308 277/343/311 147/342/310
f 146/344/312 271/341/309 197/338/306
f 146/344/312 197/338/306 147/342/310
f 277/343/311 145/345/313 147/342/310
f 146/344/312 147/342/310 145/345/313
f 145/345/313 277/343/311 276/346/314
f 146/344/312 144/347/315 271/341/309
f 144/347/315 146/344/312 145/345/313
f 144/347/315 270/348/316 271/341/309
f 143/349/317 145/345/313 276/346/314
f 144/347/315 145/345/313 143/349/317
f 143/349/317 276/346/314 284/350/318
f 270/348/316 144/347/315 137/351/319
f 137/351/319 144/347/315 143/349/317
f 268/352/320 270/348/316 137/351/319
f 267/353/321 268/352/320 137/351/319
f 138/354/322 143/349/317 284/350/318
f 143/349/317 138/354/322 137/351/319
f 284/350/318 205/355/323 138/354/322
f 139/356/324 267/353/321 137/351/319
f 138/354/322 139/356/324 137/351/319
f 269/357/325 267/353/321 139/356/324
f 205/355/323 158/358/326 138/354/322
f 206/359/327 158/358/326 205/355/323
f 139/356/324 138/354/322 157/360/328
f 157/360/328 269/357/325 139/356/324
f 138/354/322 158/358/326 157/360/328
f 207/361/329 269/357/325 157/360/328
f 158/358/326 206/359/327 159/362/330
f 158/358/326 159/362/330 157/360/328
f 159/362/330 207/361/329 157/360/328
f 206/359/327 208/363/331 159/362/330
f 159/362/330 208/363/331 207/361/329
f 114/364/332 115/365/333 113/366/334
f 115/365/333 131/367/335 113/366/334
f 115/365/333 148/368/336 131/367/335
f 148/368/336 115/365/333 114/364/332
f 131/367/335 132/369/337 113/366/334
f 148/368/336 279/370/338 131/367/335
f 279/370/338 148/368/336 281/371/339
f 113/366/334 132/369/337 367/372/340
f 132/369/337 452/373/341 367/372/340
f 367/372/340 452/373/341 454/374/342
f 286/375/343 113/366/334 367/372/340
f 286/375/343 114/364/332 113/366/334
f 376/376/344 367/372/340 454/374/342
f 454/374/342 457/377/345 376/376/344
f 457/377/345 458/378/346 376/376/344
f 458/378/346 378/379/347 376/376/344
f 114/364/332 286/375/343 285/380/348
f 377/381/349 286/375/343 367/372/340
f 377/381/349 367/372/340 376/376/344
f 286/375/343 377/381/349 285/380/348
f 377/381/349 453/382/350 285/380/348
f 280/383/351 114/364/332 285/380/348
f 455/384/352 453/382/350 377/381/349
f 160/385/353 114/364/332 280/383/351
f 283/386/354 160/385/353 280/383/351
f 160/385/353 148/368/336 114/364/332
f 160/385/353 283/386/354 282/387/355
f 379/388/356 455/384/352 377/381/349
f 379/388/356 377/381/349 376/376/344
f 378/379/347 379/388/356 376/376/344
f 455/384/352 379/388/356 459/389/357
f 379/388/356 378/379/347 459/389/357
f 161/390/358 148/368/336 160/385/353
f 148/368/336 161/390/358 281/371/339
f 290/391/359 281/371/339 161/390/358
f 474/392/360 290/391/359 161/390/358
f 474/392/360 161/390/358 162/393/361
f 163/394/362 161/390/358 160/385/353
f 161/390/358 163/394/362 162/393/361
f 163/394/362 160/385/353 282/387/355
f 291/395/363 162/393/361 163/394/362
f 282/387/355 291/395/363 163/394/362
f 125/329/297 126/396/364 119/320/288
f 119/320/288 126/396/364 273/321/289
f 126/396/364 275/397/365 273/321/289
f 125/329/297 129/334/302 126/396/364
f 275/397/365 126/396/364 130/398/366
f 129/334/302 130/398/366 126/396/364
f 200/399/367 275/397/365 130/398/366
f 166/400/368 130/398/366 129/334/302
f 130/398/366 166/400/368 200/399/367
f 164/401/369 166/400/368 129/334/302
f 164/401/369 129/334/302 199/337/305
f 200/399/367 166/400/368 165/402/370
f 165/402/370 166/400/368 164/401/369
f 204/403/371 200/399/367 165/402/370
f 202/404/372 164/401/369 199/337/305
f 202/404/372 165/402/370 164/401/369
f 203/405/373 202/404/372 199/337/305
f 204/403/371 165/402/370 172/406/374
f 172/406/374 165/402/370 202/404/372
f 204/403/371 172/406/374 171/407/375
f 202/404/372 203/405/373 201/408/376
f 201/408/376 172/406/374 202/404/372
f 203/405/373 406/409/377 201/408/376
f 201/408/376 405/410/378 172/406/374
f 406/409/377 405/410/378 201/408/376
f 172/406/374 173/411/379 171/407/375
f 405/410/378 173/411/379 172/406/374
f 406/409/377 407/412/380 405/410/378
f 405/410/378 407/412/380 173/411/379
f 407/412/380 406/409/377 402/413/381
f 380/414/382 171/407/375 173/411/379
f 407/412/380 380/414/382 173/411/379
f 171/407/375 380/414/382 403/415/383
f 381/416/384 407/412/380 402/413/381
f 407/412/380 381/416/384 380/414/382
f 358/417/385 381/416/384 402/413/381
f 381/416/384 382/418/386 380/414/382
f 380/414/382 382/418/386 403/415/383
f 381/416/384 358/417/385 382/418/386
f 382/418/386 404/419/387 403/415/383
f 358/417/385 404/419/387 382/418/386
f 403/415/383 404/419/387 448/420/388
f 358/417/385 402/413/381 451/421/389
f 404/419/387 357/422/390 448/420/388
f 404/419/387 358/417/385 357/422/390
f 447/423/391 448/420/388 357/422/390
f 355/424/392 358/417/385 451/421/389
f 358/417/385 355/424/392 357/422/390
f 451/421/389 441/425/393 355/424/392
f 348/426/394 447/423/391 357/422/390
f 357/422/390 355/424/392 348/426/394
f 441/425/393 356/427/395 355/424/392
f 355/424/392 356/427/395 348/426/394
f 441/425/393 440/428/396 356/427/395
f 446/429/397 447/423/391 348/426/394
f 440/428/396 349/430/398 356/427/395
f 356/427/395 349/430/398 348/426/394
f 440/428/396 399/431/399 349/430/398
f 340/432/400 446/429/397 348/426/394
f 349/430/398 340/432/400 348/426/394
f 399/431/399 341/433/401 349/430/398
f 349/430/398 341/433/401 340/432/400
f 340/432/400 342/434/402 446/429/397
f 341/433/401 342/434/402 340/432/400
f 342/434/402 396/435/403 446/429/397
f 400/436/404 341/433/401 399/431/399
f 342/434/402 341/433/401 400/436/404
f 442/437/405 400/436/404 399/431/399
f 342/434/402 368/438/406 396/435/403
f 368/438/406 342/434/402 400/436/404
f 369/439/407 400/436/404 442/437/405
f 400/436/404 369/439/407 368/438/406
f 401/440/408 369/439/407 442/437/405
f 368/438/406 370/441/409 396/435/403
f 369/439/407 370/441/409 368/438/406
f 370/441/409 398/442/410 396/435/403
f 401/440/408 366/443/411 369/439/407
f 370/441/409 369/439/407 366/443/411
f 397/444/412 398/442/410 370/441/409
f 397/444/412 370/441/409 366/443/411
f 450/445/413 398/442/410 397/444/412
f 401/440/408 445/446/414 366/443/411
f 365/447/415 450/445/413 397/444/412
f 397/444/412 366/443/411 365/447/415
f 449/448/416 450/445/413 365/447/415
f 445/446/414 363/449/417 366/443/411
f 366/443/411 363/449/417 365/447/415
f 360/450/418 363/449/417 445/446/414
f 501/451/419 360/450/418 445/446/414
f 365/447/415 363/449/417 362/452/420
f 362/452/420 449/448/416 365/447/415
f 363/449/417 360/450/418 362/452/420
f 456/453/421 449/448/416 362/452/420
f 501/451/419 443/454/422 360/450/418
f 359/455/423 456/453/421 362/452/420
f 362/452/420 360/450/418 359/455/423
f 456/453/421 359/455/423 408/456/424
f 443/454/422 361/457/425 360/450/418
f 360/450/418 361/457/425 359/455/423
f 443/454/422 444/458/426 361/457/425
f 444/458/426 374/459/427 361/457/425
f 359/455/423 361/457/425 374/459/427
f 444/458/426 410/460/428 374/459/427
f 359/455/423 375/461/429 408/456/424
f 375/461/429 359/455/423 374/459/427
f 375/461/429 409/462/430 408/456/424
f 410/460/428 412/463/431 374/459/427
f 412/463/431 375/461/429 374/459/427
f 409/462/430 375/461/429 412/463/431
f 411/464/432 412/463/431 410/460/428
f 411/464/432 409/462/430 412/463/431
f 299/465/433 300/466/434 298/72/70
f 299/465/433 298/72/70 414/467/435
f 299/465/433 413/468/436 300/466/434
f 299/465/433 414/467/435 413/468/436
f 419/469/437 298/72/70 300/466/434
f 298/72/70 419/469/437 331/68/66
f 395/66/64 331/68/66 419/469/437
f 414/467/435 298/72/70 492/470/438
f 413/468/436 332/471/439 300/466/434
f 419/469/437 300/466/434 332/471/439
f 419/469/437 364/472/440 395/66/64
f 364/472/440 419/469/437 332/471/439
f 364/472/440 320/473/441 395/66/64
f 395/66/64 320/473/441 394/474/442
f 364/472/440 332/471/439 334/475/443
f 413/468/436 333/476/444 332/471/439
f 333/476/444 334/475/443 332/471/439
f 321/477/445 364/472/440 334/475/443
f 364/472/440 321/477/445 320/473/441
f 334/475/443 418/478/446 321/477/445
f 418/478/446 334/475/443 333/476/444
f 418/478/446 393/479/447 321/477/445
f 415/480/448 418/478/446 333/476/444
f 322/481/449 321/477/445 393/479/447
f 321/477/445 322/481/449 320/473/441
f 394/474/442 320/473/441 322/481/449
f 435/482/450 322/481/449 393/479/447
f 434/483/451 394/474/442 322/481/449
f 322/481/449 435/482/450 434/483/451
f 435/482/450 436/484/452 434/483/451
f 333/476/444 416/485/453 415/480/448
f 416/485/453 417/486/454 415/480/448
f 417/486/454 416/485/453 428/487/455
f 319/488/456 416/485/453 333/476/444
f 413/468/436 319/488/456 333/476/444
f 414/467/435 319/488/456 413/468/436
f 416/485/453 318/489/457 428/487/455
f 416/485/453 319/488/456 318/489/457
f 428/487/455 318/489/457 422/490/458
f 317/491/459 319/488/456 414/467/435
f 319/488/456 317/491/459 318/489/457
f 318/489/457 316/492/460 422/490/458
f 318/489/457 317/491/459 316/492/460
f 422/490/458 316/492/460 421/493/461
f 316/492/460 309/494/462 421/493/461
f 316/492/460 310/495/463 309/494/462
f 317/491/459 310/495/463 316/492/460
f 310/495/463 311/496/464 309/494/462
f 312/497/465 317/491/459 414/467/435
f 317/491/459 312/497/465 310/495/463
f 312/497/465 414/467/435 492/470/438
f 492/470/438 313/498/466 312/497/465
f 312/497/465 306/499/467 310/495/463
f 313/498/466 306/499/467 312/497/465
f 310/495/463 306/499/467 311/496/464
f 313/498/466 307/500/468 306/499/467
f 306/499/467 308/501/469 311/496/464
f 307/500/468 308/501/469 306/499/467
f 469/502/26 470/503/26 468/504/26
f 470/503/26 469/502/26 513/505/26
f 512/506/26 513/505/26 469/502/26
f 508/507/26 468/504/26 470/503/26
f 469/502/26 468/504/26 510/508/26
f 509/509/26 510/508/26 468/504/26
f 511/510/26 510/508/26 509/509/26
f 468/504/26 508/507/26 506/511/26
f 508/507/26 515/512/26 506/511/26
f 514/513/26 515/512/26 508/507/26
f 507/514/26 506/511/26 515/512/26
f 506/511/26 507/514/26 505/515/26
f 517/516/470 518/517/471 516/518/472
f 518/517/471 523/519/473 516/518/472
f 516/518/472 523/519/473 522/520/474
f 523/519/473 532/521/475 522/520/474
f 522/520/474 532/521/475 531/522/476
f 532/521/475 535/523/476 531/522/476
f 518/517/471 517/516/470 524/524/477
f 517/516/470 533/525/478 524/524/477
f 524/524/477 530/526/479 518/517/471
f 533/525/478 525/527/480 524/524/477
f 524/524/477 519/528/481 530/526/479
f 524/524/477 525/527/480 519/528/481
f 521/529/482 530/526/479 519/528/481
f 525/527/480 528/530/483 519/528/481
f 520/531/484 521/529/482 519/528/481
f 520/531/484 519/528/481 528/530/483
f 521/529/482 520/531/484 529/532/485
f 527/533/486 520/531/484 528/530/483
f 520/531/484 526/534/487 529/532/485
f 520/531/484 527/533/486 526/534/487
f 527/533/486 534/535/488 526/534/487
