# Blender 3.6.5
# www.blender.org
o sights
v -0.000795 0.064618 -0.242053
v -0.000394 0.064216 -0.241592
v -0.000394 0.064787 -0.241672
v 0.000394 0.064216 -0.241592
v 0.000794 0.064618 -0.242053
v 0.000394 0.064787 -0.241672
v -0.000394 0.067802 -0.249701
v -0.000795 0.067802 -0.249304
v -0.000394 0.068201 -0.249304
v -0.000795 0.067802 -0.244716
v -0.000394 0.067893 -0.244275
v -0.000394 0.068201 -0.244932
v 0.000394 0.067893 -0.244275
v 0.000794 0.067802 -0.244716
v 0.000394 0.068201 -0.244932
v 0.000794 0.067802 -0.249304
v 0.000394 0.067802 -0.249701
v 0.000394 0.068201 -0.249304
v -0.000795 0.067802 -0.249304
v -0.000394 0.068201 -0.249304
v 0.000394 0.067802 -0.249701
v -0.000394 0.067802 -0.249701
v 0.000794 0.064618 -0.242053
v 0.000794 0.067802 -0.244716
v -0.000394 0.064787 -0.241672
v 0.000394 0.064216 -0.241592
v 0.000394 0.064787 -0.241672
v 0.000394 0.068201 -0.244932
v -0.000394 0.067893 -0.244275
v 0.000394 0.067893 -0.244275
v -0.000394 0.068201 -0.244932
v 0.000794 0.067802 -0.249304
v -0.000795 0.064618 -0.242053
v -0.000795 0.067802 -0.244716
v -0.004134 0.068718 -0.088001
v -0.003148 0.068757 -0.087585
v -0.003148 0.068718 -0.088001
v -0.002896 0.068506 -0.087560
v -0.002877 0.065215 -0.087696
v -0.002896 0.068470 -0.087981
v -0.004132 0.068530 -0.087309
v -0.003127 0.065270 -0.087019
v -0.003146 0.068530 -0.087309
v -0.004217 0.063491 -0.087164
v -0.004110 0.063856 -0.086893
v -0.004428 0.063804 -0.087174
v -0.002896 0.068506 -0.087560
v -0.003148 0.068757 -0.087585
v -0.003146 0.068530 -0.087309
v -0.002626 0.064998 -0.087244
v -0.003127 0.065270 -0.087019
v -0.002626 0.064769 -0.086973
v -0.004134 0.068757 -0.087585
v -0.004449 0.068499 -0.087590
v -0.004132 0.068530 -0.087309
v -0.003148 0.068718 -0.088001
v -0.002896 0.068470 -0.087981
v -0.003146 0.068446 -0.088232
v -0.002626 0.064967 -0.087670
v -0.003125 0.064698 -0.087896
v -0.002877 0.065215 -0.087696
v -0.004382 0.068470 -0.087981
v -0.004134 0.068718 -0.088001
v -0.004132 0.068446 -0.088232
v -0.003148 0.068718 -0.088001
v -0.002896 0.068506 -0.087560
v -0.002896 0.068470 -0.087981
v -0.004132 0.068530 -0.087309
v -0.003148 0.068757 -0.087585
v -0.004134 0.068757 -0.087585
v -0.002877 0.065249 -0.087269
v -0.002626 0.064967 -0.087670
v -0.002877 0.065215 -0.087696
v -0.004428 0.063804 -0.087174
v -0.004110 0.063856 -0.086893
v -0.004449 0.068499 -0.087590
v -0.004382 0.068470 -0.087981
v -0.003146 0.068446 -0.088232
v -0.003148 0.068718 -0.088001
v -0.004132 0.068446 -0.088232
v -0.004134 0.068718 -0.088001
v -0.004134 0.068757 -0.087585
v -0.003148 0.068757 -0.087585
v -0.002877 0.065249 -0.087269
v -0.004110 0.063856 -0.086893
v -0.004132 0.068530 -0.087309
v -0.003146 0.068530 -0.087309
v -0.003148 0.068757 -0.087585
v -0.002626 0.064998 -0.087244
v -0.004449 0.068499 -0.087590
v -0.004449 0.068499 -0.087590
v -0.004134 0.068757 -0.087585
v -0.003146 0.068446 -0.088232
v -0.000394 0.068201 -0.244932
v -0.000394 0.068201 -0.249304
v 0.000394 0.068201 -0.249304
v 0.000394 0.067893 -0.244275
v -0.000394 0.064216 -0.241592
v 0.000394 0.068201 -0.249304
v 0.000394 0.068201 -0.244932
v -0.000394 0.067893 -0.244275
v -0.000001 0.064983 -0.087460
v -0.002626 0.064998 -0.087244
v -0.000001 0.064998 -0.087244
v -0.002626 0.064967 -0.087670
v -0.002626 0.064769 -0.086973
v -0.000001 0.064414 -0.086943
v -0.000001 0.064769 -0.086973
v -0.004110 0.063856 -0.086893
v -0.000001 0.064884 -0.087109
v -0.000001 0.063522 -0.087159
v -0.000001 0.063720 -0.087009
v -0.004217 0.063491 -0.087164
v -0.000001 0.064967 -0.087670
v -0.000001 0.064844 -0.087776
v -0.000001 0.063856 -0.086893
v -0.000001 0.064698 -0.087896
v -0.003125 0.064698 -0.087896
v 0.004133 0.068718 -0.088001
v 0.003148 0.068718 -0.088001
v 0.003148 0.068757 -0.087585
v 0.002896 0.068506 -0.087560
v 0.002896 0.068470 -0.087981
v 0.002877 0.065215 -0.087696
v 0.004132 0.068530 -0.087309
v 0.003146 0.068530 -0.087309
v 0.003127 0.065270 -0.087019
v 0.004216 0.063491 -0.087164
v 0.004428 0.063804 -0.087174
v 0.004110 0.063856 -0.086893
v 0.002896 0.068506 -0.087560
v 0.003146 0.068530 -0.087309
v 0.003148 0.068757 -0.087585
v 0.002625 0.064998 -0.087244
v 0.002625 0.064769 -0.086973
v 0.003127 0.065270 -0.087019
v 0.004133 0.068757 -0.087585
v 0.004132 0.068530 -0.087309
v 0.004447 0.068499 -0.087590
v 0.003148 0.068718 -0.088001
v 0.003146 0.068446 -0.088232
v 0.002896 0.068470 -0.087981
v 0.002625 0.064967 -0.087670
v 0.002877 0.065215 -0.087696
v 0.003124 0.064698 -0.087896
v 0.004382 0.068470 -0.087981
v 0.004132 0.068446 -0.088232
v 0.004133 0.068718 -0.088001
v 0.003148 0.068718 -0.088001
v 0.002896 0.068470 -0.087981
v 0.002896 0.068506 -0.087560
v 0.004132 0.068530 -0.087309
v 0.004133 0.068757 -0.087585
v 0.003148 0.068757 -0.087585
v 0.002877 0.065249 -0.087269
v 0.002877 0.065215 -0.087696
v 0.002625 0.064967 -0.087670
v 0.004110 0.063856 -0.086893
v 0.004428 0.063804 -0.087174
v 0.004447 0.068499 -0.087590
v 0.004382 0.068470 -0.087981
v 0.003146 0.068446 -0.088232
v 0.003148 0.068718 -0.088001
v 0.004133 0.068718 -0.088001
v 0.004132 0.068446 -0.088232
v 0.003148 0.068757 -0.087585
v 0.004133 0.068757 -0.087585
v 0.002877 0.065249 -0.087269
v 0.004110 0.063856 -0.086893
v 0.004132 0.068530 -0.087309
v 0.003148 0.068757 -0.087585
v 0.003146 0.068530 -0.087309
v 0.002625 0.064998 -0.087244
v 0.004447 0.068499 -0.087590
v 0.004447 0.068499 -0.087590
v 0.004133 0.068757 -0.087585
v 0.003146 0.068446 -0.088232
v 0.002625 0.064998 -0.087244
v -0.000001 0.064983 -0.087460
v -0.000001 0.064998 -0.087244
v 0.002625 0.064967 -0.087670
v -0.000001 0.064414 -0.086943
v 0.002625 0.064769 -0.086973
v -0.000001 0.064769 -0.086973
v 0.004110 0.063856 -0.086893
v -0.000001 0.064884 -0.087109
v -0.000001 0.063522 -0.087159
v -0.000001 0.063720 -0.087009
v 0.004216 0.063491 -0.087164
v -0.000001 0.064967 -0.087670
v -0.000001 0.064844 -0.087776
v -0.000001 0.063856 -0.086893
v -0.000001 0.064698 -0.087896
v 0.003124 0.064698 -0.087896
vn -0.7077 0.0983 0.6997
vn -0.7214 0.2814 0.6327
vn -0.7202 0.3345 0.6078
vn -0.7077 0.4537 0.5416
vn 0.7209 0.3341 0.6072
vn 0.7222 0.2811 0.6320
vn 0.7084 0.0982 0.6990
vn 0.7084 0.4533 0.5410
vn -0.6825 0.6847 -0.2556
vn -0.5747 0.5766 -0.5808
vn -0.7060 0.7083 -0.0000
vn -0.6656 0.5657 0.4868
vn -0.6673 0.7349 0.1211
vn -0.6419 0.7441 0.1851
vn -0.7059 0.7083 -0.0000
vn -0.7042 0.4554 0.5447
vn 0.6427 0.7435 0.1851
vn 0.6681 0.7342 0.1209
vn 0.6664 0.5651 0.4864
vn 0.7067 0.7075 -0.0000
vn 0.7049 0.4550 0.5441
vn 0.5755 0.5762 -0.5804
vn 0.6832 0.6840 -0.2556
vn -0.0000 0.7045 -0.7097
vn -0.0000 0.9232 -0.3844
vn -0.0000 0.9761 0.2173
vn -0.0000 0.7926 0.6098
vn -0.0000 0.4064 0.9137
vn -0.0000 0.1391 0.9903
vn -0.0000 0.9956 -0.0936
vn -0.5571 0.8217 -0.1202
vn -0.6322 0.7714 -0.0725
vn -0.7028 0.6909 -0.1696
vn 0.8807 -0.0372 -0.4721
vn 0.9245 -0.0280 -0.3802
vn 0.9243 0.0392 0.3796
vn 0.7090 -0.0577 -0.7028
vn 0.5253 0.0773 -0.8474
vn 0.9240 0.0393 0.3805
vn 0.3040 0.2148 -0.9282
vn 0.2926 0.0866 0.9523
vn 0.3828 0.0843 0.9200
vn -0.3558 0.0813 0.9310
vn -0.5116 0.0738 0.8560
vn -0.6666 0.0630 0.7428
vn -0.6662 0.0630 0.7431
vn -0.5810 -0.3681 0.7259
vn 0.5775 0.6321 0.5167
vn 0.2780 0.3604 0.8904
vn 0.2819 0.3625 0.8883
vn 0.5753 0.6256 0.5270
vn -0.0008 0.0889 0.9960
vn 0.6608 0.6942 0.2854
vn 0.7049 0.7072 -0.0544
vn 0.7033 0.7086 -0.0564
vn 0.7070 0.7053 -0.0518
vn -0.5405 0.6481 0.5364
vn 0.5739 0.5325 -0.6222
vn -0.3064 0.8696 -0.3872
vn -0.5764 0.5274 -0.6242
vn 0.7051 0.7062 -0.0641
vn 0.7028 0.7088 -0.0614
vn 0.7047 0.7067 -0.0635
vn 0.6273 0.7760 0.0658
vn -0.0000 0.7722 0.6353
vn -0.0000 0.6478 -0.7618
vn -0.0000 0.7722 0.6354
vn -0.0000 0.9508 0.3097
vn -0.0000 0.9507 0.3101
vn -0.0000 0.9973 -0.0732
vn -0.0000 0.7628 0.6466
vn 0.0002 0.3681 0.9298
vn -0.0000 0.4584 0.8888
vn -0.0000 0.0870 0.9962
vn -0.0001 0.8413 -0.5405
vn -0.0000 0.8926 -0.4508
vn -0.0007 0.6435 -0.7655
vn -0.0012 0.6365 -0.7713
vn -0.0000 0.6432 -0.7657
vn 0.0028 -0.4583 0.8888
vn -0.0000 -0.3027 0.9531
vn 0.0012 -0.6258 0.7800
vn 0.0025 -0.6040 0.7970
vn 0.0035 -0.5963 0.8027
vn 0.5565 0.8222 -0.1195
vn 0.6321 0.7715 -0.0725
vn 0.7018 0.6923 -0.1681
vn -0.9245 -0.0280 -0.3802
vn -0.8811 -0.0371 -0.4714
vn -0.9243 0.0392 0.3796
vn -0.7091 -0.0577 -0.7028
vn -0.5259 0.0777 -0.8470
vn -0.9240 0.0393 0.3805
vn -0.3042 0.2151 -0.9280
vn -0.2926 0.0866 0.9523
vn -0.3828 0.0843 0.9200
vn 0.3564 0.0813 0.9308
vn 0.5116 0.0738 0.8560
vn 0.6666 0.0630 0.7427
vn 0.6671 0.0630 0.7423
vn 0.5805 -0.3693 0.7257
vn -0.5775 0.6321 0.5167
vn -0.2819 0.3625 0.8883
vn -0.2780 0.3604 0.8904
vn -0.5753 0.6256 0.5270
vn 0.0008 0.0889 0.9960
vn -0.6608 0.6942 0.2854
vn -0.7033 0.7086 -0.0564
vn -0.7049 0.7072 -0.0544
vn -0.7070 0.7053 -0.0518
vn 0.5410 0.6487 0.5353
vn -0.5739 0.5325 -0.6221
vn 0.5758 0.5286 -0.6237
vn 0.3059 0.8700 -0.3867
vn -0.7028 0.7088 -0.0614
vn -0.7051 0.7062 -0.0641
vn -0.7047 0.7067 -0.0635
vn -0.6273 0.7760 0.0658
vn -0.0002 0.3681 0.9298
vn 0.0001 0.8414 -0.5405
vn 0.0007 0.6435 -0.7655
vn 0.0012 0.6365 -0.7712
vn -0.0028 -0.4582 0.8888
vn -0.0012 -0.6259 0.7799
vn -0.0025 -0.6040 0.7970
vn -0.0035 -0.5963 0.8027
vt 0.733887 0.985840
vt 0.810547 0.928223
vt 1.000000 0.926270
vt 0.806152 0.545898
vt 0.000000 0.925293
vt 0.198486 0.926270
vt 0.278564 0.987305
vt 0.188354 0.545898
vt 1.000000 0.061829
vt 0.804199 0.073303
vt 0.745117 0.016327
vt 0.812012 0.477783
vt 1.000000 0.512207
vt 0.000000 0.511230
vt 0.192505 0.477783
vt 0.000000 0.059326
vt 0.274414 0.012642
vt 0.202026 0.073669
vt 0.906738 0.201050
vt 0.913086 0.140381
vt 0.969727 0.621582
vt 0.940430 0.724121
vt 0.937012 0.986816
vt 0.993652 0.821777
vt 0.601074 0.077820
vt 0.902344 0.109924
vt 0.896973 0.173950
vt 0.911621 0.034363
vt 0.583008 0.040710
vt 0.612793 0.144409
vt 0.560059 0.110901
vt 0.631836 0.190063
vt 0.897461 0.229004
vt 0.922852 0.900391
vt 0.662109 0.916016
vt 0.835938 0.986816
vt 0.785156 0.984863
vt 0.568848 0.256592
vt 0.567383 0.187744
vt 0.998047 0.513672
vt 0.500000 0.187134
vt 0.500000 0.148682
vt 0.500000 0.222290
vt 0.500000 0.256592
vt 0.500000 0.596680
vt 0.500000 0.109375
vt 0.500000 0.083862
vt 0.500000 0.035309
vt 0.500000 0.917480
vt 0.500000 0.946289
vt 0.500000 0.980469
s 1
f 2/1/1 3/2/2 1/3/3
f 3/2/2 101/4/4 1/3/3
f 5/5/5 6/6/6 4/7/7
f 6/6/6 5/5/5 97/8/8
f 8/9/9 9/10/10 7/11/10
f 95/10/11 8/9/9 94/12/11
f 11/4/12 12/12/13 10/13/14
f 19/9/15 10/13/14 12/12/13
f 11/4/12 34/13/16 33/3/16
f 14/14/17 15/15/18 13/8/19
f 15/15/18 14/14/17 32/16/20
f 23/5/21 24/14/21 13/8/19
f 17/17/22 18/18/22 16/16/23
f 99/18/20 100/15/20 16/16/23
f 21/17/24 22/11/24 20/10/25
f 96/18/25 21/17/24 20/10/25
f 96/18/25 20/10/25 28/15/26
f 20/10/25 31/12/26 28/15/26
f 31/12/26 29/4/27 28/15/26
f 29/4/27 30/8/27 28/15/26
f 30/8/27 29/4/27 27/6/28
f 29/4/27 25/2/28 27/6/28
f 26/7/29 27/6/28 25/2/28
f 98/1/29 26/7/29 25/2/28
f 36/19/30 37/20/30 35/21/31
f 92/22/32 35/21/31 91/23/32
f 35/21/31 77/24/33 76/23/33
f 39/25/34 40/26/35 38/27/36
f 40/26/35 39/25/34 78/28/37
f 39/25/34 60/29/38 78/28/37
f 84/30/39 39/25/34 38/27/36
f 60/29/38 61/25/40 59/31/40
f 84/30/39 38/27/36 42/32/41
f 38/27/36 43/33/42 42/32/41
f 42/32/41 43/33/42 41/34/43
f 75/35/44 42/32/41 41/34/43
f 74/36/45 75/35/44 41/34/43
f 90/23/46 74/36/45 41/34/43
f 45/35/47 46/36/47 44/37/47
f 48/19/48 49/33/48 47/27/48
f 51/32/49 52/38/50 50/39/51
f 51/32/49 85/35/52 52/38/50
f 71/30/53 51/32/49 50/39/51
f 72/31/54 73/25/55 71/30/53
f 89/39/56 72/31/54 71/30/53
f 54/23/57 55/34/57 53/22/57
f 57/26/58 58/28/58 56/20/58
f 63/21/59 64/40/60 62/24/60
f 82/22/30 83/19/30 63/21/59
f 66/27/61 67/26/62 65/20/63
f 69/19/64 66/27/61 65/20/63
f 69/19/64 70/22/65 68/34/65
f 80/40/66 81/21/66 79/20/66
f 93/28/66 80/40/66 79/20/66
f 87/33/67 88/19/67 86/34/67
f 103/39/68 104/41/69 102/42/70
f 103/39/68 110/43/71 104/41/69
f 110/43/71 103/39/68 106/38/72
f 110/43/71 106/38/72 108/44/73
f 107/45/74 108/44/73 106/38/72
f 103/39/68 102/42/70 105/31/75
f 105/31/75 102/42/70 114/46/76
f 115/47/77 105/31/75 114/46/76
f 105/31/75 115/47/77 117/48/78
f 105/31/75 117/48/78 118/29/79
f 107/45/74 106/38/72 109/35/80
f 107/45/74 109/35/80 116/49/81
f 109/35/80 112/50/82 116/49/81
f 111/51/83 112/50/82 109/35/80
f 111/51/83 109/35/80 113/37/84
f 120/20/30 121/19/30 119/21/85
f 119/21/85 176/22/86 175/23/86
f 161/24/87 119/21/85 160/23/87
f 123/26/88 124/25/89 122/27/90
f 124/25/89 123/26/88 162/28/91
f 145/29/92 124/25/89 162/28/91
f 124/25/89 168/30/93 122/27/90
f 144/25/94 145/29/92 143/31/94
f 122/27/90 168/30/93 127/32/95
f 126/33/96 122/27/90 127/32/95
f 126/33/96 127/32/95 125/34/97
f 127/32/95 158/35/98 125/34/97
f 158/35/98 159/36/99 125/34/97
f 159/36/99 174/23/100 125/34/97
f 129/36/101 130/35/101 128/37/101
f 132/33/102 133/19/102 131/27/102
f 135/38/103 136/32/104 134/39/105
f 169/35/106 136/32/104 135/38/103
f 136/32/104 155/30/107 134/39/105
f 156/25/108 157/31/109 155/30/107
f 157/31/109 173/39/110 155/30/107
f 138/34/111 139/23/111 137/22/111
f 141/28/112 142/26/112 140/20/112
f 147/40/113 148/21/114 146/24/113
f 166/19/30 167/22/30 148/21/114
f 150/26/115 151/27/116 149/20/117
f 151/27/116 154/19/118 149/20/117
f 153/22/65 154/19/118 152/34/65
f 164/21/66 165/40/66 163/20/66
f 165/40/66 177/28/66 163/20/66
f 171/19/67 172/33/67 170/34/67
f 179/42/70 180/41/69 178/39/68
f 186/43/71 178/39/68 180/41/69
f 186/43/71 183/38/119 178/39/68
f 186/43/71 184/44/73 183/38/119
f 183/38/119 184/44/73 182/45/74
f 179/42/70 178/39/68 181/31/120
f 179/42/70 181/31/120 190/46/76
f 181/31/120 191/47/121 190/46/76
f 193/48/122 191/47/121 181/31/120
f 193/48/122 181/31/120 194/29/79
f 183/38/119 182/45/74 185/35/123
f 185/35/123 182/45/74 192/49/81
f 188/50/124 185/35/123 192/49/81
f 185/35/123 188/50/124 187/51/125
f 185/35/123 187/51/125 189/37/126
