# Blender 3.6.5
# www.blender.org
o thumbgrip
v -0.010433 0.004441 0.008819
v -0.009044 0.002081 0.008298
v -0.008913 0.004050 0.009802
v -0.011688 0.004762 0.007756
v -0.010673 0.002665 0.007220
v -0.011873 0.003259 0.006247
v -0.010702 0.000093 0.005826
v -0.009198 -0.000366 0.007039
v -0.000001 -0.011540 0.009908
v -0.003236 -0.015329 0.011718
v -0.000001 -0.015439 0.012475
v -0.010779 -0.009427 0.003915
v -0.009402 -0.006850 0.005059
v -0.010455 -0.006589 0.003965
v -0.009283 -0.003564 0.005746
v -0.011692 -0.002051 0.003599
v -0.010742 -0.002930 0.004457
v -0.000001 -0.007332 0.008524
v -0.003047 -0.011461 0.009356
v -0.009435 -0.010457 0.005495
v -0.007506 -0.007095 0.006473
v -0.010414 0.007049 0.012239
v -0.011372 0.006976 0.010850
v -0.010430 0.006181 0.010931
v -0.005082 0.007240 0.015970
v -0.007029 0.007772 0.014797
v -0.007208 0.007417 0.015027
v -0.002568 0.007086 0.016522
v -0.000001 0.007404 0.016542
v -0.002507 0.007464 0.016281
v -0.008866 0.006024 0.012229
v -0.007032 0.005445 0.012866
v -0.004809 0.003338 0.011497
v -0.004822 0.005043 0.013448
v -0.003408 -0.017491 0.013508
v -0.000001 -0.017562 0.014285
v -0.008651 -0.017145 0.010605
v -0.005861 -0.015154 0.010570
v -0.008193 -0.014891 0.008925
v -0.013210 -0.016143 0.003098
v -0.014988 -0.020942 0.005249
v -0.015337 -0.020663 0.005470
v -0.009813 -0.021007 0.013563
v -0.006264 -0.017361 0.012330
v -0.007862 -0.011093 0.007029
v -0.005287 -0.007239 0.007511
v -0.002916 -0.007301 0.008142
v -0.005152 -0.004117 0.007947
v -0.007080 0.001622 0.009326
v -0.006953 0.003698 0.010815
v -0.007261 -0.000715 0.008208
v -0.005058 -0.000919 0.009070
v -0.004937 0.001262 0.010103
v -0.007366 -0.003947 0.006999
v -0.012274 -0.020939 0.011247
v -0.003669 -0.020953 0.016502
v -0.000001 -0.020903 0.017304
v -0.012346 -0.013850 0.002170
v -0.012856 -0.016404 0.002857
v -0.000001 0.001084 0.010815
v -0.002584 0.003147 0.011928
v -0.002667 0.001129 0.010585
v -0.000001 -0.022452 0.018573
v -0.003914 -0.025298 0.019681
v -0.000001 -0.025238 0.020569
v -0.012742 -0.025379 0.013618
v -0.010532 -0.028347 0.016898
v -0.010793 -0.028104 0.017259
v -0.006942 -0.020997 0.015333
v -0.010238 -0.022549 0.014636
v -0.007233 -0.022523 0.016497
v -0.012743 -0.022397 0.012169
v -0.014029 -0.020786 0.008880
v -0.010648 -0.016829 0.008433
v -0.012134 -0.016459 0.006232
v -0.000001 0.002975 0.012234
v -0.002426 0.004762 0.013829
v -0.005588 -0.011393 0.008418
v -0.009855 -0.014581 0.007109
v -0.011314 -0.014208 0.005064
v -0.003894 -0.029500 0.022504
v -0.000001 -0.027502 0.022008
v -0.003922 -0.027512 0.021190
v -0.000001 -0.004177 0.008774
v -0.002746 -0.001000 0.009582
v -0.002809 -0.004153 0.008514
v -0.003829 -0.022497 0.017725
v -0.014881 -0.022447 0.008263
v -0.012370 -0.025684 0.013232
v -0.006017 -0.031208 0.022680
v -0.007011 -0.029416 0.021406
v -0.013344 -0.015966 0.003785
v -0.012519 -0.013770 0.002872
v -0.007598 -0.027515 0.019927
v -0.010813 -0.027387 0.017475
v -0.009901 -0.028879 0.018914
v -0.010612 -0.008939 0.003208
v -0.010056 -0.006500 0.002927
v -0.010225 -0.009017 0.002892
v -0.003782 -0.032048 0.023161
v -0.000001 -0.032196 0.023637
v -0.000001 -0.031954 0.024044
v -0.008753 0.007597 0.013929
v -0.008533 0.007986 0.013709
v -0.007871 -0.031524 0.021035
v -0.008927 -0.031005 0.019445
v -0.007663 -0.031761 0.020644
v -0.010576 -0.025368 0.016462
v -0.007615 -0.025353 0.018407
v -0.003816 -0.031362 0.023327
v -0.000001 -0.029468 0.023156
v -0.012579 0.004472 0.005334
v -0.012256 0.006546 0.006819
v -0.012241 0.004712 0.005044
v -0.012347 0.001402 0.003339
v -0.011963 0.001572 0.003048
v -0.010738 -0.003835 0.004096
v -0.011619 -0.001174 0.002130
v -0.012015 -0.001321 0.002411
v -0.014980 -0.021831 0.008674
v -0.012766 -0.024706 0.013884
v -0.015061 -0.021638 0.006001
v -0.015424 -0.021372 0.006222
v -0.011448 0.007766 0.010715
v -0.010187 0.008165 0.012114
v -0.011220 0.008040 0.010494
v -0.000001 -0.001015 0.009822
v -0.005674 -0.032196 0.022168
v -0.005787 -0.031923 0.022569
v -0.010632 -0.004304 0.003384
v -0.010422 -0.006521 0.003273
v -0.000001 0.004699 0.014045
v -0.002586 0.006335 0.016341
v -0.012105 -0.001566 0.003113
v -0.011799 0.000625 0.004713
v -0.012370 0.001063 0.004005
v -0.008773 0.006893 0.013789
v -0.007625 0.001496 0.007817
v -0.010323 0.006128 0.008920
v -0.007499 0.005516 0.010860
v -0.004405 -0.016936 0.011287
v -0.000001 -0.011967 0.009010
v -0.000001 -0.017121 0.012610
v -0.007741 -0.002966 0.005811
v -0.009934 0.002094 0.006046
v -0.004009 -0.011811 0.008007
v -0.000001 -0.007439 0.007516
v -0.003462 0.004796 0.012004
v -0.007029 0.007772 0.014797
v -0.004960 0.007613 0.015730
v -0.002507 0.007464 0.016281
v -0.000001 0.004561 0.012455
v -0.012975 -0.020517 0.007887
v -0.012856 -0.016404 0.002857
v -0.011090 -0.015775 0.005003
v -0.011010 -0.021636 0.011196
v -0.008830 -0.016388 0.008072
v -0.003814 -0.007343 0.006854
v -0.008156 -0.010979 0.005384
v -0.007842 -0.006975 0.004963
v -0.003613 0.001011 0.009291
v -0.003721 -0.003352 0.007496
v -0.005006 -0.021430 0.015012
v -0.000001 -0.021414 0.016396
v -0.011935 -0.014002 0.001909
v -0.000001 0.000923 0.009757
v -0.005390 -0.025248 0.017811
v -0.000001 -0.025183 0.019290
v -0.005412 -0.028983 0.020268
v -0.009782 -0.029674 0.018076
v -0.010532 -0.028347 0.016898
v -0.000001 -0.028988 0.021737
v -0.000001 -0.003405 0.008002
v -0.014479 -0.022783 0.007942
v -0.012370 -0.025684 0.013232
v -0.009853 -0.025259 0.015328
v -0.011221 -0.003125 0.002020
v -0.009902 -0.002403 0.003910
v -0.010421 -0.003845 0.002917
v -0.003677 -0.032309 0.022745
v -0.010187 0.008165 0.012114
v -0.008533 0.007986 0.013709
v -0.007663 -0.031761 0.020644
v -0.008927 -0.031005 0.019445
v -0.005674 -0.032196 0.022168
v -0.012256 0.006546 0.006819
v -0.011893 0.007399 0.008719
v -0.012241 0.004712 0.005044
v -0.011963 0.001572 0.003048
v -0.010056 -0.006500 0.002927
v -0.010257 -0.004223 0.003063
v -0.011619 -0.001174 0.002130
v -0.015061 -0.021638 0.006001
v -0.014988 -0.020942 0.005249
v -0.011220 0.008040 0.010494
v -0.011398 -0.002752 0.001894
v -0.010225 -0.009017 0.002892
v -0.012204 -0.010551 0.002115
v -0.015340 -0.020227 0.006036
v -0.015421 -0.020799 0.006643
v -0.007268 0.006674 0.014837
v -0.005105 0.006491 0.015790
v -0.007848 -0.030827 0.021356
v -0.009032 -0.030097 0.020197
v -0.003677 -0.032309 0.022745
v -0.012536 0.003985 0.005901
v -0.011910 -0.002925 0.002872
v -0.011622 -0.003219 0.002301
v -0.010421 -0.003845 0.002917
v -0.010801 -0.003939 0.003233
v -0.014479 -0.022783 0.007942
v -0.010022 -0.029424 0.018442
v -0.009782 -0.029674 0.018076
v -0.012485 0.005656 0.007536
v -0.004960 0.007613 0.015730
v -0.011348 0.005659 0.009175
v -0.010439 -0.011138 0.003419
v -0.011619 -0.010715 0.001177
v -0.010422 0.007777 0.012320
v -0.011398 -0.002752 0.001894
v -0.011796 -0.002857 0.002180
v -0.011884 -0.010264 0.001548
v -0.010376 -0.009385 0.002712
v -0.011462 -0.010355 0.001298
v -0.009133 -0.030728 0.019811
v -0.012135 0.007161 0.008945
v -0.011893 0.007399 0.008719
v -0.012568 0.006269 0.007099
v -0.012041 -0.010616 0.001428
v -0.011884 -0.010264 0.001548
v -0.011622 -0.003219 0.002301
v -0.010769 -0.009299 0.003018
v -0.010376 -0.009385 0.002712
v -0.012028 0.006478 0.009241
v -0.000001 0.006275 0.016607
v -0.011619 -0.010715 0.001177
v -0.010257 -0.004223 0.003063
v -0.011221 -0.003125 0.002020
v -0.011935 -0.014002 0.001909
v -0.011462 -0.010355 0.001298
v 0.009044 0.002081 0.008298
v 0.010433 0.004441 0.008819
v 0.008914 0.004050 0.009802
v 0.010673 0.002665 0.007220
v 0.011688 0.004762 0.007756
v 0.010701 0.000093 0.005826
v 0.011873 0.003259 0.006247
v 0.009199 -0.000366 0.007039
v 0.003236 -0.015329 0.011718
v 0.009402 -0.006850 0.005059
v 0.010779 -0.009427 0.003915
v 0.010455 -0.006589 0.003965
v 0.009283 -0.003564 0.005746
v 0.011692 -0.002051 0.003599
v 0.011799 0.000625 0.004713
v 0.003047 -0.011461 0.009356
v 0.009436 -0.010457 0.005495
v 0.007507 -0.007095 0.006473
v 0.007861 -0.011093 0.007029
v 0.010414 0.007049 0.012239
v 0.010429 0.006181 0.010931
v 0.011371 0.006976 0.010850
v 0.007029 0.007772 0.014797
v 0.005082 0.007240 0.015970
v 0.007208 0.007417 0.015027
v 0.002567 0.007086 0.016522
v -0.000001 0.007026 0.016788
v 0.008866 0.006024 0.012229
v 0.007033 0.005445 0.012866
v 0.004809 0.003338 0.011497
v 0.006953 0.003698 0.010815
v 0.003407 -0.017491 0.013508
v 0.005862 -0.015154 0.010570
v 0.008650 -0.017145 0.010605
v 0.008194 -0.014891 0.008925
v 0.014988 -0.020942 0.005249
v 0.013210 -0.016143 0.003098
v 0.015336 -0.020663 0.005470
v 0.006264 -0.017361 0.012330
v 0.009812 -0.021007 0.013563
v 0.005287 -0.007239 0.007511
v 0.002916 -0.007301 0.008142
v 0.005152 -0.004117 0.007947
v 0.002808 -0.004153 0.008514
v 0.007080 0.001622 0.009326
v 0.007261 -0.000715 0.008208
v 0.005059 -0.000919 0.009070
v 0.004937 0.001262 0.010103
v 0.007367 -0.003947 0.006999
v 0.012275 -0.020939 0.011247
v 0.003668 -0.020953 0.016502
v 0.012856 -0.016404 0.002857
v 0.012345 -0.013850 0.002170
v 0.002584 0.003147 0.011928
v 0.002667 0.001129 0.010585
v 0.003913 -0.025298 0.019681
v 0.010532 -0.028347 0.016898
v 0.012742 -0.025379 0.013618
v 0.010794 -0.028104 0.017259
v 0.006942 -0.020997 0.015333
v 0.010238 -0.022549 0.014636
v 0.012743 -0.022397 0.012169
v 0.010648 -0.016829 0.008433
v 0.014028 -0.020786 0.008880
v 0.012134 -0.016459 0.006232
v 0.002425 0.004762 0.013829
v 0.005589 -0.011393 0.008418
v 0.009856 -0.014581 0.007109
v 0.011314 -0.014208 0.005064
v 0.003894 -0.029500 0.022504
v 0.003922 -0.027512 0.021190
v 0.002745 -0.001000 0.009582
v 0.003827 -0.022497 0.017725
v 0.012370 -0.025684 0.013232
v 0.014881 -0.022447 0.008263
v 0.006017 -0.031208 0.022680
v 0.007011 -0.029416 0.021406
v 0.013344 -0.015966 0.003785
v 0.004822 0.005043 0.013448
v 0.007598 -0.027515 0.019927
v 0.009901 -0.028879 0.018914
v 0.010813 -0.027387 0.017475
v 0.010611 -0.008939 0.003208
v 0.010057 -0.006500 0.002927
v 0.010422 -0.006521 0.003273
v 0.003781 -0.032048 0.023161
v 0.008753 0.007597 0.013929
v 0.007872 -0.031524 0.021035
v 0.008927 -0.031005 0.019445
v 0.009133 -0.030728 0.019811
v 0.007233 -0.022523 0.016497
v 0.010576 -0.025368 0.016462
v 0.003816 -0.031362 0.023327
v 0.012580 0.004472 0.005334
v 0.012255 0.006546 0.006819
v 0.012568 0.006269 0.007099
v 0.012347 0.001402 0.003339
v 0.012241 0.004712 0.005044
v 0.010737 -0.003835 0.004096
v 0.011619 -0.001174 0.002130
v 0.012014 -0.001321 0.002411
v 0.014979 -0.021831 0.008674
v 0.012767 -0.024706 0.013884
v 0.015060 -0.021638 0.006001
v 0.015425 -0.021372 0.006222
v 0.007615 -0.025353 0.018407
v 0.011448 0.007766 0.010715
v 0.010187 0.008165 0.012114
v 0.010423 0.007777 0.012320
v 0.005674 -0.032196 0.022168
v 0.005787 -0.031923 0.022569
v 0.010633 -0.004304 0.003384
v 0.002585 0.006335 0.016341
v 0.012105 -0.001566 0.003113
v 0.012371 0.001063 0.004005
v 0.008772 0.006893 0.013789
v 0.010323 0.006128 0.008920
v 0.007624 0.001496 0.007817
v 0.007498 0.005516 0.010860
v 0.004403 -0.016936 0.011287
v 0.009934 0.002094 0.006046
v 0.007740 -0.002966 0.005811
v 0.004009 -0.011811 0.008007
v 0.007029 0.007772 0.014797
v 0.003462 0.004796 0.012004
v 0.004960 0.007613 0.015730
v 0.002506 0.007464 0.016281
v 0.012974 -0.020517 0.007887
v 0.012856 -0.016404 0.002857
v 0.014988 -0.020942 0.005249
v 0.011010 -0.021636 0.011196
v 0.008830 -0.016388 0.008072
v 0.008156 -0.010979 0.005384
v 0.003813 -0.007343 0.006854
v 0.007842 -0.006975 0.004963
v 0.003612 0.001011 0.009291
v 0.003719 -0.003352 0.007496
v 0.005006 -0.021430 0.015012
v 0.011089 -0.015775 0.005003
v 0.011935 -0.014002 0.001909
v 0.005390 -0.025248 0.017811
v 0.005412 -0.028983 0.020268
v 0.010532 -0.028347 0.016898
v 0.009781 -0.029674 0.018076
v 0.014479 -0.022783 0.007942
v 0.012370 -0.025684 0.013232
v 0.009853 -0.025259 0.015328
v 0.011221 -0.003125 0.002020
v 0.010422 -0.003845 0.002917
v 0.009901 -0.002403 0.003910
v 0.003676 -0.032309 0.022745
v 0.010187 0.008165 0.012114
v 0.008534 0.007986 0.013709
v 0.008927 -0.031005 0.019445
v 0.007663 -0.031761 0.020644
v 0.005674 -0.032196 0.022168
v 0.012255 0.006546 0.006819
v 0.011893 0.007399 0.008719
v 0.012241 0.004712 0.005044
v 0.011964 0.001572 0.003048
v 0.010258 -0.004223 0.003063
v 0.015060 -0.021638 0.006001
v 0.011221 0.008040 0.010494
v 0.011619 -0.001174 0.002130
v 0.011397 -0.002752 0.001894
v 0.010226 -0.009017 0.002892
v 0.010057 -0.006500 0.002927
v 0.012205 -0.010551 0.002115
v 0.015341 -0.020227 0.006036
v 0.015421 -0.020799 0.006643
v 0.007269 0.006674 0.014837
v 0.005105 0.006491 0.015790
v 0.007848 -0.030827 0.021356
v 0.009031 -0.030097 0.020197
v 0.011911 -0.002925 0.002872
v 0.010741 -0.002930 0.004457
v 0.010422 -0.003845 0.002917
v 0.011621 -0.003219 0.002301
v 0.010801 -0.003939 0.003233
v 0.010021 -0.029424 0.018442
v 0.012536 0.003985 0.005901
v 0.012485 0.005656 0.007536
v 0.004960 0.007613 0.015730
v 0.011348 0.005659 0.009175
v 0.012028 0.006478 0.009241
v 0.010439 -0.011138 0.003419
v 0.011619 -0.010715 0.001177
v 0.008534 0.007986 0.013709
v 0.011397 -0.002752 0.001894
v 0.011796 -0.002857 0.002180
v 0.011884 -0.010264 0.001548
v 0.010376 -0.009385 0.002712
v 0.010769 -0.009299 0.003018
v 0.009781 -0.029674 0.018076
v 0.012134 0.007161 0.008945
v 0.011221 0.008040 0.010494
v 0.011893 0.007399 0.008719
v 0.012040 -0.010616 0.001428
v 0.011884 -0.010264 0.001548
v 0.011621 -0.003219 0.002301
v 0.010376 -0.009385 0.002712
v 0.012519 -0.013770 0.002872
v 0.011619 -0.010715 0.001177
v 0.011463 -0.010355 0.001298
v 0.010258 -0.004223 0.003063
v 0.011221 -0.003125 0.002020
v 0.010226 -0.009017 0.002892
v 0.011463 -0.010355 0.001298
v -0.000001 -0.031278 0.024199
v -0.000001 0.007404 0.016542
v -0.000001 -0.032196 0.023637
v -0.011221 -0.003125 0.002020
v -0.011462 -0.010355 0.001298
v 0.002506 0.007464 0.016281
v 0.011935 -0.014002 0.001909
v 0.014479 -0.022783 0.007942
v 0.003676 -0.032309 0.022745
v 0.007663 -0.031761 0.020644
v 0.011964 0.001572 0.003048
v 0.011221 -0.003125 0.002020
v 0.011463 -0.010355 0.001298
vn -0.5502 -0.4214 0.7209
vn -0.5011 -0.5887 0.6343
vn -0.5891 -0.5571 0.5852
vn -0.6480 -0.4117 0.6408
vn -0.5529 -0.6645 0.5027
vn -0.4316 -0.4411 0.7869
vn -0.6766 -0.5021 0.5385
vn -0.5925 -0.3171 0.7405
vn -0.6380 -0.5944 0.4895
vn -0.4600 -0.7277 0.5088
vn -0.9101 -0.2574 0.3248
vn -0.3929 -0.6201 0.6790
vn -0.4525 -0.3299 0.8285
vn -0.2879 -0.4640 0.8378
vn -0.2957 -0.3509 0.8885
vn -0.3181 -0.2125 0.9239
vn -0.4852 -0.2081 0.8493
vn -0.6464 -0.2132 0.7327
vn -0.1666 -0.2105 0.9633
vn -0.1502 -0.3658 0.9185
vn -0.1463 -0.4829 0.8634
vn -0.7030 -0.3132 0.6385
vn -0.2624 -0.6358 0.7259
vn -0.3571 -0.7643 0.5369
vn -0.1583 -0.6568 0.7373
vn -0.2363 -0.7895 0.5664
vn -0.5859 -0.4764 0.6556
vn -0.4580 -0.5292 0.7142
vn -0.6892 -0.4076 0.5990
vn -0.5953 0.2620 0.7596
vn -0.7233 0.2989 0.6224
vn -0.8052 -0.3202 0.4991
vn -0.4568 0.6202 0.6377
vn -0.5854 0.6358 0.5031
vn -0.3387 0.6233 0.7048
vn -0.8427 0.4050 0.3547
vn -0.6758 0.7146 0.1803
vn -0.8613 -0.3023 0.4083
vn -0.9165 0.3767 0.1344
vn -0.7295 0.6802 -0.0719
vn -0.9440 0.3150 -0.0979
vn -0.7693 0.5553 -0.3159
vn -0.9382 0.1951 -0.2860
vn -0.7405 0.3973 -0.5421
vn -0.8906 0.1218 -0.4381
vn -0.6538 0.2656 -0.7085
vn -0.9283 -0.2427 0.2818
vn -0.6046 0.1141 -0.7883
vn -0.8519 0.0183 -0.5234
vn -0.5300 -0.2185 -0.8193
vn -0.9632 -0.1744 0.2045
vn -0.7233 -0.4046 0.5596
vn -0.7826 -0.2724 -0.5597
vn -0.4326 -0.4647 -0.7726
vn -0.6669 -0.5039 -0.5489
vn -0.9039 -0.4000 0.1515
vn -0.9733 -0.1622 0.1625
vn -0.7895 -0.2959 0.5378
vn -0.8012 -0.2491 0.5440
vn -0.7396 -0.2647 0.6188
vn -0.8423 -0.2859 0.4569
vn -0.6517 -0.7143 -0.2553
vn -0.4539 -0.8501 -0.2670
vn -0.3404 -0.7018 -0.6258
vn -0.1689 -0.8369 -0.5206
vn -0.5840 -0.2761 -0.7634
vn -0.8839 -0.2575 -0.3904
vn -0.6807 0.0219 -0.7322
vn -0.9040 0.0076 -0.4274
vn -0.9370 -0.0147 0.3491
vn -0.8601 0.2809 -0.4257
vn -0.5491 0.3307 -0.7675
vn -0.6708 -0.0169 0.7414
vn -0.8545 0.2706 0.4434
vn -0.6232 0.7321 -0.2750
vn -0.2987 0.7409 -0.6015
vn -0.4085 0.8709 -0.2733
vn -0.1127 0.8576 -0.5018
vn -0.9212 0.3790 0.0885
vn -0.5198 0.0074 0.8543
vn -0.6598 0.2137 0.7204
vn -0.7403 0.3883 0.5488
vn -0.3483 0.0431 0.9364
vn -0.5449 0.2964 0.7844
vn -0.1996 0.0768 0.9769
vn -0.3871 0.3618 0.8481
vn -0.6487 0.4518 0.6125
vn -0.5233 0.5080 0.6841
vn -0.2315 0.4042 0.8849
vn -0.0000 0.1037 0.9946
vn -0.3707 0.5562 0.7438
vn -0.5946 0.5778 0.5591
vn -0.4838 0.6054 0.6320
vn -0.6730 0.5505 0.4939
vn -0.6726 0.5592 0.4847
vn -0.5971 0.5778 0.5564
vn -0.3467 0.6296 0.6952
vn -0.4844 0.6006 0.6361
vn -0.2268 0.5817 0.7811
vn -0.6527 0.4922 0.5759
vn -0.0000 0.4344 0.9007
vn -0.5148 0.5425 0.6639
vn -0.3447 0.6216 0.7034
vn -0.2131 0.6416 0.7369
vn -0.3632 0.5779 0.7308
vn -0.2189 0.6350 0.7408
vn -0.0000 0.6048 0.7964
vn -0.0000 0.6578 0.7532
vn -0.0000 0.6505 0.7595
vn -0.2293 0.5910 0.7734
vn -0.3924 0.5301 0.7517
vn -0.5539 0.4621 0.6926
vn -0.8403 0.1667 0.5159
vn -0.7772 0.1638 0.6075
vn -0.9217 0.1433 0.3604
vn -0.8701 -0.4927 0.0137
vn -0.9391 0.2444 0.2415
vn -0.9166 0.3822 0.1170
vn -0.9118 -0.3675 -0.1832
vn -0.8952 0.4316 0.1110
vn -0.8842 -0.0819 -0.4598
vn -0.6930 -0.6170 -0.3729
vn -0.7024 -0.6957 -0.1504
vn -0.6745 -0.3139 -0.6682
vn -0.7041 -0.6988 -0.1260
vn -0.8208 0.0814 -0.5653
vn -0.6088 -0.1068 -0.7861
vn -0.8839 -0.4510 0.1237
vn -0.7651 -0.6309 -0.1287
vn -0.8017 -0.0053 -0.5978
vn -0.5634 -0.1181 -0.8177
vn -0.9591 0.2545 0.1240
vn -0.4808 0.1579 -0.8625
vn -0.7517 0.2170 -0.6228
vn -0.6347 0.4857 -0.6010
vn -0.3869 0.4396 -0.8106
vn -0.8999 -0.4047 0.1624
vn -0.8975 -0.4112 0.1596
vn -0.7962 -0.5957 -0.1060
vn -0.7765 0.1107 0.6203
vn -0.4247 0.4841 0.7650
vn -0.7441 0.0663 0.6648
vn -0.8295 -0.4621 0.3136
vn -0.7417 -0.6662 0.0779
vn -0.6381 -0.6029 0.4789
vn -0.5195 -0.8247 0.2237
vn -0.6468 -0.0192 0.7624
vn -0.3360 -0.8245 0.4554
vn -0.4265 0.4203 0.8009
vn -0.4387 0.0447 0.8975
vn -0.3987 -0.5704 0.7181
vn -0.2137 -0.5937 0.7758
vn -0.1434 -0.8545 0.4992
vn -0.0000 -0.8585 0.5127
vn -0.2395 0.0795 0.9676
vn -0.0000 -0.5599 0.8285
vn -0.2125 0.4655 0.8592
vn -0.0000 0.1452 0.9894
vn -0.2265 0.5401 0.8105
vn -0.0000 0.4862 0.8739
vn 0.2395 0.0794 0.9677
vn 0.2137 -0.5938 0.7757
vn 0.1435 -0.8544 0.4994
vn 0.3359 -0.8245 0.4554
vn -0.0000 0.5276 0.8495
vn 0.2125 0.4655 0.8592
vn 0.3986 -0.5704 0.7182
vn 0.4387 0.0447 0.8975
vn 0.6382 -0.6029 0.4788
vn 0.5190 -0.8252 0.2232
vn 0.7423 -0.6655 0.0784
vn 0.8297 -0.4616 0.3140
vn 0.7962 -0.5957 -0.1058
vn 0.6467 -0.0190 0.7625
vn 0.4266 0.4202 0.8009
vn 0.7441 0.0662 0.6647
vn 0.8974 -0.4113 0.1597
vn 0.7651 -0.6310 -0.1287
vn 0.2265 0.5402 0.8105
vn 0.4247 0.4841 0.7650
vn 0.7764 0.1106 0.6204
vn 0.8999 -0.4048 0.1626
vn 0.8838 -0.4513 0.1235
vn 0.7772 0.1637 0.6075
vn 0.7035 -0.6993 -0.1266
vn 0.8701 -0.4926 0.0137
vn 0.7018 -0.6962 -0.1509
vn 0.8403 0.1667 0.5159
vn 0.6923 -0.6174 -0.3734
vn 0.9117 -0.3676 -0.1834
vn 0.8839 -0.0821 -0.4603
vn 0.6745 -0.3139 -0.6682
vn 0.9389 0.2444 0.2422
vn 0.8208 0.0813 -0.5654
vn 0.6088 -0.1068 -0.7861
vn 0.9168 0.3820 0.1167
vn 0.8952 0.4315 0.1110
vn 0.8014 -0.0055 -0.5982
vn 0.5634 -0.1181 -0.8177
vn 0.4809 0.1574 -0.8625
vn 0.9592 0.2543 0.1236
vn 0.7515 0.2164 -0.6233
vn 0.6353 0.4846 -0.6014
vn 0.3871 0.4390 -0.8108
vn 0.9213 0.3788 0.0882
vn 0.7403 0.3882 0.5488
vn 0.6731 0.5505 0.4939
vn 0.6727 0.5591 0.4847
vn 0.6487 0.4518 0.6124
vn 0.8545 0.2706 0.4434
vn 0.5947 0.5778 0.5590
vn 0.9216 0.1438 0.3606
vn 0.6527 0.4923 0.5759
vn 0.5972 0.5776 0.5565
vn 0.5148 0.5425 0.6638
vn 0.4844 0.6007 0.6361
vn 0.4838 0.6054 0.6320
vn 0.5233 0.5080 0.6841
vn 0.5538 0.4621 0.6926
vn 0.3447 0.6216 0.7035
vn 0.3924 0.5302 0.7517
vn 0.3632 0.5779 0.7309
vn 0.2335 0.5564 0.7975
vn 0.2293 0.5911 0.7734
vn 0.2188 0.6350 0.7408
vn -0.0000 0.5634 0.8262
vn -0.0000 0.6049 0.7963
vn -0.2335 0.5563 0.7975
vn 0.2130 0.6416 0.7369
vn 0.3467 0.6296 0.6953
vn 0.2268 0.5817 0.7811
vn 0.3706 0.5561 0.7439
vn 0.2315 0.4042 0.8849
vn 0.3871 0.3618 0.8481
vn 0.5448 0.2964 0.7844
vn 0.1996 0.0769 0.9769
vn 0.3482 0.0431 0.9364
vn 0.6598 0.2137 0.7204
vn 0.5197 0.0074 0.8543
vn 0.6710 -0.0168 0.7413
vn 0.6464 -0.2131 0.7326
vn 0.4852 -0.2081 0.8493
vn 0.3181 -0.2125 0.9239
vn 0.1665 -0.2105 0.9633
vn 0.4524 -0.3300 0.8285
vn 0.2957 -0.3509 0.8885
vn -0.0000 -0.2005 0.9797
vn 0.1501 -0.3658 0.9185
vn -0.0000 -0.3719 0.9283
vn -0.0000 -0.5057 0.8627
vn 0.1463 -0.4829 0.8634
vn 0.2878 -0.4640 0.8378
vn 0.4315 -0.4411 0.7869
vn 0.2624 -0.6358 0.7259
vn 0.1583 -0.6568 0.7373
vn -0.0000 -0.6750 0.7378
vn 0.3929 -0.6201 0.6790
vn -0.1331 -0.7962 0.5902
vn 0.1330 -0.7963 0.5902
vn -0.2946 -0.5591 0.7750
vn -0.0000 -0.7938 0.6081
vn -0.1521 -0.5764 0.8029
vn -0.4592 0.2382 0.8558
vn -0.2942 0.1942 0.9358
vn -0.2190 0.5773 0.7866
vn -0.1504 0.1676 0.9743
vn -0.1127 0.5462 0.8300
vn -0.0000 0.5449 0.8385
vn -0.0000 0.1597 0.9872
vn -0.0000 -0.5792 0.8152
vn 0.1503 0.1676 0.9743
vn 0.1127 0.5462 0.8300
vn 0.2188 0.5776 0.7864
vn 0.1521 -0.5764 0.8029
vn 0.2942 0.1944 0.9358
vn 0.3385 0.6237 0.7045
vn 0.2946 -0.5592 0.7749
vn 0.2363 -0.7896 0.5664
vn 0.4592 0.2385 0.8557
vn 0.5954 0.2617 0.7596
vn 0.4580 -0.5293 0.7142
vn 0.4567 0.6202 0.6378
vn 0.3571 -0.7643 0.5369
vn 0.7234 0.2988 0.6224
vn 0.5858 -0.4767 0.6554
vn 0.5854 0.6358 0.5031
vn 0.4601 -0.7277 0.5088
vn 0.6893 -0.4076 0.5989
vn 0.8428 0.4047 0.3548
vn 0.6759 0.7146 0.1802
vn 0.8050 -0.3207 0.4991
vn 0.5530 -0.6645 0.5026
vn 0.5011 -0.5887 0.6343
vn 0.9165 0.3769 0.1341
vn 0.7294 0.6803 -0.0719
vn 0.8615 -0.3022 0.4081
vn 0.6380 -0.5944 0.4896
vn 0.9099 -0.2576 0.3251
vn 0.9440 0.3152 -0.0979
vn 0.7685 0.5561 -0.3165
vn 0.9381 0.1950 -0.2861
vn 0.7397 0.3978 -0.5427
vn 0.5892 -0.5571 0.5852
vn 0.6768 -0.5020 0.5385
vn 0.8907 0.1218 -0.4381
vn 0.6546 0.2653 -0.7079
vn 0.9281 -0.2430 0.2821
vn 0.6047 0.1141 -0.7883
vn 0.8516 0.0184 -0.5238
vn 0.5300 -0.2185 -0.8193
vn 0.9633 -0.1742 0.2043
vn 0.7233 -0.4047 0.5596
vn 0.6481 -0.4118 0.6407
vn 0.7824 -0.2723 -0.5601
vn 0.4326 -0.4647 -0.7726
vn 0.6666 -0.5039 -0.5493
vn 0.9040 -0.4000 0.1511
vn 0.9733 -0.1623 0.1623
vn 0.7892 -0.2960 0.5380
vn 0.8010 -0.2491 0.5444
vn 0.7031 -0.3132 0.6384
vn 0.7395 -0.2646 0.6189
vn 0.8423 -0.2858 0.4571
vn 0.5926 -0.3171 0.7405
vn 0.5503 -0.4215 0.7208
vn 0.9370 -0.0148 0.3489
vn 0.8843 -0.2569 -0.3899
vn 0.8602 0.2815 -0.4252
vn 0.9043 0.0074 -0.4269
vn 0.6815 0.0218 -0.7315
vn 0.5842 -0.2759 -0.7633
vn 0.5496 0.3310 -0.7671
vn 0.6520 -0.7139 -0.2555
vn 0.3407 -0.7020 -0.6254
vn 0.4538 -0.8501 -0.2672
vn 0.1690 -0.8368 -0.5207
vn 0.6232 0.7324 -0.2743
vn 0.2987 0.7409 -0.6015
vn 0.4085 0.8709 -0.2733
vn 0.1127 0.8576 -0.5018
vn 0.6042 0.5964 -0.5284
vn 0.4321 0.6659 -0.6082
vn 0.4959 0.4370 -0.7504
vn 0.5981 0.6695 -0.4405
vn 0.6079 0.6550 -0.4489
vn 0.6614 0.5620 -0.4967
vn 0.5310 0.7120 -0.4594
vn 0.7153 0.4489 -0.5356
vn 0.4805 0.7414 -0.4684
vn 0.3459 0.7959 -0.4970
vn 0.6887 0.3922 -0.6099
vn 0.7569 0.3287 -0.5649
vn 0.2175 0.7089 -0.6709
vn 0.2346 0.8185 -0.5245
vn 0.1274 0.8212 -0.5563
vn 0.2402 0.4691 -0.8499
vn -0.0000 0.7276 -0.6860
vn -0.0000 0.8209 -0.5711
vn -0.1274 0.8212 -0.5563
vn -0.0000 0.4872 -0.8733
vn -0.2175 0.7089 -0.6709
vn -0.2346 0.8185 -0.5245
vn -0.3458 0.7959 -0.4970
vn -0.4321 0.6659 -0.6082
vn -0.4804 0.7415 -0.4684
vn -0.5310 0.7121 -0.4593
vn -0.2401 0.4691 -0.8499
vn -0.6042 0.5965 -0.5283
vn -0.6078 0.6551 -0.4488
vn -0.5981 0.6696 -0.4404
vn -0.6614 0.5620 -0.4967
vn -0.7152 0.4489 -0.5357
vn -0.0000 0.2522 -0.9677
vn -0.4959 0.4370 -0.7504
vn -0.6886 0.3922 -0.6099
vn -0.7568 0.3287 -0.5650
vn -0.2699 0.2549 -0.9285
vn -0.5532 0.2522 -0.7940
vn -0.7284 0.2369 -0.6429
vn -0.7775 0.2521 -0.5761
vn -0.7740 0.1828 -0.6062
vn -0.7820 0.1527 -0.6042
vn -0.7940 0.1233 -0.5953
vn -0.7196 0.1370 -0.6808
vn -0.5769 0.0181 -0.8166
vn -0.6808 0.0403 -0.7313
vn -0.7286 -0.0490 -0.6832
vn -0.3130 -0.0381 -0.9490
vn -0.5716 -0.2852 -0.7693
vn -0.7752 -0.1619 -0.6106
vn -0.0000 -0.0789 -0.9969
vn -0.3326 -0.3988 -0.8546
vn -0.7531 -0.2755 -0.5975
vn -0.8468 -0.2132 -0.4873
vn -0.8515 -0.1981 -0.4855
vn -0.8452 -0.3038 -0.4398
vn -0.7190 -0.4587 -0.5222
vn -0.7272 -0.5155 -0.4532
vn -0.6682 -0.5334 -0.5185
vn -0.7001 -0.5590 -0.4443
vn -0.7075 -0.5301 -0.4674
vn -0.6944 -0.4843 -0.5322
vn -0.5396 -0.5227 -0.6600
vn -0.5644 -0.5574 -0.6089
vn -0.6241 -0.4961 -0.6037
vn -0.3273 -0.5829 -0.7437
vn -0.0000 -0.4514 -0.8923
vn -0.5045 -0.5234 -0.6867
vn -0.4801 -0.4711 -0.7400
vn -0.3211 -0.6123 -0.7224
vn -0.0000 -0.6216 -0.7833
vn -0.3245 -0.5481 -0.7709
vn -0.3356 -0.5040 -0.7959
vn -0.4565 -0.4472 -0.7692
vn -0.4502 -0.4756 -0.7558
vn -0.4550 -0.4710 -0.7558
vn -0.3183 -0.5017 -0.8044
vn -0.2196 -0.5040 -0.8354
vn -0.0000 -0.5259 -0.8505
vn -0.0000 -0.5097 -0.8604
vn 0.2196 -0.5039 -0.8354
vn -0.0000 -0.5745 -0.8185
vn 0.3356 -0.5040 -0.7959
vn 0.3183 -0.5017 -0.8044
vn 0.4550 -0.4711 -0.7557
vn 0.4503 -0.4755 -0.7558
vn 0.4565 -0.4472 -0.7692
vn 0.4801 -0.4712 -0.7400
vn -0.0000 -0.6319 -0.7750
vn 0.3246 -0.5481 -0.7709
vn 0.3211 -0.6123 -0.7225
vn 0.5044 -0.5234 -0.6867
vn 0.6240 -0.4962 -0.6037
vn 0.5644 -0.5574 -0.6090
vn 0.6944 -0.4843 -0.5323
vn 0.3274 -0.5829 -0.7437
vn 0.6682 -0.5334 -0.5186
vn 0.7075 -0.5301 -0.4674
vn 0.7001 -0.5590 -0.4443
vn 0.7272 -0.5155 -0.4532
vn 0.3326 -0.3988 -0.8546
vn 0.5396 -0.5227 -0.6601
vn 0.7189 -0.4587 -0.5223
vn 0.8452 -0.3038 -0.4398
vn 0.5717 -0.2852 -0.7693
vn 0.7531 -0.2757 -0.5974
vn 0.8513 -0.1989 -0.4856
vn 0.8465 -0.2144 -0.4873
vn 0.7752 -0.1621 -0.6105
vn 0.7287 -0.0491 -0.6830
vn 0.3130 -0.0381 -0.9490
vn 0.5770 0.0181 -0.8166
vn 0.6810 0.0403 -0.7312
vn 0.7197 0.1371 -0.6806
vn 0.5532 0.2523 -0.7939
vn 0.2700 0.2549 -0.9285
vn 0.7284 0.2370 -0.6429
vn 0.7940 0.1236 -0.5952
vn 0.7820 0.1529 -0.6043
vn 0.7775 0.2520 -0.5762
vn 0.7740 0.1828 -0.6062
vt 0.021576 0.340088
vt 0.022339 0.343994
vt 0.019348 0.343994
vt 0.018265 0.340332
vt 0.020340 0.348145
vt 0.025421 0.339844
vt 0.016739 0.343750
vt 0.020905 0.335449
vt 0.018021 0.345947
vt 0.023407 0.348877
vt 0.015266 0.344971
vt 0.026062 0.344238
vt 0.024826 0.335449
vt 0.029480 0.339844
vt 0.029068 0.335449
vt 0.028534 0.329102
vt 0.024139 0.329346
vt 0.020157 0.329834
vt 0.033112 0.329102
vt 0.033417 0.335449
vt 0.033691 0.339844
vt 0.017670 0.335693
vt 0.029984 0.344238
vt 0.026611 0.348633
vt 0.033966 0.344238
vt 0.030426 0.348633
vt 0.024170 0.351562
vt 0.026886 0.352295
vt 0.020950 0.350342
vt 0.023895 0.352783
vt 0.020538 0.351562
vt 0.018768 0.349121
vt 0.023636 0.353516
vt 0.020187 0.352051
vt 0.026596 0.354248
vt 0.018005 0.350098
vt 0.017548 0.350586
vt 0.016922 0.347168
vt 0.016006 0.347900
vt 0.015472 0.348145
vt 0.014259 0.345215
vt 0.013573 0.345703
vt 0.013252 0.341797
vt 0.012512 0.342041
vt 0.012436 0.336426
vt 0.011665 0.336426
vt 0.014343 0.341553
vt 0.011757 0.332031
vt 0.012520 0.332031
vt 0.012207 0.329590
vt 0.013565 0.336182
vt 0.015686 0.340576
vt 0.012924 0.329834
vt 0.012428 0.328857
vt 0.013176 0.329102
vt 0.013939 0.329834
vt 0.013641 0.332031
vt 0.015083 0.335938
vt 0.014740 0.331543
vt 0.016907 0.330566
vt 0.016663 0.329102
vt 0.015450 0.328369
vt 0.013634 0.329102
vt 0.015099 0.328125
vt 0.013466 0.328613
vt 0.015282 0.327881
vt 0.015808 0.328125
vt 0.015373 0.324951
vt 0.016006 0.324951
vt 0.016998 0.324707
vt 0.015297 0.321533
vt 0.014801 0.321777
vt 0.019409 0.324219
vt 0.016068 0.320557
vt 0.014847 0.321289
vt 0.014572 0.321777
vt 0.011780 0.320801
vt 0.011719 0.321533
vt 0.012016 0.319824
vt 0.023453 0.323730
vt 0.019073 0.318115
vt 0.014748 0.312500
vt 0.028000 0.323242
vt 0.022659 0.316406
vt 0.032745 0.322998
vt 0.027466 0.315186
vt 0.018585 0.310547
vt 0.022568 0.308594
vt 0.032593 0.314453
vt 0.038605 0.322754
vt 0.027466 0.307129
vt 0.017822 0.305908
vt 0.022415 0.303711
vt 0.013939 0.308105
vt 0.012016 0.299561
vt 0.016296 0.297363
vt 0.027252 0.302002
vt 0.021469 0.295410
vt 0.032562 0.305908
vt 0.015793 0.294434
vt 0.038605 0.313965
vt 0.021027 0.292236
vt 0.026825 0.293945
vt 0.032532 0.300781
vt 0.026550 0.290771
vt 0.032471 0.293213
vt 0.038605 0.304932
vt 0.038605 0.300049
vt 0.038605 0.292480
vt 0.032318 0.289795
vt 0.026154 0.285400
vt 0.020737 0.286865
vt 0.016113 0.289795
vt 0.020309 0.283203
vt 0.010139 0.298096
vt 0.009087 0.297607
vt 0.008186 0.301270
vt 0.007980 0.302734
vt 0.007107 0.301025
vt 0.010246 0.310791
vt 0.006851 0.302734
vt 0.006298 0.300781
vt 0.008202 0.296875
vt 0.006027 0.302734
vt 0.014450 0.288574
vt 0.009239 0.311279
vt 0.008492 0.311523
vt 0.015297 0.289062
vt 0.018875 0.281982
vt 0.010132 0.314941
vt 0.009399 0.315186
vt 0.011177 0.314453
vt 0.010284 0.320312
vt 0.010994 0.320068
vt 0.011246 0.320557
vt 0.010490 0.320801
vt 0.019577 0.282227
vt 0.020920 0.279541
vt 0.020218 0.279053
vt 0.021957 0.280029
vt 0.026337 0.281250
vt 0.023560 0.277344
vt 0.022675 0.276611
vt 0.022064 0.276123
vt 0.025024 0.274414
vt 0.024536 0.273682
vt 0.025711 0.275391
vt 0.028687 0.271973
vt 0.027405 0.277344
vt 0.028992 0.273926
vt 0.029007 0.272705
vt 0.032379 0.272217
vt 0.032257 0.271240
vt 0.038605 0.270996
vt 0.032532 0.273193
vt 0.038605 0.271729
vt 0.032471 0.276367
vt 0.038605 0.272705
vt 0.032349 0.280273
vt 0.038605 0.276123
vt 0.044678 0.273193
vt 0.044830 0.272217
vt 0.044952 0.271240
vt 0.048523 0.271973
vt 0.038605 0.279541
vt 0.044739 0.276367
vt 0.048218 0.272705
vt 0.048218 0.273926
vt 0.052185 0.274414
vt 0.052673 0.273682
vt 0.055145 0.276123
vt 0.054535 0.276611
vt 0.057007 0.279053
vt 0.051514 0.275391
vt 0.049805 0.277344
vt 0.053650 0.277344
vt 0.056305 0.279541
vt 0.058350 0.281982
vt 0.044830 0.280273
vt 0.050873 0.281250
vt 0.055267 0.280029
vt 0.057648 0.282227
vt 0.061920 0.289062
vt 0.056915 0.283203
vt 0.062744 0.288574
vt 0.068115 0.297607
vt 0.069031 0.296875
vt 0.061096 0.289795
vt 0.070923 0.300781
vt 0.070068 0.301025
vt 0.070374 0.302734
vt 0.071167 0.302734
vt 0.069031 0.301270
vt 0.067932 0.311279
vt 0.068726 0.311523
vt 0.069214 0.302734
vt 0.066956 0.310791
vt 0.067078 0.314941
vt 0.067810 0.315186
vt 0.066895 0.320312
vt 0.066040 0.314453
vt 0.066223 0.320068
vt 0.065979 0.320557
vt 0.066711 0.320801
vt 0.065186 0.319824
vt 0.062469 0.312500
vt 0.063293 0.308105
vt 0.065186 0.299561
vt 0.058624 0.310547
vt 0.061157 0.320557
vt 0.059387 0.305908
vt 0.067078 0.298096
vt 0.061401 0.294434
vt 0.060913 0.297363
vt 0.056183 0.292236
vt 0.055756 0.295410
vt 0.054810 0.303711
vt 0.054657 0.308594
vt 0.056488 0.286865
vt 0.050385 0.293945
vt 0.051056 0.285400
vt 0.050659 0.290771
vt 0.044922 0.284424
vt 0.044891 0.289795
vt 0.044739 0.293213
vt 0.038605 0.283691
vt 0.038605 0.289062
vt 0.032288 0.284424
vt 0.044678 0.300781
vt 0.049957 0.302002
vt 0.044647 0.305908
vt 0.049744 0.307129
vt 0.044617 0.314453
vt 0.049744 0.315186
vt 0.054535 0.316406
vt 0.044464 0.322998
vt 0.049225 0.323242
vt 0.058136 0.318115
vt 0.053741 0.323730
vt 0.057800 0.324219
vt 0.057068 0.329834
vt 0.053070 0.329346
vt 0.048676 0.329102
vt 0.044098 0.329102
vt 0.052399 0.335449
vt 0.048157 0.335449
vt 0.038605 0.329102
vt 0.043762 0.335449
vt 0.038605 0.335449
vt 0.038605 0.339844
vt 0.043518 0.339844
vt 0.047729 0.339844
vt 0.051788 0.339844
vt 0.047241 0.344238
vt 0.043243 0.344238
vt 0.038605 0.344238
vt 0.051147 0.344238
vt 0.034485 0.348389
vt 0.042725 0.348389
vt 0.030502 0.353027
vt 0.038605 0.348633
vt 0.034515 0.353271
vt 0.026749 0.353516
vt 0.030396 0.354248
vt 0.030319 0.354980
vt 0.034485 0.354492
vt 0.034454 0.355225
vt 0.038605 0.355469
vt 0.038605 0.354736
vt 0.038605 0.353516
vt 0.042725 0.354492
vt 0.042755 0.355225
vt 0.046875 0.354980
vt 0.042694 0.353271
vt 0.046814 0.354248
vt 0.050598 0.354248
vt 0.046722 0.353027
vt 0.046783 0.348633
vt 0.050476 0.353516
vt 0.053314 0.352783
vt 0.050323 0.352295
vt 0.053589 0.353516
vt 0.050598 0.348633
vt 0.056671 0.351562
vt 0.053040 0.351562
vt 0.057037 0.352051
vt 0.053802 0.348877
vt 0.056244 0.350342
vt 0.059204 0.350098
vt 0.059662 0.350586
vt 0.058441 0.349121
vt 0.056885 0.348145
vt 0.054871 0.343994
vt 0.061218 0.347900
vt 0.061737 0.348145
vt 0.060303 0.347168
vt 0.059204 0.345947
vt 0.061951 0.344971
vt 0.062927 0.345215
vt 0.063660 0.345703
vt 0.063965 0.341797
vt 0.064697 0.342041
vt 0.057861 0.343994
vt 0.060486 0.343750
vt 0.064758 0.336426
vt 0.065552 0.336426
vt 0.062866 0.341553
vt 0.065430 0.332031
vt 0.064697 0.332031
vt 0.065002 0.329590
vt 0.063660 0.336182
vt 0.061523 0.340576
vt 0.058960 0.340332
vt 0.064270 0.329834
vt 0.064758 0.328857
vt 0.064026 0.329102
vt 0.063232 0.329834
vt 0.063538 0.332031
vt 0.062134 0.335938
vt 0.062469 0.331543
vt 0.059540 0.335693
vt 0.060303 0.330566
vt 0.060547 0.329102
vt 0.056305 0.335449
vt 0.055634 0.340088
vt 0.060211 0.324707
vt 0.061401 0.328125
vt 0.061920 0.321533
vt 0.061188 0.324951
vt 0.061859 0.324951
vt 0.061951 0.327881
vt 0.062408 0.321777
vt 0.061768 0.328369
vt 0.062103 0.328125
vt 0.063538 0.329102
vt 0.063721 0.328613
vt 0.062378 0.321289
vt 0.062622 0.321777
vt 0.065430 0.320801
vt 0.065491 0.321533
vt 0.966797 0.168945
vt 0.965332 0.169067
vt 0.965820 0.166748
vt 0.967773 0.169434
vt 0.967285 0.170044
vt 0.968262 0.168701
vt 0.966309 0.170532
vt 0.968262 0.167603
vt 0.965332 0.170898
vt 0.964844 0.171143
vt 0.967285 0.166626
vt 0.968750 0.166016
vt 0.963379 0.169067
vt 0.963867 0.171265
vt 0.962891 0.171265
vt 0.963379 0.166748
vt 0.961426 0.169067
vt 0.961426 0.171387
vt 0.960449 0.171265
vt 0.961426 0.166748
vt 0.959961 0.169067
vt 0.959473 0.171265
vt 0.958496 0.171143
vt 0.958008 0.169067
vt 0.957520 0.170898
vt 0.956543 0.170532
vt 0.959473 0.166748
vt 0.956055 0.168945
vt 0.956055 0.170044
vt 0.955566 0.169434
vt 0.955078 0.168701
vt 0.954590 0.167603
vt 0.961426 0.164185
vt 0.957520 0.166748
vt 0.956055 0.166626
vt 0.954590 0.166016
vt 0.959473 0.164185
vt 0.957520 0.164307
vt 0.956055 0.164429
vt 0.954590 0.164673
vt 0.955078 0.164062
vt 0.955078 0.163940
vt 0.955566 0.163696
vt 0.955566 0.163574
vt 0.957031 0.162354
vt 0.955566 0.162720
vt 0.955566 0.161621
vt 0.959473 0.161987
vt 0.957031 0.160400
vt 0.955566 0.161499
vt 0.961426 0.161865
vt 0.959473 0.159424
vt 0.955566 0.160645
vt 0.954590 0.161499
vt 0.954102 0.161377
vt 0.954102 0.159912
vt 0.954590 0.158325
vt 0.953613 0.158691
vt 0.954102 0.155518
vt 0.952637 0.156128
vt 0.952637 0.155640
vt 0.953125 0.154541
vt 0.956543 0.157227
vt 0.955566 0.154053
vt 0.954590 0.151733
vt 0.958984 0.156128
vt 0.961426 0.159180
vt 0.956055 0.151367
vt 0.956055 0.149536
vt 0.958984 0.153076
vt 0.961426 0.155640
vt 0.958984 0.150635
vt 0.958984 0.148315
vt 0.956055 0.148682
vt 0.956543 0.147705
vt 0.957520 0.146973
vt 0.958496 0.146362
vt 0.959473 0.146240
vt 0.961426 0.147949
vt 0.961426 0.145996
vt 0.963379 0.146240
vt 0.961426 0.150146
vt 0.964355 0.148315
vt 0.964844 0.146362
vt 0.965820 0.146973
vt 0.966309 0.147705
vt 0.966797 0.148682
vt 0.967285 0.149536
vt 0.961426 0.152588
vt 0.964355 0.150635
vt 0.964355 0.153076
vt 0.966797 0.151367
vt 0.968750 0.151733
vt 0.967773 0.154053
vt 0.970215 0.154541
vt 0.963867 0.156128
vt 0.969238 0.155518
vt 0.970703 0.155640
vt 0.970703 0.156128
vt 0.969727 0.158691
vt 0.963867 0.159424
vt 0.966797 0.157227
vt 0.968262 0.158325
vt 0.969238 0.159912
vt 0.966309 0.160400
vt 0.967773 0.160645
vt 0.968750 0.161377
vt 0.968750 0.161499
vt 0.967773 0.161499
vt 0.967773 0.161621
vt 0.963867 0.161987
vt 0.966309 0.162354
vt 0.967285 0.162720
vt 0.967773 0.163574
vt 0.965820 0.164307
vt 0.963867 0.164185
vt 0.967285 0.164429
vt 0.967773 0.163696
vt 0.968262 0.163940
vt 0.968262 0.164673
vt 0.968262 0.164062
s 1
f 2/1/1 3/2/2 1/3/3
f 5/4/4 2/1/1 1/3/3
f 1/3/3 3/2/2 24/5/5
f 2/1/1 49/6/6 3/2/2
f 5/4/4 1/3/3 4/7/7
f 8/8/8 2/1/1 5/4/4
f 24/5/5 216/9/9 1/3/3
f 216/9/9 4/7/7 1/3/3
f 3/2/2 31/10/10 24/5/5
f 214/11/11 4/7/7 216/9/9
f 3/2/2 50/12/12 31/10/10
f 49/6/6 50/12/12 3/2/2
f 51/13/13 49/6/6 2/1/1
f 8/8/8 51/13/13 2/1/1
f 49/6/6 53/14/14 50/12/12
f 51/13/13 52/15/15 49/6/6
f 52/15/15 53/14/14 49/6/6
f 48/16/16 52/15/15 51/13/13
f 54/17/17 51/13/13 8/8/8
f 54/17/17 48/16/16 51/13/13
f 15/18/18 54/17/17 8/8/8
f 52/15/15 48/16/16 86/19/19
f 53/14/14 52/15/15 85/20/20
f 85/20/20 52/15/15 86/19/19
f 62/21/21 53/14/14 85/20/20
f 15/18/18 8/8/8 7/22/22
f 7/22/22 8/8/8 5/4/4
f 53/14/14 33/23/23 50/12/12
f 33/23/23 53/14/14 62/21/21
f 50/12/12 33/23/23 32/24/24
f 50/12/12 32/24/24 31/10/10
f 61/25/25 33/23/23 62/21/21
f 33/23/23 34/26/26 32/24/24
f 34/26/26 33/23/23 61/25/25
f 31/10/10 32/24/24 137/27/27
f 32/24/24 34/26/26 201/28/28
f 32/24/24 201/28/28 137/27/27
f 31/10/10 137/27/27 22/29/29
f 24/5/5 31/10/10 22/29/29
f 103/30/30 137/27/27 201/28/28
f 219/31/31 22/29/29 137/27/27
f 103/30/30 219/31/31 137/27/27
f 23/32/32 24/5/5 22/29/29
f 22/29/29 219/31/31 23/32/32
f 216/9/9 24/5/5 23/32/32
f 103/30/30 104/33/33 219/31/31
f 104/33/33 125/34/34 219/31/31
f 26/35/35 104/33/33 103/30/30
f 219/31/31 125/34/34 124/36/36
f 219/31/31 124/36/36 23/32/32
f 125/34/34 126/37/37 124/36/36
f 234/38/38 216/9/9 23/32/32
f 23/32/32 124/36/36 234/38/38
f 234/38/38 214/11/11 216/9/9
f 124/36/36 126/37/37 226/39/39
f 124/36/36 226/39/39 234/38/38
f 234/38/38 226/39/39 214/11/11
f 126/37/37 227/40/40 226/39/39
f 226/39/39 227/40/40 228/41/41
f 226/39/39 228/41/41 214/11/11
f 227/40/40 113/42/42 228/41/41
f 228/41/41 113/42/42 112/43/43
f 228/41/41 112/43/43 214/11/11
f 113/42/42 114/44/44 112/43/43
f 112/43/43 114/44/44 115/45/45
f 114/44/44 116/46/46 115/45/45
f 112/43/43 206/47/47 214/11/11
f 112/43/43 115/45/45 206/47/47
f 4/7/7 214/11/11 206/47/47
f 116/46/46 118/48/48 115/45/45
f 118/48/48 119/49/49 115/45/45
f 118/48/48 220/50/50 119/49/49
f 115/45/45 136/51/51 206/47/47
f 115/45/45 119/49/49 136/51/51
f 6/52/52 4/7/7 206/47/47
f 6/52/52 206/47/47 136/51/51
f 6/52/52 5/4/4 4/7/7
f 7/22/22 5/4/4 6/52/52
f 220/50/50 221/53/53 119/49/49
f 220/50/50 238/54/54 221/53/53
f 238/54/54 231/55/55 221/53/53
f 207/56/56 221/53/53 231/55/55
f 119/49/49 221/53/53 134/57/57
f 119/49/49 134/57/57 136/51/51
f 221/53/53 207/56/56 134/57/57
f 135/58/58 6/52/52 136/51/51
f 135/58/58 136/51/51 134/57/57
f 135/58/58 7/22/22 6/52/52
f 16/59/59 135/58/58 134/57/57
f 135/58/58 16/59/59 7/22/22
f 207/56/56 16/59/59 134/57/57
f 16/59/59 17/60/60 7/22/22
f 17/60/60 16/59/59 207/56/56
f 17/60/60 15/18/18 7/22/22
f 117/61/61 17/60/60 207/56/56
f 17/60/60 117/61/61 15/18/18
f 210/62/62 117/61/61 207/56/56
f 208/63/63 210/62/62 207/56/56
f 209/64/64 210/62/62 208/63/63
f 452/65/65 209/64/64 208/63/63
f 209/64/64 237/66/66 210/62/62
f 237/66/66 130/67/67 210/62/62
f 130/67/67 117/61/61 210/62/62
f 237/66/66 98/68/68 130/67/67
f 98/68/68 131/69/69 130/67/67
f 14/70/70 117/61/61 130/67/67
f 131/69/69 14/70/70 130/67/67
f 131/69/69 98/68/68 97/71/71
f 131/69/69 97/71/71 14/70/70
f 98/68/68 99/72/72 97/71/71
f 14/70/70 13/73/73 117/61/61
f 13/73/73 15/18/18 117/61/61
f 97/71/71 12/74/74 14/70/70
f 13/73/73 14/70/70 12/74/74
f 232/75/75 97/71/71 99/72/72
f 232/75/75 12/74/74 97/71/71
f 223/76/76 232/75/75 99/72/72
f 232/75/75 223/76/76 222/77/77
f 223/76/76 224/78/78 222/77/77
f 232/75/75 222/77/77 198/79/79
f 12/74/74 232/75/75 198/79/79
f 13/73/73 21/80/80 15/18/18
f 21/80/80 54/17/17 15/18/18
f 20/81/81 13/73/73 12/74/74
f 21/80/80 13/73/73 20/81/81
f 20/81/81 12/74/74 80/82/82
f 80/82/82 12/74/74 198/79/79
f 21/80/80 46/83/83 54/17/17
f 46/83/83 48/16/16 54/17/17
f 45/84/84 21/80/80 20/81/81
f 46/83/83 21/80/80 45/84/84
f 48/16/16 46/83/83 47/85/85
f 86/19/19 48/16/16 47/85/85
f 78/86/86 46/83/83 45/84/84
f 46/83/83 78/86/86 47/85/85
f 45/84/84 20/81/81 79/87/87
f 79/87/87 20/81/81 80/82/82
f 78/86/86 45/84/84 39/88/88
f 39/88/88 45/84/84 79/87/87
f 78/86/86 19/89/89 47/85/85
f 47/85/85 18/90/90 86/19/19
f 47/85/85 19/89/89 18/90/90
f 38/91/91 78/86/86 39/88/88
f 78/86/86 38/91/91 19/89/89
f 39/88/88 79/87/87 74/92/92
f 38/91/91 39/88/88 37/93/93
f 37/93/93 39/88/88 74/92/92
f 74/92/92 79/87/87 75/94/94
f 79/87/87 80/82/82 75/94/94
f 74/92/92 75/94/94 73/95/95
f 74/92/92 55/96/96 37/93/93
f 55/96/96 74/92/92 73/95/95
f 44/97/97 38/91/91 37/93/93
f 55/96/96 43/98/98 37/93/93
f 44/97/97 37/93/93 43/98/98
f 38/91/91 44/97/97 10/99/99
f 38/91/91 10/99/99 19/89/89
f 55/96/96 72/100/100 43/98/98
f 72/100/100 55/96/96 73/95/95
f 19/89/89 10/99/99 9/101/101
f 72/100/100 70/102/102 43/98/98
f 69/103/103 44/97/97 43/98/98
f 43/98/98 70/102/102 69/103/103
f 44/97/97 69/103/103 35/104/104
f 44/97/97 35/104/104 10/99/99
f 70/102/102 71/105/105 69/103/103
f 69/103/103 56/106/106 35/104/104
f 69/103/103 71/105/105 56/106/106
f 10/99/99 35/104/104 11/107/107
f 10/99/99 11/107/107 9/101/101
f 35/104/104 56/106/106 36/108/108
f 35/104/104 36/108/108 11/107/107
f 19/89/89 9/101/101 18/90/90
f 56/106/106 57/109/109 36/108/108
f 71/105/105 87/110/110 56/106/106
f 56/106/106 87/110/110 57/109/109
f 71/105/105 109/111/111 87/110/110
f 70/102/102 108/112/112 71/105/105
f 108/112/112 109/111/111 71/105/105
f 121/113/113 108/112/112 70/102/102
f 72/100/100 121/113/113 70/102/102
f 108/112/112 95/114/114 109/111/111
f 95/114/114 108/112/112 121/113/113
f 121/113/113 72/100/100 120/115/115
f 120/115/115 72/100/100 73/95/95
f 121/113/113 120/115/115 88/116/116
f 120/115/115 73/95/95 200/117/117
f 120/115/115 200/117/117 88/116/116
f 200/117/117 73/95/95 199/118/118
f 199/118/118 73/95/95 75/94/94
f 200/117/117 199/118/118 123/119/119
f 200/117/117 123/119/119 88/116/116
f 92/120/120 199/118/118 75/94/94
f 75/94/94 80/82/82 92/120/120
f 199/118/118 42/121/121 123/119/119
f 42/121/121 199/118/118 92/120/120
f 122/122/122 123/119/119 42/121/121
f 123/119/119 122/122/122 88/116/116
f 122/122/122 211/123/123 88/116/116
f 41/124/124 122/122/122 42/121/121
f 211/123/123 89/125/125 88/116/116
f 41/124/124 42/121/121 40/126/126
f 40/126/126 42/121/121 92/120/120
f 59/127/127 41/124/124 40/126/126
f 89/125/125 66/128/128 88/116/116
f 66/128/128 121/113/113 88/116/116
f 89/125/125 67/129/129 66/128/128
f 95/114/114 121/113/113 66/128/128
f 59/127/127 40/126/126 58/130/130
f 239/131/131 59/127/127 58/130/130
f 40/126/126 92/120/120 93/132/132
f 58/130/130 40/126/126 93/132/132
f 80/82/82 93/132/132 92/120/120
f 93/132/132 80/82/82 198/79/79
f 93/132/132 198/79/79 58/130/130
f 236/133/133 239/131/131 58/130/130
f 198/79/79 229/134/134 58/130/130
f 229/134/134 236/133/133 58/130/130
f 198/79/79 230/135/135 229/134/134
f 236/133/133 229/134/134 230/135/135
f 453/136/136 236/133/133 230/135/135
f 68/137/137 95/114/114 66/128/128
f 67/129/129 68/137/137 66/128/128
f 68/137/137 67/129/129 212/138/138
f 67/129/129 213/139/139 212/138/138
f 96/140/140 95/114/114 68/137/137
f 212/138/138 96/140/140 68/137/137
f 95/114/114 96/140/140 94/141/141
f 95/114/114 94/141/141 109/111/111
f 204/142/142 96/140/140 212/138/138
f 204/142/142 94/141/141 96/140/140
f 212/138/138 213/139/139 225/143/143
f 225/143/143 204/142/142 212/138/138
f 213/139/139 106/144/144 225/143/143
f 225/143/143 106/144/144 105/145/145
f 106/144/144 107/146/146 105/145/145
f 203/147/147 204/142/142 225/143/143
f 105/145/145 203/147/147 225/143/143
f 107/146/146 128/148/148 105/145/145
f 204/142/142 203/147/147 91/149/149
f 91/149/149 94/141/141 204/142/142
f 90/150/150 203/147/147 105/145/145
f 90/150/150 91/149/149 203/147/147
f 128/148/148 129/151/151 105/145/145
f 129/151/151 90/150/150 105/145/145
f 129/151/151 128/148/148 100/152/152
f 128/148/148 205/153/153 100/152/152
f 205/153/153 101/154/154 100/152/152
f 100/152/152 110/155/155 129/151/151
f 110/155/155 90/150/150 129/151/151
f 101/154/154 102/156/156 100/152/152
f 110/155/155 100/152/152 102/156/156
f 110/155/155 81/157/157 90/150/150
f 81/157/157 91/149/149 90/150/150
f 449/158/158 110/155/155 102/156/156
f 91/149/149 81/157/157 83/159/159
f 94/141/141 91/149/149 83/159/159
f 111/160/160 81/157/157 110/155/155
f 449/158/158 111/160/160 110/155/155
f 449/158/158 102/156/156 333/161/161
f 449/158/158 333/161/161 111/160/160
f 326/162/162 102/156/156 101/154/154
f 102/156/156 326/162/162 333/161/161
f 457/163/163 326/162/162 101/154/154
f 457/163/163 350/164/164 326/162/162
f 111/160/160 82/165/165 81/157/157
f 82/165/165 83/159/159 81/157/157
f 333/161/161 310/166/166 111/160/160
f 111/160/160 310/166/166 82/165/165
f 333/161/161 326/162/162 351/167/167
f 350/164/164 351/167/167 326/162/162
f 333/161/161 316/168/168 310/166/166
f 316/168/168 333/161/161 351/167/167
f 328/169/169 351/167/167 350/164/164
f 316/168/168 351/167/167 328/169/169
f 458/170/170 328/169/169 350/164/164
f 458/170/170 329/171/171 328/169/169
f 329/171/171 330/172/172 328/169/169
f 329/171/171 434/173/173 330/172/172
f 413/174/174 316/168/168 328/169/169
f 413/174/174 328/169/169 330/172/172
f 317/175/175 316/168/168 413/174/174
f 316/168/168 317/175/175 310/166/166
f 414/176/176 413/174/174 330/172/172
f 413/174/174 414/176/176 317/175/175
f 434/173/173 420/177/177 330/172/172
f 414/176/176 330/172/172 420/177/177
f 434/173/173 297/178/178 420/177/177
f 311/179/179 310/166/166 317/175/175
f 310/166/166 311/179/179 82/165/165
f 320/180/180 317/175/175 414/176/176
f 320/180/180 311/179/179 317/175/175
f 321/181/181 414/176/176 420/177/177
f 320/180/180 414/176/176 321/181/181
f 297/178/178 299/182/182 420/177/177
f 321/181/181 420/177/177 299/182/182
f 298/183/183 299/182/182 297/178/178
f 322/184/184 321/181/181 299/182/182
f 321/181/181 322/184/184 320/180/180
f 322/184/184 299/182/182 298/183/183
f 314/185/185 298/183/183 297/178/178
f 315/186/186 298/183/183 314/185/185
f 456/187/187 315/186/186 314/185/185
f 343/188/188 322/184/184 298/183/183
f 343/188/188 298/183/183 315/186/186
f 456/187/187 344/189/189 315/186/186
f 344/189/189 345/190/190 315/186/186
f 278/191/191 345/190/190 344/189/189
f 276/192/192 278/191/191 344/189/189
f 315/186/186 345/190/190 410/193/193
f 277/194/194 278/191/191 276/192/192
f 292/195/195 277/194/194 276/192/192
f 345/190/190 278/191/191 409/196/196
f 410/193/193 345/190/190 409/196/196
f 277/194/194 318/197/197 278/191/191
f 318/197/197 409/196/196 278/191/191
f 293/198/198 277/194/194 292/195/195
f 455/199/199 293/198/198 292/195/195
f 455/199/199 443/200/200 293/198/198
f 293/198/198 442/201/201 277/194/194
f 442/201/201 318/197/197 277/194/194
f 443/200/200 438/202/202 293/198/198
f 438/202/202 443/200/200 439/203/203
f 443/200/200 444/204/204 439/203/203
f 439/203/203 408/205/205 438/202/202
f 293/198/198 438/202/202 408/205/205
f 442/201/201 293/198/198 408/205/205
f 442/201/201 309/206/206 318/197/197
f 442/201/201 408/205/205 309/206/206
f 318/197/197 305/207/207 409/196/196
f 309/206/206 305/207/207 318/197/197
f 305/207/207 304/208/208 409/196/196
f 304/208/208 410/193/193 409/196/196
f 305/207/207 309/206/206 308/209/209
f 408/205/205 251/210/210 309/206/206
f 304/208/208 305/207/207 303/211/211
f 303/211/211 305/207/207 308/209/209
f 304/208/208 342/212/212 410/193/193
f 342/212/212 315/186/186 410/193/193
f 342/212/212 343/188/188 315/186/186
f 342/212/212 304/208/208 302/213/213
f 302/213/213 343/188/188 342/212/212
f 290/214/214 304/208/208 303/211/211
f 304/208/208 290/214/214 302/213/213
f 302/213/213 301/215/215 343/188/188
f 290/214/214 280/216/216 302/213/213
f 280/216/216 301/215/215 302/213/213
f 303/211/211 274/217/217 290/214/214
f 274/217/217 280/216/216 290/214/214
f 274/217/217 303/211/211 275/218/218
f 303/211/211 308/209/209 275/218/218
f 301/215/215 332/219/219 343/188/188
f 332/219/219 322/184/184 343/188/188
f 301/215/215 280/216/216 300/220/220
f 322/184/184 332/219/219 346/221/221
f 320/180/180 322/184/184 346/221/221
f 332/219/219 301/215/215 331/222/222
f 346/221/221 332/219/219 331/222/222
f 331/222/222 301/215/215 300/220/220
f 346/221/221 296/223/223 320/180/180
f 296/223/223 311/179/179 320/180/180
f 331/222/222 313/224/224 346/221/221
f 313/224/224 296/223/223 346/221/221
f 300/220/220 291/225/225 331/222/222
f 291/225/225 313/224/224 331/222/222
f 296/223/223 65/226/226 311/179/179
f 65/226/226 82/165/165 311/179/179
f 82/165/165 65/226/226 83/159/159
f 63/227/227 65/226/226 296/223/223
f 313/224/224 63/227/227 296/223/223
f 65/226/226 64/228/228 83/159/159
f 64/228/228 65/226/226 63/227/227
f 94/141/141 83/159/159 64/228/228
f 109/111/111 94/141/141 64/228/228
f 109/111/111 64/228/228 87/110/110
f 87/110/110 64/228/228 63/227/227
f 87/110/110 63/227/227 57/109/109
f 57/109/109 63/227/227 313/224/224
f 291/225/225 57/109/109 313/224/224
f 36/108/108 57/109/109 291/225/225
f 272/229/229 36/108/108 291/225/225
f 272/229/229 291/225/225 300/220/220
f 11/107/107 36/108/108 272/229/229
f 279/230/230 272/229/229 300/220/220
f 300/220/220 280/216/216 279/230/230
f 280/216/216 274/217/217 279/230/230
f 249/231/231 11/107/107 272/229/229
f 249/231/231 272/229/229 279/230/230
f 9/101/101 11/107/107 249/231/231
f 279/230/230 274/217/217 273/232/232
f 273/232/232 249/231/231 279/230/230
f 274/217/217 275/218/218 273/232/232
f 256/233/233 9/101/101 249/231/231
f 256/233/233 249/231/231 273/232/232
f 18/90/90 9/101/101 256/233/233
f 273/232/232 275/218/218 307/234/234
f 307/234/234 256/233/233 273/232/232
f 275/218/218 259/235/235 307/234/234
f 259/235/235 275/218/218 308/209/209
f 282/236/236 256/233/233 307/234/234
f 282/236/236 18/90/90 256/233/233
f 307/234/234 259/235/235 281/237/237
f 281/237/237 282/236/236 307/234/234
f 257/238/238 259/235/235 308/209/209
f 257/238/238 308/209/209 309/206/206
f 251/210/210 257/238/238 309/206/206
f 258/239/239 259/235/235 257/238/238
f 259/235/235 258/239/239 281/237/237
f 250/240/240 258/239/239 257/238/238
f 257/238/238 251/210/210 250/240/240
f 258/239/239 250/240/240 253/241/241
f 281/237/237 258/239/239 289/242/242
f 289/242/242 258/239/239 253/241/241
f 283/243/243 281/237/237 289/242/242
f 281/237/237 283/243/243 282/236/236
f 283/243/243 284/244/244 282/236/236
f 282/236/236 284/244/244 18/90/90
f 283/243/243 289/242/242 286/245/245
f 283/243/243 287/246/246 284/244/244
f 287/246/246 283/243/243 286/245/245
f 284/244/244 84/247/247 18/90/90
f 18/90/90 84/247/247 86/19/19
f 85/20/20 86/19/19 84/247/247
f 84/247/247 284/244/244 312/248/248
f 287/246/246 312/248/248 284/244/244
f 127/249/249 85/20/20 84/247/247
f 127/249/249 84/247/247 312/248/248
f 62/21/21 85/20/20 127/249/249
f 60/250/250 62/21/21 127/249/249
f 61/25/25 62/21/21 60/250/250
f 312/248/248 295/251/251 127/249/249
f 295/251/251 60/250/250 127/249/249
f 287/246/246 288/252/252 312/248/248
f 288/252/252 295/251/251 312/248/248
f 288/252/252 287/246/246 285/253/253
f 287/246/246 286/245/245 285/253/253
f 288/252/252 270/254/254 295/251/251
f 60/250/250 295/251/251 294/255/255
f 270/254/254 294/255/255 295/251/251
f 76/256/256 60/250/250 294/255/255
f 76/256/256 61/25/25 60/250/250
f 288/252/252 285/253/253 271/257/257
f 270/254/254 288/252/252 271/257/257
f 77/258/258 61/25/25 76/256/256
f 77/258/258 34/26/26 61/25/25
f 76/256/256 294/255/255 306/259/259
f 202/260/260 34/26/26 77/258/258
f 34/26/26 202/260/260 201/28/28
f 132/261/261 77/258/258 76/256/256
f 132/261/261 76/256/256 306/259/259
f 133/262/262 202/260/260 77/258/258
f 133/262/262 77/258/258 132/261/261
f 27/263/263 201/28/28 202/260/260
f 27/263/263 103/30/30 201/28/28
f 27/263/263 26/35/35 103/30/30
f 25/264/264 27/263/263 202/260/260
f 26/35/35 27/263/263 25/264/264
f 25/264/264 202/260/260 133/262/262
f 215/265/265 26/35/35 25/264/264
f 215/265/265 25/264/264 28/266/266
f 28/266/266 25/264/264 133/262/262
f 30/267/267 215/265/265 28/266/266
f 29/268/268 30/267/267 28/266/266
f 267/269/269 29/268/268 28/266/266
f 28/266/266 133/262/262 235/270/270
f 267/269/269 28/266/266 235/270/270
f 235/270/270 133/262/262 132/261/261
f 29/268/268 267/269/269 266/271/271
f 267/269/269 235/270/270 266/271/271
f 454/272/272 29/268/268 266/271/271
f 454/272/272 266/271/271 423/273/273
f 235/270/270 132/261/261 353/274/274
f 235/270/270 353/274/274 266/271/271
f 132/261/261 306/259/259 353/274/274
f 266/271/271 264/275/275 423/273/273
f 266/271/271 353/274/274 264/275/275
f 423/273/273 264/275/275 263/276/276
f 412/277/277 353/274/274 306/259/259
f 353/274/274 412/277/277 264/275/275
f 319/278/278 412/277/277 306/259/259
f 319/278/278 306/259/259 294/255/255
f 270/254/254 319/278/278 294/255/255
f 264/275/275 265/279/279 263/276/276
f 264/275/275 412/277/277 265/279/279
f 263/276/276 265/279/279 327/280/280
f 412/277/277 411/281/281 265/279/279
f 411/281/281 412/277/277 319/278/278
f 265/279/279 411/281/281 327/280/280
f 428/282/282 263/276/276 327/280/280
f 319/278/278 270/254/254 269/283/283
f 269/283/283 411/281/281 319/278/278
f 270/254/254 271/257/257 269/283/283
f 428/282/282 327/280/280 349/284/284
f 411/281/281 356/285/285 327/280/280
f 356/285/285 411/281/281 269/283/283
f 327/280/280 356/285/285 349/284/284
f 348/286/286 428/282/282 349/284/284
f 268/287/287 356/285/285 269/283/283
f 269/283/283 271/257/257 268/287/287
f 356/285/285 260/288/288 349/284/284
f 260/288/288 356/285/285 268/287/287
f 348/286/286 349/284/284 347/289/289
f 436/290/290 348/286/286 347/289/289
f 349/284/284 260/288/288 262/291/291
f 347/289/289 349/284/284 262/291/291
f 261/292/292 260/288/288 268/287/287
f 261/292/292 262/291/291 260/288/288
f 271/257/257 243/293/293 268/287/287
f 261/292/292 268/287/287 243/293/293
f 271/257/257 285/253/253 243/293/293
f 436/290/290 347/289/289 435/294/294
f 437/295/295 436/290/290 435/294/294
f 347/289/289 262/291/291 425/296/296
f 435/294/294 347/289/289 425/296/296
f 425/296/296 262/291/291 424/297/297
f 262/291/291 261/292/292 424/297/297
f 435/294/294 425/296/296 422/298/298
f 422/298/298 425/296/296 424/297/297
f 437/295/295 435/294/294 336/299/299
f 336/299/299 435/294/294 422/298/298
f 335/300/300 437/295/295 336/299/299
f 335/300/300 336/299/299 334/301/301
f 336/299/299 422/298/298 334/301/301
f 338/302/302 335/300/300 334/301/301
f 424/297/297 261/292/292 242/303/303
f 242/303/303 261/292/292 243/293/293
f 245/304/304 422/298/298 424/297/297
f 245/304/304 424/297/297 242/303/303
f 338/302/302 334/301/301 337/305/305
f 459/306/306 338/302/302 337/305/305
f 422/298/298 421/307/307 334/301/301
f 421/307/307 422/298/298 245/304/304
f 334/301/301 421/307/307 337/305/305
f 459/306/306 337/305/305 340/308/308
f 337/305/305 341/309/309 340/308/308
f 340/308/308 341/309/309 429/310/310
f 421/307/307 355/311/311 337/305/305
f 337/305/305 355/311/311 341/309/309
f 247/312/312 421/307/307 245/304/304
f 421/307/307 247/312/312 355/311/311
f 247/312/312 245/304/304 244/313/313
f 245/304/304 242/303/303 244/313/313
f 341/309/309 430/314/314 429/310/310
f 446/315/315 429/310/310 430/314/314
f 440/316/316 446/315/315 430/314/314
f 430/314/314 415/317/317 440/316/316
f 341/309/309 354/318/318 430/314/314
f 355/311/311 354/318/318 341/309/309
f 354/318/318 415/317/317 430/314/314
f 354/318/318 355/311/311 255/319/319
f 247/312/312 255/319/319 355/311/311
f 254/320/320 354/318/318 255/319/319
f 254/320/320 415/317/317 354/318/318
f 255/319/319 247/312/312 246/321/321
f 254/320/320 255/319/319 246/321/321
f 247/312/312 244/313/313 246/321/321
f 254/320/320 416/322/322 415/317/317
f 416/322/322 254/320/320 246/321/321
f 416/322/322 339/323/323 415/317/317
f 416/322/322 246/321/321 253/241/241
f 416/322/322 253/241/241 339/323/323
f 246/321/321 244/313/313 248/324/324
f 246/321/321 248/324/324 253/241/241
f 289/242/242 253/241/241 248/324/324
f 286/245/245 289/242/242 248/324/324
f 250/240/240 339/323/323 253/241/241
f 286/245/245 248/324/324 241/325/325
f 244/313/313 241/325/325 248/324/324
f 285/253/253 286/245/245 241/325/325
f 244/313/313 242/303/303 241/325/325
f 285/253/253 241/325/325 243/293/293
f 242/303/303 243/293/293 241/325/325
f 252/326/326 339/323/323 250/240/240
f 251/210/210 252/326/326 250/240/240
f 339/323/323 252/326/326 352/327/327
f 252/326/326 251/210/210 323/328/328
f 252/326/326 325/329/329 352/327/327
f 325/329/329 252/326/326 323/328/328
f 352/327/327 325/329/329 324/330/330
f 324/330/330 325/329/329 323/328/328
f 445/331/331 352/327/327 324/330/330
f 447/332/332 324/330/330 323/328/328
f 339/323/323 352/327/327 419/333/333
f 352/327/327 445/331/331 419/333/333
f 415/317/317 339/323/323 419/333/333
f 445/331/331 417/334/334 419/333/333
f 418/335/335 415/317/317 419/333/333
f 418/335/335 419/333/333 417/334/334
f 460/336/336 418/335/335 417/334/334
f 447/332/332 323/328/328 433/337/337
f 251/210/210 433/337/337 323/328/328
f 433/337/337 251/210/210 408/205/205
f 432/338/338 447/332/332 433/337/337
f 431/339/339 433/337/337 408/205/205
f 432/338/338 433/337/337 431/339/339
f 461/340/340 432/338/338 431/339/339
f 139/341/341 140/342/342 138/343/343
f 187/344/344 195/345/345 139/341/341
f 187/344/344 139/341/341 186/346/346
f 139/341/341 195/345/345 181/347/347
f 139/341/341 181/347/347 140/342/342
f 188/348/348 186/346/346 139/341/341
f 181/347/347 182/349/349 140/342/342
f 140/342/342 182/349/349 149/350/350
f 145/351/351 188/348/348 139/341/341
f 145/351/351 139/341/341 138/343/343
f 188/348/348 145/351/351 189/352/352
f 140/342/342 149/350/350 148/353/353
f 149/350/350 150/354/354 148/353/353
f 150/354/354 151/355/355 148/353/353
f 148/353/353 161/356/356 140/342/342
f 161/356/356 138/343/343 140/342/342
f 152/357/357 148/353/353 151/355/355
f 450/358/358 152/357/357 151/355/355
f 450/358/358 367/359/359 152/357/357
f 152/357/357 166/360/360 148/353/353
f 166/360/360 161/356/356 148/353/353
f 367/359/359 365/361/361 152/357/357
f 152/357/357 365/361/361 166/360/360
f 367/359/359 366/362/362 365/361/361
f 365/361/361 366/362/362 364/363/363
f 359/364/364 365/361/361 364/363/363
f 393/365/365 359/364/364 364/363/363
f 359/364/364 393/365/365 392/366/366
f 376/367/367 365/361/361 359/364/364
f 365/361/361 376/367/367 166/360/360
f 357/368/368 359/364/364 392/366/366
f 403/369/369 357/368/368 392/366/366
f 403/369/369 398/370/370 357/368/368
f 357/368/368 398/370/370 397/371/371
f 357/368/368 397/371/371 399/372/372
f 166/360/360 376/367/367 173/373/373
f 166/360/360 173/373/373 161/356/356
f 358/374/374 376/367/367 359/364/364
f 358/374/374 359/364/364 357/368/368
f 361/375/375 357/368/368 399/372/372
f 361/375/375 358/374/374 357/368/368
f 361/375/375 399/372/372 400/376/376
f 377/377/377 376/367/367 358/374/374
f 376/367/367 377/377/377 173/373/373
f 362/378/378 358/374/374 361/375/375
f 362/378/378 377/377/377 358/374/374
f 390/379/379 361/375/375 400/376/376
f 390/379/379 362/378/378 361/375/375
f 404/380/380 390/379/379 400/376/376
f 405/381/381 390/379/379 404/380/380
f 390/379/379 405/381/381 388/382/382
f 389/383/383 390/379/379 388/382/382
f 390/379/379 389/383/383 401/384/384
f 390/379/379 401/384/384 362/378/378
f 375/385/385 362/378/378 401/384/384
f 407/386/386 375/385/385 401/384/384
f 375/385/385 407/386/386 406/387/387
f 375/385/385 374/388/388 362/378/378
f 374/388/388 377/377/377 362/378/378
f 373/389/389 375/385/385 406/387/387
f 374/388/388 375/385/385 373/389/389
f 373/389/389 406/387/387 441/390/390
f 374/388/388 147/391/391 377/377/377
f 147/391/391 173/373/373 377/377/377
f 363/392/392 374/388/388 373/389/389
f 374/388/388 363/392/392 147/391/391
f 373/389/389 441/390/390 426/393/393
f 448/394/394 426/393/393 441/390/390
f 448/394/394 427/395/395 426/393/393
f 426/393/393 427/395/395 380/396/396
f 379/397/397 426/393/393 380/396/396
f 373/389/389 426/393/393 379/397/397
f 379/397/397 380/396/396 369/398/398
f 379/397/397 369/398/398 368/399/399
f 369/398/398 370/400/400 368/399/399
f 402/401/401 368/399/399 370/400/400
f 385/402/402 368/399/399 402/401/401
f 372/403/403 373/389/389 379/397/397
f 372/403/403 379/397/397 368/399/399
f 363/392/392 373/389/389 372/403/403
f 371/404/404 368/399/399 385/402/402
f 371/404/404 372/403/403 368/399/399
f 386/405/405 371/404/404 385/402/402
f 360/406/406 363/392/392 372/403/403
f 360/406/406 372/403/403 371/404/404
f 363/392/392 360/406/406 142/407/407
f 371/404/404 386/405/405 387/408/408
f 383/409/409 387/408/408 386/405/405
f 378/410/410 360/406/406 371/404/404
f 371/404/404 387/408/408 378/410/410
f 360/406/406 378/410/410 143/411/411
f 360/406/406 143/411/411 142/407/407
f 387/408/408 381/412/412 378/410/410
f 387/408/408 383/409/409 381/412/412
f 363/392/392 142/407/407 147/391/391
f 383/409/409 382/413/413 381/412/412
f 383/409/409 384/414/414 382/413/413
f 382/413/413 384/414/414 394/415/415
f 394/415/415 395/416/416 382/413/413
f 396/417/417 382/413/413 395/416/416
f 396/417/417 391/418/418 382/413/413
f 172/419/419 382/413/413 391/418/418
f 451/420/420 172/419/419 391/418/418
f 451/420/420 180/421/421 172/419/419
f 172/419/419 168/422/422 382/413/413
f 168/422/422 381/412/412 382/413/413
f 180/421/421 169/423/423 172/419/419
f 168/422/422 172/419/419 169/423/423
f 180/421/421 185/424/424 169/423/423
f 169/423/423 185/424/424 183/425/425
f 183/425/425 184/426/426 169/423/423
f 170/427/427 169/423/423 184/426/426
f 170/427/427 171/428/428 169/423/423
f 381/412/412 168/422/422 164/429/429
f 378/410/410 381/412/412 164/429/429
f 378/410/410 164/429/429 143/411/411
f 167/430/430 168/422/422 169/423/423
f 164/429/429 168/422/422 167/430/430
f 169/423/423 171/428/428 167/430/430
f 143/411/411 164/429/429 163/431/431
f 163/431/431 164/429/429 167/430/430
f 171/428/428 176/432/432 167/430/430
f 167/430/430 176/432/432 163/431/431
f 176/432/432 171/428/428 175/433/433
f 175/433/433 156/434/434 176/432/432
f 176/432/432 156/434/434 163/431/431
f 156/434/434 175/433/433 174/435/435
f 141/436/436 143/411/411 163/431/431
f 163/431/431 156/434/434 141/436/436
f 142/407/407 143/411/411 141/436/436
f 153/437/437 156/434/434 174/435/435
f 153/437/437 174/435/435 193/438/438
f 153/437/437 193/438/438 194/439/439
f 194/439/439 154/440/440 153/437/437
f 146/441/441 142/407/407 141/436/436
f 156/434/434 157/442/442 141/436/436
f 156/434/434 153/437/437 157/442/442
f 141/436/436 157/442/442 146/441/441
f 147/391/391 142/407/407 146/441/441
f 153/437/437 155/443/443 157/442/442
f 154/440/440 155/443/443 153/437/437
f 165/444/444 155/443/443 154/440/440
f 159/445/445 157/442/442 155/443/443
f 157/442/442 159/445/445 146/441/441
f 155/443/443 165/444/444 217/446/446
f 217/446/446 159/445/445 155/443/443
f 165/444/444 218/447/447 217/446/446
f 218/447/447 240/448/448 217/446/446
f 217/446/446 240/448/448 233/449/449
f 233/449/449 159/445/445 217/446/446
f 197/450/450 159/445/445 233/449/449
f 146/441/441 159/445/445 158/451/451
f 158/451/451 147/391/391 146/441/441
f 159/445/445 197/450/450 160/452/452
f 159/445/445 160/452/452 158/451/451
f 197/450/450 190/453/453 160/452/452
f 190/453/453 191/454/454 160/452/452
f 158/451/451 160/452/452 144/455/455
f 160/452/452 191/454/454 144/455/455
f 158/451/451 162/456/456 147/391/391
f 162/456/456 158/451/451 144/455/455
f 162/456/456 173/373/373 147/391/391
f 173/373/373 162/456/456 161/356/356
f 161/356/356 162/456/456 138/343/343
f 162/456/456 144/455/455 138/343/343
f 145/351/351 138/343/343 144/455/455
f 178/457/457 144/455/455 191/454/454
f 178/457/457 145/351/351 144/455/455
f 179/458/458 178/457/457 191/454/454
f 145/351/351 178/457/457 189/352/352
f 178/457/457 179/458/458 177/459/459
f 178/457/457 192/460/460 189/352/352
f 196/461/461 178/457/457 177/459/459
f 178/457/457 196/461/461 192/460/460
